<svg width="1347" height="481" viewBox="0 0 1347 481" fill="none" xmlns="http://www.w3.org/2000/svg">
<g clip-path="url(#clip0_424_3802)">
<rect width="1347" height="481" rx="3" fill="#F1F3E4"/>
<path d="M792.5 238.5L1447.5 6.5" stroke="#E4F0C5" stroke-width="2"/>
<path d="M792 239L1541 490" stroke="#E4F0C5" stroke-width="2"/>
<circle cx="326" cy="435" r="4" fill="#E4F0C5"/>
<rect x="162" y="-75" width="251" height="150" rx="3" fill="#D2EA97"/>
<rect x="180" y="9" width="141" height="6.64151" rx="3.32075" fill="#C0E36A"/>
<rect x="180" y="39" width="141" height="6.64151" rx="3.32075" fill="#C0E36A"/>
<rect x="180" y="18.9609" width="111.583" height="6.64151" rx="3.32075" fill="#C0E36A"/>
<rect x="180" y="48.9609" width="111.583" height="6.64151" rx="3.32075" fill="#C0E36A"/>
<path d="M554 241H180" stroke="#E4F0C5" stroke-width="2"/>
<path d="M555 240L359 451" stroke="#E4F0C5" stroke-width="2"/>
<path d="M554 240L411 2" stroke="#E4F0C5" stroke-width="2"/>
<path d="M792 241L885 115" stroke="#E4F0C5" stroke-width="2"/>
<path d="M792 241L1047.5 434" stroke="#E4F0C5" stroke-width="2"/>
<path d="M788 241H1279" stroke="#E4F0C5" stroke-width="2"/>
<path d="M552 242.5L-88 30" stroke="#E4F0C5" stroke-width="2"/>
<path d="M556 241L-99 471" stroke="#E4F0C5" stroke-width="2"/>
<path d="M180 240C179.448 240 179 240.448 179 241C179 241.552 179.448 242 180 242V240ZM184.921 242C185.473 242 185.921 241.552 185.921 241C185.921 240.448 185.473 240 184.921 240V242ZM194.763 240C194.211 240 193.763 240.448 193.763 241C193.763 241.552 194.211 242 194.763 242V240ZM204.605 242C205.158 242 205.605 241.552 205.605 241C205.605 240.448 205.158 240 204.605 240V242ZM214.447 240C213.895 240 213.447 240.448 213.447 241C213.447 241.552 213.895 242 214.447 242V240ZM224.289 242C224.842 242 225.289 241.552 225.289 241C225.289 240.448 224.842 240 224.289 240V242ZM234.132 240C233.579 240 233.132 240.448 233.132 241C233.132 241.552 233.579 242 234.132 242V240ZM243.974 242C244.526 242 244.974 241.552 244.974 241C244.974 240.448 244.526 240 243.974 240V242ZM253.816 240C253.264 240 252.816 240.448 252.816 241C252.816 241.552 253.264 242 253.816 242V240ZM263.658 242C264.21 242 264.658 241.552 264.658 241C264.658 240.448 264.21 240 263.658 240V242ZM273.5 240C272.948 240 272.5 240.448 272.5 241C272.5 241.552 272.948 242 273.5 242V240ZM283.342 242C283.894 242 284.342 241.552 284.342 241C284.342 240.448 283.894 240 283.342 240V242ZM293.184 240C292.632 240 292.184 240.448 292.184 241C292.184 241.552 292.632 242 293.184 242V240ZM303.026 242C303.579 242 304.026 241.552 304.026 241C304.026 240.448 303.579 240 303.026 240V242ZM312.868 240C312.316 240 311.868 240.448 311.868 241C311.868 241.552 312.316 242 312.868 242V240ZM322.711 242C323.263 242 323.711 241.552 323.711 241C323.711 240.448 323.263 240 322.711 240V242ZM332.553 240C332 240 331.553 240.448 331.553 241C331.553 241.552 332 242 332.553 242V240ZM342.395 242C342.947 242 343.395 241.552 343.395 241C343.395 240.448 342.947 240 342.395 240V242ZM352.237 240C351.685 240 351.237 240.448 351.237 241C351.237 241.552 351.685 242 352.237 242V240ZM362.079 242C362.631 242 363.079 241.552 363.079 241C363.079 240.448 362.631 240 362.079 240V242ZM371.921 240C371.369 240 370.921 240.448 370.921 241C370.921 241.552 371.369 242 371.921 242V240ZM381.763 242C382.315 242 382.763 241.552 382.763 241C382.763 240.448 382.315 240 381.763 240V242ZM391.605 240C391.053 240 390.605 240.448 390.605 241C390.605 241.552 391.053 242 391.605 242V240ZM401.447 242C402 242 402.447 241.552 402.447 241C402.447 240.448 402 240 401.447 240V242ZM411.289 240C410.737 240 410.289 240.448 410.289 241C410.289 241.552 410.737 242 411.289 242V240ZM421.132 242C421.684 242 422.132 241.552 422.132 241C422.132 240.448 421.684 240 421.132 240V242ZM430.974 240C430.421 240 429.974 240.448 429.974 241C429.974 241.552 430.421 242 430.974 242V240ZM440.816 242C441.368 242 441.816 241.552 441.816 241C441.816 240.448 441.368 240 440.816 240V242ZM450.658 240C450.106 240 449.658 240.448 449.658 241C449.658 241.552 450.106 242 450.658 242V240ZM460.5 242C461.052 242 461.5 241.552 461.5 241C461.5 240.448 461.052 240 460.5 240V242ZM470.342 240C469.79 240 469.342 240.448 469.342 241C469.342 241.552 469.79 242 470.342 242V240ZM480.184 242C480.736 242 481.184 241.552 481.184 241C481.184 240.448 480.736 240 480.184 240V242ZM490.026 240C489.474 240 489.026 240.448 489.026 241C489.026 241.552 489.474 242 490.026 242V240ZM499.868 242C500.421 242 500.868 241.552 500.868 241C500.868 240.448 500.421 240 499.868 240V242ZM509.71 240C509.158 240 508.71 240.448 508.71 241C508.71 241.552 509.158 242 509.71 242V240ZM519.553 242C520.105 242 520.553 241.552 520.553 241C520.553 240.448 520.105 240 519.553 240V242ZM529.395 240C528.842 240 528.395 240.448 528.395 241C528.395 241.552 528.842 242 529.395 242V240ZM539.237 242C539.789 242 540.237 241.552 540.237 241C540.237 240.448 539.789 240 539.237 240V242ZM549.079 240C548.527 240 548.079 240.448 548.079 241C548.079 241.552 548.527 242 549.079 242V240ZM180 242H184.921V240H180V242ZM194.763 242H204.605V240H194.763V242ZM214.447 242H224.289V240H214.447V242ZM234.132 242H243.974V240H234.132V242ZM253.816 242H263.658V240H253.816V242ZM273.5 242H283.342V240H273.5V242ZM293.184 242H303.026V240H293.184V242ZM312.868 242H322.711V240H312.868V242ZM332.553 242H342.395V240H332.553V242ZM352.237 242H362.079V240H352.237V242ZM371.921 242H381.763V240H371.921V242ZM391.605 242H401.447V240H391.605V242ZM411.289 242H421.132V240H411.289V242ZM430.974 242H440.816V240H430.974V242ZM450.658 242H460.5V240H450.658V242ZM470.342 242H480.184V240H470.342V242ZM490.026 242H499.868V240H490.026V242ZM509.71 242H519.553V240H509.71V242ZM529.395 242H539.237V240H529.395V242ZM549.079 242H554V240H549.079V242Z" fill="url(#paint0_linear_424_3802)"/>
<path d="M358.267 450.319C357.891 450.724 357.915 451.357 358.319 451.733C358.724 452.109 359.357 452.085 359.733 451.681L358.267 450.319ZM363.233 447.913C363.609 447.508 363.585 446.875 363.181 446.499C362.776 446.124 362.143 446.147 361.767 446.552L363.233 447.913ZM368.767 439.016C368.391 439.421 368.415 440.053 368.819 440.429C369.224 440.805 369.857 440.782 370.233 440.377L368.767 439.016ZM377.233 432.841C377.609 432.437 377.585 431.804 377.181 431.428C376.776 431.052 376.143 431.076 375.767 431.48L377.233 432.841ZM382.767 423.944C382.391 424.349 382.415 424.982 382.819 425.358C383.224 425.734 383.857 425.71 384.233 425.306L382.767 423.944ZM391.233 417.77C391.609 417.365 391.585 416.732 391.181 416.357C390.776 415.981 390.143 416.004 389.767 416.409L391.233 417.77ZM396.767 408.873C396.391 409.278 396.415 409.91 396.819 410.286C397.224 410.662 397.857 410.639 398.233 410.234L396.767 408.873ZM405.233 402.698C405.609 402.294 405.585 401.661 405.181 401.285C404.776 400.909 404.143 400.933 403.767 401.337L405.233 402.698ZM410.767 393.802C410.391 394.206 410.415 394.839 410.819 395.215C411.224 395.591 411.857 395.567 412.233 395.163L410.767 393.802ZM419.233 387.627C419.609 387.222 419.585 386.59 419.181 386.214C418.776 385.838 418.143 385.861 417.767 386.266L419.233 387.627ZM424.767 378.73C424.391 379.135 424.415 379.768 424.819 380.143C425.224 380.519 425.857 380.496 426.233 380.091L424.767 378.73ZM433.233 372.556C433.609 372.151 433.585 371.518 433.181 371.142C432.776 370.766 432.143 370.79 431.767 371.194L433.233 372.556ZM438.767 363.659C438.391 364.063 438.415 364.696 438.819 365.072C439.224 365.448 439.857 365.425 440.233 365.02L438.767 363.659ZM447.233 357.484C447.609 357.08 447.585 356.447 447.181 356.071C446.776 355.695 446.143 355.718 445.767 356.123L447.233 357.484ZM452.767 348.587C452.391 348.992 452.415 349.625 452.819 350.001C453.224 350.376 453.857 350.353 454.233 349.948L452.767 348.587ZM461.233 342.413C461.609 342.008 461.585 341.375 461.181 340.999C460.776 340.624 460.143 340.647 459.767 341.052L461.233 342.413ZM466.767 333.516C466.391 333.921 466.415 334.553 466.819 334.929C467.224 335.305 467.857 335.282 468.233 334.877L466.767 333.516ZM475.233 327.341C475.609 326.937 475.585 326.304 475.181 325.928C474.776 325.552 474.143 325.576 473.767 325.98L475.233 327.341ZM480.767 318.444C480.391 318.849 480.415 319.482 480.819 319.858C481.224 320.234 481.857 320.21 482.233 319.806L480.767 318.444ZM489.233 312.27C489.609 311.865 489.585 311.233 489.181 310.857C488.776 310.481 488.143 310.504 487.767 310.909L489.233 312.27ZM494.767 303.373C494.391 303.778 494.415 304.41 494.819 304.786C495.224 305.162 495.857 305.139 496.233 304.734L494.767 303.373ZM503.233 297.198C503.609 296.794 503.585 296.161 503.181 295.785C502.776 295.409 502.143 295.433 501.767 295.837L503.233 297.198ZM508.767 288.302C508.391 288.706 508.415 289.339 508.819 289.715C509.224 290.091 509.857 290.067 510.233 289.663L508.767 288.302ZM517.233 282.127C517.609 281.722 517.585 281.09 517.181 280.714C516.776 280.338 516.143 280.361 515.767 280.766L517.233 282.127ZM522.767 273.23C522.391 273.635 522.415 274.268 522.819 274.643C523.224 275.019 523.857 274.996 524.233 274.591L522.767 273.23ZM531.233 267.056C531.609 266.651 531.585 266.018 531.181 265.642C530.776 265.266 530.143 265.29 529.767 265.694L531.233 267.056ZM536.767 258.159C536.391 258.563 536.415 259.196 536.819 259.572C537.224 259.948 537.857 259.925 538.233 259.52L536.767 258.159ZM545.233 251.984C545.609 251.58 545.585 250.947 545.181 250.571C544.776 250.195 544.143 250.218 543.767 250.623L545.233 251.984ZM550.767 243.087C550.391 243.492 550.415 244.125 550.819 244.501C551.224 244.876 551.857 244.853 552.233 244.448L550.767 243.087ZM359.733 451.681L363.233 447.913L361.767 446.552L358.267 450.319L359.733 451.681ZM370.233 440.377L377.233 432.841L375.767 431.48L368.767 439.016L370.233 440.377ZM384.233 425.306L391.233 417.77L389.767 416.409L382.767 423.944L384.233 425.306ZM398.233 410.234L405.233 402.698L403.767 401.337L396.767 408.873L398.233 410.234ZM412.233 395.163L419.233 387.627L417.767 386.266L410.767 393.802L412.233 395.163ZM426.233 380.091L433.233 372.556L431.767 371.194L424.767 378.73L426.233 380.091ZM440.233 365.02L447.233 357.484L445.767 356.123L438.767 363.659L440.233 365.02ZM454.233 349.948L461.233 342.413L459.767 341.052L452.767 348.587L454.233 349.948ZM468.233 334.877L475.233 327.341L473.767 325.98L466.767 333.516L468.233 334.877ZM482.233 319.806L489.233 312.27L487.767 310.909L480.767 318.444L482.233 319.806ZM496.233 304.734L503.233 297.198L501.767 295.837L494.767 303.373L496.233 304.734ZM510.233 289.663L517.233 282.127L515.767 280.766L508.767 288.302L510.233 289.663ZM524.233 274.591L531.233 267.056L529.767 265.694L522.767 273.23L524.233 274.591ZM538.233 259.52L545.233 251.984L543.767 250.623L536.767 258.159L538.233 259.52ZM552.233 244.448L555.733 240.681L554.267 239.319L550.767 243.087L552.233 244.448Z" fill="url(#paint1_linear_424_3802)"/>
<path d="M411.857 1.48497C411.573 1.01157 410.958 0.858384 410.485 1.14283C410.012 1.42727 409.858 2.04162 410.143 2.51503L411.857 1.48497ZM412.696 6.76503C412.981 7.23843 413.595 7.39162 414.069 7.10717C414.542 6.82273 414.695 6.20838 414.411 5.73497L412.696 6.76503ZM419.518 14.235C419.233 13.7616 418.619 13.6084 418.146 13.8928C417.672 14.1773 417.519 14.7916 417.804 15.265L419.518 14.235ZM422.911 23.765C423.195 24.2384 423.809 24.3916 424.283 24.1072C424.756 23.8227 424.909 23.2084 424.625 22.735L422.911 23.765ZM429.732 31.235C429.448 30.7616 428.833 30.6084 428.36 30.8928C427.887 31.1773 427.733 31.7916 428.018 32.265L429.732 31.235ZM433.125 40.765C433.409 41.2384 434.024 41.3916 434.497 41.1072C434.971 40.8227 435.124 40.2084 434.839 39.735L433.125 40.765ZM439.946 48.235C439.662 47.7616 439.048 47.6084 438.574 47.8928C438.101 48.1773 437.948 48.7916 438.232 49.265L439.946 48.235ZM443.339 57.765C443.624 58.2384 444.238 58.3916 444.711 58.1072C445.185 57.8227 445.338 57.2084 445.054 56.735L443.339 57.765ZM450.161 65.235C449.876 64.7616 449.262 64.6084 448.789 64.8928C448.315 65.1773 448.162 65.7916 448.446 66.265L450.161 65.235ZM453.554 74.765C453.838 75.2384 454.452 75.3916 454.926 75.1072C455.399 74.8227 455.552 74.2084 455.268 73.735L453.554 74.765ZM460.375 82.235C460.091 81.7616 459.476 81.6084 459.003 81.8928C458.529 82.1773 458.376 82.7916 458.661 83.265L460.375 82.235ZM463.768 91.765C464.052 92.2384 464.667 92.3916 465.14 92.1072C465.613 91.8227 465.767 91.2084 465.482 90.735L463.768 91.765ZM470.589 99.235C470.305 98.7616 469.691 98.6084 469.217 98.8928C468.744 99.1773 468.591 99.7916 468.875 100.265L470.589 99.235ZM473.982 108.765C474.267 109.238 474.881 109.392 475.354 109.107C475.828 108.823 475.981 108.208 475.696 107.735L473.982 108.765ZM480.804 116.235C480.519 115.762 479.905 115.608 479.431 115.893C478.958 116.177 478.805 116.792 479.089 117.265L480.804 116.235ZM484.196 125.765C484.481 126.238 485.095 126.392 485.569 126.107C486.042 125.823 486.195 125.208 485.911 124.735L484.196 125.765ZM491.018 133.235C490.733 132.762 490.119 132.608 489.646 132.893C489.172 133.177 489.019 133.792 489.304 134.265L491.018 133.235ZM494.411 142.765C494.695 143.238 495.309 143.392 495.783 143.107C496.256 142.823 496.409 142.208 496.125 141.735L494.411 142.765ZM501.232 150.235C500.948 149.762 500.333 149.608 499.86 149.893C499.387 150.177 499.233 150.792 499.518 151.265L501.232 150.235ZM504.625 159.765C504.909 160.238 505.524 160.392 505.997 160.107C506.471 159.823 506.624 159.208 506.339 158.735L504.625 159.765ZM511.446 167.235C511.162 166.762 510.548 166.608 510.074 166.893C509.601 167.177 509.448 167.792 509.732 168.265L511.446 167.235ZM514.839 176.765C515.124 177.238 515.738 177.392 516.211 177.107C516.685 176.823 516.838 176.208 516.554 175.735L514.839 176.765ZM521.661 184.235C521.376 183.762 520.762 183.608 520.289 183.893C519.815 184.177 519.662 184.792 519.946 185.265L521.661 184.235ZM525.054 193.765C525.338 194.238 525.952 194.392 526.426 194.107C526.899 193.823 527.052 193.208 526.768 192.735L525.054 193.765ZM531.875 201.235C531.591 200.762 530.976 200.608 530.503 200.893C530.029 201.177 529.876 201.792 530.161 202.265L531.875 201.235ZM535.268 210.765C535.552 211.238 536.167 211.392 536.64 211.107C537.113 210.823 537.267 210.208 536.982 209.735L535.268 210.765ZM542.089 218.235C541.805 217.762 541.191 217.608 540.717 217.893C540.244 218.177 540.09 218.792 540.375 219.265L542.089 218.235ZM545.482 227.765C545.767 228.238 546.381 228.392 546.854 228.107C547.328 227.823 547.481 227.208 547.196 226.735L545.482 227.765ZM552.304 235.235C552.019 234.762 551.405 234.608 550.931 234.893C550.458 235.177 550.305 235.792 550.589 236.265L552.304 235.235ZM410.143 2.51503L412.696 6.76503L414.411 5.73497L411.857 1.48497L410.143 2.51503ZM417.804 15.265L422.911 23.765L424.625 22.735L419.518 14.235L417.804 15.265ZM428.018 32.265L433.125 40.765L434.839 39.735L429.732 31.235L428.018 32.265ZM438.232 49.265L443.339 57.765L445.054 56.735L439.946 48.235L438.232 49.265ZM448.446 66.265L453.554 74.765L455.268 73.735L450.161 65.235L448.446 66.265ZM458.661 83.265L463.768 91.765L465.482 90.735L460.375 82.235L458.661 83.265ZM468.875 100.265L473.982 108.765L475.696 107.735L470.589 99.235L468.875 100.265ZM479.089 117.265L484.196 125.765L485.911 124.735L480.804 116.235L479.089 117.265ZM489.304 134.265L494.411 142.765L496.125 141.735L491.018 133.235L489.304 134.265ZM499.518 151.265L504.625 159.765L506.339 158.735L501.232 150.235L499.518 151.265ZM509.732 168.265L514.839 176.765L516.554 175.735L511.446 167.235L509.732 168.265ZM519.946 185.265L525.054 193.765L526.768 192.735L521.661 184.235L519.946 185.265ZM530.161 202.265L535.268 210.765L536.982 209.735L531.875 201.235L530.161 202.265ZM540.375 219.265L545.482 227.765L547.196 226.735L542.089 218.235L540.375 219.265ZM550.589 236.265L553.143 240.515L554.857 239.485L552.304 235.235L550.589 236.265Z" fill="url(#paint2_linear_424_3802)"/>
<path d="M411.922 580.388C411.708 580.897 411.121 581.136 410.612 580.922C410.103 580.708 409.864 580.121 410.078 579.612L411.922 580.388ZM412.064 574.89C412.278 574.381 412.865 574.142 413.374 574.356C413.883 574.57 414.122 575.156 413.908 575.665L412.064 574.89ZM417.88 566.221C417.666 566.73 417.08 566.969 416.571 566.755C416.062 566.541 415.822 565.955 416.037 565.446L417.88 566.221ZM420.009 556.001C420.223 555.492 420.809 555.253 421.318 555.467C421.827 555.681 422.066 556.267 421.852 556.777L420.009 556.001ZM425.825 547.332C425.61 547.841 425.024 548.08 424.515 547.866C424.006 547.652 423.767 547.066 423.981 546.557L425.825 547.332ZM427.953 537.112C428.167 536.603 428.754 536.364 429.263 536.578C429.772 536.792 430.011 537.379 429.797 537.888L427.953 537.112ZM433.769 528.443C433.555 528.952 432.969 529.191 432.46 528.977C431.95 528.763 431.711 528.177 431.925 527.668L433.769 528.443ZM435.898 518.223C436.112 517.714 436.698 517.475 437.207 517.689C437.716 517.903 437.955 518.49 437.741 518.999L435.898 518.223ZM441.713 509.554C441.499 510.063 440.913 510.303 440.404 510.088C439.895 509.874 439.656 509.288 439.87 508.779L441.713 509.554ZM443.842 499.335C444.056 498.825 444.642 498.586 445.152 498.8C445.661 499.015 445.9 499.601 445.686 500.11L443.842 499.335ZM449.658 490.665C449.444 491.175 448.858 491.414 448.348 491.2C447.839 490.985 447.6 490.399 447.814 489.89L449.658 490.665ZM451.787 480.446C452.001 479.937 452.587 479.697 453.096 479.912C453.605 480.126 453.844 480.712 453.63 481.221L451.787 480.446ZM457.602 471.777C457.388 472.286 456.802 472.525 456.293 472.311C455.784 472.097 455.545 471.51 455.759 471.001L457.602 471.777ZM459.731 461.557C459.945 461.048 460.531 460.809 461.04 461.023C461.55 461.237 461.789 461.823 461.575 462.332L459.731 461.557ZM465.547 452.888C465.333 453.397 464.746 453.636 464.237 453.422C463.728 453.208 463.489 452.621 463.703 452.112L465.547 452.888ZM467.675 442.668C467.89 442.159 468.476 441.92 468.985 442.134C469.494 442.348 469.733 442.934 469.519 443.443L467.675 442.668ZM473.491 433.999C473.277 434.508 472.691 434.747 472.182 434.533C471.673 434.319 471.434 433.733 471.648 433.223L473.491 433.999ZM475.62 423.779C475.834 423.27 476.42 423.031 476.929 423.245C477.438 423.459 477.678 424.045 477.463 424.554L475.62 423.779ZM481.436 415.11C481.222 415.619 480.635 415.858 480.126 415.644C479.617 415.43 479.378 414.844 479.592 414.335L481.436 415.11ZM483.564 404.89C483.778 404.381 484.365 404.142 484.874 404.356C485.383 404.57 485.622 405.156 485.408 405.665L483.564 404.89ZM489.38 396.221C489.166 396.73 488.58 396.969 488.071 396.755C487.562 396.541 487.322 395.955 487.537 395.446L489.38 396.221ZM491.509 386.001C491.723 385.492 492.309 385.253 492.818 385.467C493.327 385.681 493.566 386.267 493.352 386.777L491.509 386.001ZM497.325 377.332C497.11 377.841 496.524 378.08 496.015 377.866C495.506 377.652 495.267 377.066 495.481 376.557L497.325 377.332ZM499.453 367.112C499.667 366.603 500.254 366.364 500.763 366.578C501.272 366.792 501.511 367.379 501.297 367.888L499.453 367.112ZM505.269 358.443C505.055 358.952 504.469 359.191 503.96 358.977C503.45 358.763 503.211 358.177 503.425 357.668L505.269 358.443ZM507.398 348.223C507.612 347.714 508.198 347.475 508.707 347.689C509.216 347.903 509.455 348.49 509.241 348.999L507.398 348.223ZM513.213 339.554C512.999 340.063 512.413 340.303 511.904 340.088C511.395 339.874 511.156 339.288 511.37 338.779L513.213 339.554ZM515.342 329.334C515.556 328.825 516.143 328.586 516.652 328.8C517.161 329.015 517.4 329.601 517.186 330.11L515.342 329.334ZM521.158 320.665C520.944 321.174 520.358 321.414 519.848 321.2C519.339 320.985 519.1 320.399 519.314 319.89L521.158 320.665ZM523.287 310.446C523.501 309.936 524.087 309.697 524.596 309.911C525.105 310.126 525.344 310.712 525.13 311.221L523.287 310.446ZM529.102 301.777C528.888 302.286 528.302 302.525 527.793 302.311C527.284 302.096 527.045 301.51 527.259 301.001L529.102 301.777ZM531.231 291.557C531.445 291.048 532.031 290.808 532.54 291.023C533.05 291.237 533.289 291.823 533.075 292.332L531.231 291.557ZM537.047 282.888C536.833 283.397 536.246 283.636 535.737 283.422C535.228 283.208 534.989 282.621 535.203 282.112L537.047 282.888ZM539.175 272.668C539.39 272.159 539.976 271.92 540.485 272.134C540.994 272.348 541.233 272.934 541.019 273.443L539.175 272.668ZM544.991 263.999C544.777 264.508 544.191 264.747 543.682 264.533C543.173 264.319 542.934 263.732 543.148 263.223L544.991 263.999ZM547.12 253.779C547.334 253.27 547.92 253.031 548.429 253.245C548.938 253.459 549.178 254.045 548.963 254.554L547.12 253.779ZM552.936 245.11C552.722 245.619 552.135 245.858 551.626 245.644C551.117 245.43 550.878 244.844 551.092 244.334L552.936 245.11ZM410.078 579.612L412.064 574.89L413.908 575.665L411.922 580.388L410.078 579.612ZM416.037 565.446L420.009 556.001L421.852 556.777L417.88 566.221L416.037 565.446ZM423.981 546.557L427.953 537.112L429.797 537.888L425.825 547.332L423.981 546.557ZM431.925 527.668L435.898 518.223L437.741 518.999L433.769 528.443L431.925 527.668ZM439.87 508.779L443.842 499.335L445.686 500.11L441.713 509.554L439.87 508.779ZM447.814 489.89L451.787 480.446L453.63 481.221L449.658 490.665L447.814 489.89ZM455.759 471.001L459.731 461.557L461.575 462.332L457.602 471.777L455.759 471.001ZM463.703 452.112L467.675 442.668L469.519 443.443L465.547 452.888L463.703 452.112ZM471.648 433.223L475.62 423.779L477.463 424.554L473.491 433.999L471.648 433.223ZM479.592 414.335L483.564 404.89L485.408 405.665L481.436 415.11L479.592 414.335ZM487.537 395.446L491.509 386.001L493.352 386.777L489.38 396.221L487.537 395.446ZM495.481 376.557L499.453 367.112L501.297 367.888L497.325 377.332L495.481 376.557ZM503.425 357.668L507.398 348.223L509.241 348.999L505.269 358.443L503.425 357.668ZM511.37 338.779L515.342 329.334L517.186 330.11L513.213 339.554L511.37 338.779ZM519.314 319.89L523.287 310.446L525.13 311.221L521.158 320.665L519.314 319.89ZM527.259 301.001L531.231 291.557L533.075 292.332L529.102 301.777L527.259 301.001ZM535.203 282.112L539.175 272.668L541.019 273.443L537.047 282.888L535.203 282.112ZM543.148 263.223L547.12 253.779L548.963 254.554L544.991 263.999L543.148 263.223ZM551.092 244.334L553.078 239.612L554.922 240.388L552.936 245.11L551.092 244.334Z" fill="url(#paint3_linear_424_3802)"/>
<path d="M791.195 240.406C790.867 240.85 790.962 241.477 791.406 241.805C791.851 242.133 792.477 242.038 792.805 241.594L791.195 240.406ZM795.711 237.656C796.039 237.212 795.944 236.586 795.5 236.258C795.056 235.93 794.43 236.024 794.102 236.469L795.711 237.656ZM799.914 228.594C799.586 229.038 799.681 229.664 800.125 229.992C800.569 230.32 801.195 230.226 801.523 229.781L799.914 228.594ZM807.336 221.906C807.664 221.462 807.569 220.836 807.125 220.508C806.681 220.18 806.055 220.274 805.727 220.719L807.336 221.906ZM811.539 212.844C811.211 213.288 811.306 213.914 811.75 214.242C812.194 214.57 812.82 214.476 813.148 214.031L811.539 212.844ZM818.961 206.156C819.289 205.712 819.194 205.086 818.75 204.758C818.306 204.43 817.68 204.524 817.352 204.969L818.961 206.156ZM823.164 197.094C822.836 197.538 822.931 198.164 823.375 198.492C823.819 198.82 824.445 198.726 824.773 198.281L823.164 197.094ZM830.586 190.406C830.914 189.962 830.819 189.336 830.375 189.008C829.931 188.68 829.305 188.774 828.977 189.219L830.586 190.406ZM834.789 181.344C834.461 181.788 834.556 182.414 835 182.742C835.444 183.07 836.07 182.976 836.398 182.531L834.789 181.344ZM842.211 174.656C842.539 174.212 842.444 173.586 842 173.258C841.556 172.93 840.93 173.024 840.602 173.469L842.211 174.656ZM846.414 165.594C846.086 166.038 846.181 166.664 846.625 166.992C847.069 167.32 847.695 167.226 848.023 166.781L846.414 165.594ZM853.836 158.906C854.164 158.462 854.069 157.836 853.625 157.508C853.181 157.18 852.555 157.274 852.227 157.719L853.836 158.906ZM858.039 149.844C857.711 150.288 857.806 150.914 858.25 151.242C858.694 151.57 859.32 151.476 859.648 151.031L858.039 149.844ZM865.461 143.156C865.789 142.712 865.694 142.086 865.25 141.758C864.806 141.43 864.18 141.524 863.852 141.969L865.461 143.156ZM869.664 134.094C869.336 134.538 869.431 135.164 869.875 135.492C870.319 135.82 870.945 135.726 871.273 135.281L869.664 134.094ZM877.086 127.406C877.414 126.962 877.319 126.336 876.875 126.008C876.431 125.68 875.805 125.774 875.477 126.219L877.086 127.406ZM881.289 118.344C880.961 118.788 881.056 119.414 881.5 119.742C881.944 120.07 882.57 119.976 882.898 119.531L881.289 118.344ZM792.805 241.594L795.711 237.656L794.102 236.469L791.195 240.406L792.805 241.594ZM801.523 229.781L807.336 221.906L805.727 220.719L799.914 228.594L801.523 229.781ZM813.148 214.031L818.961 206.156L817.352 204.969L811.539 212.844L813.148 214.031ZM824.773 198.281L830.586 190.406L828.977 189.219L823.164 197.094L824.773 198.281ZM836.398 182.531L842.211 174.656L840.602 173.469L834.789 181.344L836.398 182.531ZM848.023 166.781L853.836 158.906L852.227 157.719L846.414 165.594L848.023 166.781ZM859.648 151.031L865.461 143.156L863.852 141.969L858.039 149.844L859.648 151.031ZM871.273 135.281L877.086 127.406L875.477 126.219L869.664 134.094L871.273 135.281ZM882.898 119.531L885.805 115.594L884.195 114.406L881.289 118.344L882.898 119.531Z" fill="url(#paint4_linear_424_3802)"/>
<path d="M792.603 240.202C792.162 239.869 791.535 239.957 791.202 240.397C790.869 240.838 790.957 241.465 791.397 241.798L792.603 240.202ZM795.389 244.814C795.83 245.146 796.457 245.059 796.79 244.618C797.123 244.178 797.036 243.551 796.595 243.218L795.389 244.814ZM804.579 249.249C804.139 248.916 803.512 249.003 803.179 249.444C802.846 249.885 802.933 250.512 803.374 250.845L804.579 249.249ZM811.358 256.876C811.799 257.209 812.426 257.122 812.759 256.681C813.092 256.24 813.004 255.613 812.564 255.28L811.358 256.876ZM820.548 261.311C820.107 260.979 819.48 261.066 819.147 261.507C818.814 261.947 818.902 262.574 819.343 262.907L820.548 261.311ZM827.327 268.939C827.768 269.271 828.395 269.184 828.728 268.743C829.061 268.303 828.973 267.676 828.532 267.343L827.327 268.939ZM836.517 273.374C836.076 273.041 835.449 273.128 835.116 273.569C834.783 274.01 834.871 274.637 835.311 274.97L836.517 273.374ZM843.296 281.001C843.736 281.334 844.363 281.247 844.696 280.806C845.029 280.365 844.942 279.738 844.501 279.405L843.296 281.001ZM852.486 285.436C852.045 285.104 851.418 285.191 851.085 285.632C850.752 286.072 850.839 286.699 851.28 287.032L852.486 285.436ZM859.264 293.064C859.705 293.396 860.332 293.309 860.665 292.868C860.998 292.428 860.911 291.801 860.47 291.468L859.264 293.064ZM868.454 297.499C868.014 297.166 867.387 297.253 867.054 297.694C866.721 298.135 866.808 298.762 867.249 299.095L868.454 297.499ZM875.233 305.126C875.674 305.459 876.301 305.372 876.634 304.931C876.967 304.49 876.879 303.863 876.439 303.53L875.233 305.126ZM884.423 309.561C883.982 309.229 883.355 309.316 883.022 309.757C882.689 310.197 882.777 310.824 883.218 311.157L884.423 309.561ZM891.202 317.189C891.643 317.521 892.27 317.434 892.603 316.993C892.936 316.553 892.848 315.926 892.407 315.593L891.202 317.189ZM900.392 321.624C899.951 321.291 899.324 321.378 898.991 321.819C898.658 322.26 898.746 322.887 899.186 323.22L900.392 321.624ZM907.171 329.251C907.611 329.584 908.238 329.497 908.571 329.056C908.904 328.615 908.817 327.988 908.376 327.655L907.171 329.251ZM916.361 333.686C915.92 333.354 915.293 333.441 914.96 333.882C914.627 334.322 914.714 334.949 915.155 335.282L916.361 333.686ZM923.139 341.314C923.58 341.646 924.207 341.559 924.54 341.118C924.873 340.678 924.786 340.051 924.345 339.718L923.139 341.314ZM932.329 345.749C931.889 345.416 931.262 345.503 930.929 345.944C930.596 346.385 930.683 347.012 931.124 347.345L932.329 345.749ZM939.108 353.376C939.549 353.709 940.176 353.622 940.509 353.181C940.842 352.74 940.754 352.113 940.314 351.78L939.108 353.376ZM948.298 357.811C947.857 357.479 947.23 357.566 946.897 358.007C946.565 358.447 946.652 359.074 947.093 359.407L948.298 357.811ZM955.077 365.439C955.518 365.771 956.145 365.684 956.478 365.243C956.811 364.803 956.723 364.176 956.282 363.843L955.077 365.439ZM964.267 369.874C963.826 369.541 963.199 369.628 962.866 370.069C962.533 370.51 962.621 371.137 963.061 371.47L964.267 369.874ZM971.046 377.501C971.486 377.834 972.114 377.747 972.446 377.306C972.779 376.865 972.692 376.238 972.251 375.905L971.046 377.501ZM980.236 381.936C979.795 381.604 979.168 381.691 978.835 382.132C978.502 382.572 978.589 383.199 979.03 383.532L980.236 381.936ZM987.015 389.564C987.455 389.896 988.082 389.809 988.415 389.368C988.748 388.928 988.661 388.301 988.22 387.968L987.015 389.564ZM996.204 393.999C995.764 393.666 995.137 393.753 994.804 394.194C994.471 394.635 994.558 395.262 994.999 395.595L996.204 393.999ZM1002.98 401.626C1003.42 401.959 1004.05 401.872 1004.38 401.431C1004.72 400.99 1004.63 400.363 1004.19 400.03L1002.98 401.626ZM1012.17 406.061C1011.73 405.729 1011.11 405.816 1010.77 406.257C1010.44 406.697 1010.53 407.324 1010.97 407.657L1012.17 406.061ZM1018.95 413.689C1019.39 414.022 1020.02 413.934 1020.35 413.493C1020.69 413.053 1020.6 412.426 1020.16 412.093L1018.95 413.689ZM1028.14 418.124C1027.7 417.791 1027.07 417.879 1026.74 418.319C1026.41 418.76 1026.5 419.387 1026.94 419.72L1028.14 418.124ZM1034.92 425.751C1035.36 426.084 1035.99 425.997 1036.32 425.556C1036.65 425.115 1036.57 424.488 1036.13 424.155L1034.92 425.751ZM1044.11 430.187C1043.67 429.854 1043.04 429.941 1042.71 430.382C1042.38 430.822 1042.46 431.45 1042.91 431.782L1044.11 430.187ZM791.397 241.798L795.389 244.814L796.595 243.218L792.603 240.202L791.397 241.798ZM803.374 250.845L811.358 256.876L812.564 255.28L804.579 249.249L803.374 250.845ZM819.343 262.907L827.327 268.939L828.532 267.343L820.548 261.311L819.343 262.907ZM835.311 274.97L843.296 281.001L844.501 279.405L836.517 273.374L835.311 274.97ZM851.28 287.032L859.264 293.064L860.47 291.468L852.486 285.436L851.28 287.032ZM867.249 299.095L875.233 305.126L876.439 303.53L868.454 297.499L867.249 299.095ZM883.218 311.157L891.202 317.189L892.407 315.593L884.423 309.561L883.218 311.157ZM899.186 323.22L907.171 329.251L908.376 327.655L900.392 321.624L899.186 323.22ZM915.155 335.282L923.139 341.314L924.345 339.718L916.361 333.686L915.155 335.282ZM931.124 347.345L939.108 353.376L940.314 351.78L932.329 345.749L931.124 347.345ZM947.093 359.407L955.077 365.439L956.282 363.843L948.298 357.811L947.093 359.407ZM963.061 371.47L971.046 377.501L972.251 375.905L964.267 369.874L963.061 371.47ZM979.03 383.532L987.015 389.564L988.22 387.968L980.236 381.936L979.03 383.532ZM994.999 395.595L1002.98 401.626L1004.19 400.03L996.204 393.999L994.999 395.595ZM1010.97 407.657L1018.95 413.689L1020.16 412.093L1012.17 406.061L1010.97 407.657ZM1026.94 419.72L1034.92 425.751L1036.13 424.155L1028.14 418.124L1026.94 419.72ZM1042.91 431.782L1046.9 434.798L1048.1 433.202L1044.11 430.187L1042.91 431.782Z" fill="url(#paint5_linear_424_3802)"/>
<path d="M788 240C787.448 240 787 240.448 787 241C787 241.552 787.448 242 788 242V240ZM792.91 242C793.462 242 793.91 241.552 793.91 241C793.91 240.448 793.462 240 792.91 240V242ZM802.73 240C802.178 240 801.73 240.448 801.73 241C801.73 241.552 802.178 242 802.73 242V240ZM812.55 242C813.102 242 813.55 241.552 813.55 241C813.55 240.448 813.102 240 812.55 240V242ZM822.37 240C821.818 240 821.37 240.448 821.37 241C821.37 241.552 821.818 242 822.37 242V240ZM832.19 242C832.742 242 833.19 241.552 833.19 241C833.19 240.448 832.742 240 832.19 240V242ZM842.01 240C841.458 240 841.01 240.448 841.01 241C841.01 241.552 841.458 242 842.01 242V240ZM851.83 242C852.382 242 852.83 241.552 852.83 241C852.83 240.448 852.382 240 851.83 240V242ZM861.65 240C861.098 240 860.65 240.448 860.65 241C860.65 241.552 861.098 242 861.65 242V240ZM871.47 242C872.022 242 872.47 241.552 872.47 241C872.47 240.448 872.022 240 871.47 240V242ZM881.29 240C880.738 240 880.29 240.448 880.29 241C880.29 241.552 880.738 242 881.29 242V240ZM891.11 242C891.662 242 892.11 241.552 892.11 241C892.11 240.448 891.662 240 891.11 240V242ZM900.93 240C900.378 240 899.93 240.448 899.93 241C899.93 241.552 900.378 242 900.93 242V240ZM910.75 242C911.302 242 911.75 241.552 911.75 241C911.75 240.448 911.302 240 910.75 240V242ZM920.57 240C920.018 240 919.57 240.448 919.57 241C919.57 241.552 920.018 242 920.57 242V240ZM930.39 242C930.942 242 931.39 241.552 931.39 241C931.39 240.448 930.942 240 930.39 240V242ZM940.21 240C939.658 240 939.21 240.448 939.21 241C939.21 241.552 939.658 242 940.21 242V240ZM950.03 242C950.582 242 951.03 241.552 951.03 241C951.03 240.448 950.582 240 950.03 240V242ZM959.85 240C959.298 240 958.85 240.448 958.85 241C958.85 241.552 959.298 242 959.85 242V240ZM969.67 242C970.222 242 970.67 241.552 970.67 241C970.67 240.448 970.222 240 969.67 240V242ZM979.49 240C978.938 240 978.49 240.448 978.49 241C978.49 241.552 978.938 242 979.49 242V240ZM989.31 242C989.862 242 990.31 241.552 990.31 241C990.31 240.448 989.862 240 989.31 240V242ZM999.13 240C998.578 240 998.13 240.448 998.13 241C998.13 241.552 998.578 242 999.13 242V240ZM1008.95 242C1009.5 242 1009.95 241.552 1009.95 241C1009.95 240.448 1009.5 240 1008.95 240V242ZM1018.77 240C1018.22 240 1017.77 240.448 1017.77 241C1017.77 241.552 1018.22 242 1018.77 242V240ZM1028.59 242C1029.14 242 1029.59 241.552 1029.59 241C1029.59 240.448 1029.14 240 1028.59 240V242ZM1038.41 240C1037.86 240 1037.41 240.448 1037.41 241C1037.41 241.552 1037.86 242 1038.41 242V240ZM1048.23 242C1048.78 242 1049.23 241.552 1049.23 241C1049.23 240.448 1048.78 240 1048.23 240V242ZM1058.05 240C1057.5 240 1057.05 240.448 1057.05 241C1057.05 241.552 1057.5 242 1058.05 242V240ZM1067.87 242C1068.42 242 1068.87 241.552 1068.87 241C1068.87 240.448 1068.42 240 1067.87 240V242ZM1077.69 240C1077.14 240 1076.69 240.448 1076.69 241C1076.69 241.552 1077.14 242 1077.69 242V240ZM1087.51 242C1088.06 242 1088.51 241.552 1088.51 241C1088.51 240.448 1088.06 240 1087.51 240V242ZM1097.33 240C1096.78 240 1096.33 240.448 1096.33 241C1096.33 241.552 1096.78 242 1097.33 242V240ZM1107.15 242C1107.7 242 1108.15 241.552 1108.15 241C1108.15 240.448 1107.7 240 1107.15 240V242ZM1116.97 240C1116.42 240 1115.97 240.448 1115.97 241C1115.97 241.552 1116.42 242 1116.97 242V240ZM1126.79 242C1127.34 242 1127.79 241.552 1127.79 241C1127.79 240.448 1127.34 240 1126.79 240V242ZM1136.61 240C1136.06 240 1135.61 240.448 1135.61 241C1135.61 241.552 1136.06 242 1136.61 242V240ZM1146.43 242C1146.98 242 1147.43 241.552 1147.43 241C1147.43 240.448 1146.98 240 1146.43 240V242ZM1156.25 240C1155.7 240 1155.25 240.448 1155.25 241C1155.25 241.552 1155.7 242 1156.25 242V240ZM1166.07 242C1166.62 242 1167.07 241.552 1167.07 241C1167.07 240.448 1166.62 240 1166.07 240V242ZM1175.89 240C1175.34 240 1174.89 240.448 1174.89 241C1174.89 241.552 1175.34 242 1175.89 242V240ZM1185.71 242C1186.26 242 1186.71 241.552 1186.71 241C1186.71 240.448 1186.26 240 1185.71 240V242ZM1195.53 240C1194.98 240 1194.53 240.448 1194.53 241C1194.53 241.552 1194.98 242 1195.53 242V240ZM1205.35 242C1205.9 242 1206.35 241.552 1206.35 241C1206.35 240.448 1205.9 240 1205.35 240V242ZM1215.17 240C1214.62 240 1214.17 240.448 1214.17 241C1214.17 241.552 1214.62 242 1215.17 242V240ZM1224.99 242C1225.54 242 1225.99 241.552 1225.99 241C1225.99 240.448 1225.54 240 1224.99 240V242ZM1234.81 240C1234.26 240 1233.81 240.448 1233.81 241C1233.81 241.552 1234.26 242 1234.81 242V240ZM1244.63 242C1245.18 242 1245.63 241.552 1245.63 241C1245.63 240.448 1245.18 240 1244.63 240V242ZM1254.45 240C1253.9 240 1253.45 240.448 1253.45 241C1253.45 241.552 1253.9 242 1254.45 242V240ZM1264.27 242C1264.82 242 1265.27 241.552 1265.27 241C1265.27 240.448 1264.82 240 1264.27 240V242ZM1274.09 240C1273.54 240 1273.09 240.448 1273.09 241C1273.09 241.552 1273.54 242 1274.09 242V240ZM788 242H792.91V240H788V242ZM802.73 242H812.55V240H802.73V242ZM822.37 242H832.19V240H822.37V242ZM842.01 242H851.83V240H842.01V242ZM861.65 242H871.47V240H861.65V242ZM881.29 242H891.11V240H881.29V242ZM900.93 242H910.75V240H900.93V242ZM920.57 242H930.39V240H920.57V242ZM940.21 242H950.03V240H940.21V242ZM959.85 242H969.67V240H959.85V242ZM979.49 242H989.31V240H979.49V242ZM999.13 242H1008.95V240H999.13V242ZM1018.77 242H1028.59V240H1018.77V242ZM1038.41 242H1048.23V240H1038.41V242ZM1058.05 242H1067.87V240H1058.05V242ZM1077.69 242H1087.51V240H1077.69V242ZM1097.33 242H1107.15V240H1097.33V242ZM1116.97 242H1126.79V240H1116.97V242ZM1136.61 242H1146.43V240H1136.61V242ZM1156.25 242H1166.07V240H1156.25V242ZM1175.89 242H1185.71V240H1175.89V242ZM1195.53 242H1205.35V240H1195.53V242ZM1215.17 242H1224.99V240H1215.17V242ZM1234.81 242H1244.63V240H1234.81V242ZM1254.45 242H1264.27V240H1254.45V242ZM1274.09 242H1279V240H1274.09V242Z" fill="url(#paint6_linear_424_3802)"/>
<circle cx="791" cy="240" r="4" fill="#96D300"/>
<rect x="885" y="38" width="251" height="150" rx="3" fill="white"/>
<path d="M901.596 72V58.263H906.84C909.519 58.263 911.153 59.631 911.153 61.892C911.153 63.469 910.469 64.533 909.101 65.103C910.621 65.597 911.4 66.699 911.4 68.333C911.4 70.613 909.747 72 907.03 72H901.596ZM906.726 59.916H903.458V64.324H906.84C908.379 64.324 909.253 63.488 909.253 62.063C909.253 60.695 908.341 59.916 906.726 59.916ZM906.992 65.939H903.458V70.347H906.992C908.588 70.347 909.481 69.53 909.481 68.105C909.481 66.737 908.569 65.939 906.992 65.939ZM920.229 62.709H921.996V72H920.4L920.21 70.594C919.678 71.563 918.443 72.228 917.075 72.228C914.909 72.228 913.693 70.765 913.693 68.485V62.709H915.479V67.896C915.479 69.891 916.334 70.651 917.702 70.651C919.336 70.651 920.229 69.606 920.229 67.611V62.709ZM930.287 62.633V64.267H929.489C927.798 64.267 926.753 65.293 926.753 67.079V72H924.967V62.728H926.639L926.753 64.134C927.133 63.165 928.064 62.519 929.337 62.519C929.66 62.519 929.926 62.557 930.287 62.633ZM936.017 72.228C933.281 72.228 931.4 70.252 931.4 67.364C931.4 64.457 933.243 62.443 935.941 62.443C938.582 62.443 940.311 64.267 940.311 67.022V67.687L933.129 67.706C933.262 69.663 934.288 70.746 936.055 70.746C937.442 70.746 938.354 70.176 938.658 69.112H940.33C939.874 71.107 938.316 72.228 936.017 72.228ZM935.941 63.944C934.383 63.944 933.395 64.875 933.167 66.509H938.525C938.525 64.97 937.518 63.944 935.941 63.944ZM945.31 72.228C943.315 72.228 942.137 71.107 942.137 69.416C942.137 67.706 943.41 66.642 945.595 66.471L948.521 66.243V65.977C948.521 64.419 947.59 63.868 946.336 63.868C944.835 63.868 943.98 64.533 943.98 65.654H942.422C942.422 63.716 944.018 62.443 946.412 62.443C948.711 62.443 950.269 63.659 950.269 66.167V72H948.749L948.559 70.499C948.084 71.563 946.811 72.228 945.31 72.228ZM945.823 70.841C947.514 70.841 948.54 69.739 948.54 67.991V67.497L946.165 67.687C944.588 67.839 943.942 68.447 943.942 69.359C943.942 70.347 944.664 70.841 945.823 70.841ZM959.545 62.709H961.312V72H959.716L959.526 70.594C958.994 71.563 957.759 72.228 956.391 72.228C954.225 72.228 953.009 70.765 953.009 68.485V62.709H954.795V67.896C954.795 69.891 955.65 70.651 957.018 70.651C958.652 70.651 959.545 69.606 959.545 67.611V62.709ZM969.364 61.968C969.364 59.612 971.264 58.016 974.095 58.016C976.717 58.016 978.408 59.479 978.56 61.854H976.679C976.584 60.486 975.615 59.688 974.076 59.688C972.347 59.688 971.226 60.562 971.226 61.911C971.226 63.013 971.853 63.678 973.145 63.982L975.406 64.514C977.648 65.027 978.788 66.243 978.788 68.181C978.788 70.651 976.869 72.228 973.943 72.228C971.15 72.228 969.288 70.765 969.174 68.409H971.074C971.112 69.72 972.214 70.556 973.943 70.556C975.767 70.556 976.926 69.701 976.926 68.333C976.926 67.25 976.337 66.566 975.026 66.262L972.765 65.749C970.523 65.236 969.364 63.944 969.364 61.968ZM980.596 67.364C980.596 64.457 982.439 62.443 985.156 62.443C987.493 62.443 989.127 63.773 989.45 65.844H987.664C987.36 64.666 986.41 64.039 985.213 64.039C983.522 64.039 982.363 65.331 982.363 67.345C982.363 69.34 983.446 70.632 985.137 70.632C986.41 70.632 987.36 69.967 987.683 68.865H989.469C989.108 70.879 987.379 72.228 985.137 72.228C982.401 72.228 980.596 70.29 980.596 67.364ZM991.125 67.345C991.125 64.476 993.177 62.462 995.97 62.462C998.744 62.462 1000.8 64.476 1000.8 67.345C1000.8 70.214 998.744 72.228 995.97 72.228C993.177 72.228 991.125 70.214 991.125 67.345ZM992.93 67.345C992.93 69.283 994.165 70.632 995.97 70.632C997.756 70.632 999.01 69.283 999.01 67.345C999.01 65.407 997.756 64.058 995.97 64.058C994.165 64.058 992.93 65.407 992.93 67.345ZM1008.47 62.633V64.267H1007.68C1005.98 64.267 1004.94 65.293 1004.94 67.079V72H1003.15V62.728H1004.83L1004.94 64.134C1005.32 63.165 1006.25 62.519 1007.52 62.519C1007.85 62.519 1008.11 62.557 1008.47 62.633ZM1014.2 72.228C1011.47 72.228 1009.59 70.252 1009.59 67.364C1009.59 64.457 1011.43 62.443 1014.13 62.443C1016.77 62.443 1018.5 64.267 1018.5 67.022V67.687L1011.32 67.706C1011.45 69.663 1012.47 70.746 1014.24 70.746C1015.63 70.746 1016.54 70.176 1016.84 69.112H1018.52C1018.06 71.107 1016.5 72.228 1014.2 72.228ZM1014.13 63.944C1012.57 63.944 1011.58 64.875 1011.35 66.509H1016.71C1016.71 64.97 1015.7 63.944 1014.13 63.944Z" fill="#496403"/>
<path d="M907.908 149.408H907.044V158H911.856V157.208H907.908V149.408ZM912.528 155.096C912.528 156.86 913.776 158.144 915.48 158.144C917.184 158.144 918.432 156.86 918.432 155.096C918.432 153.32 917.184 152.036 915.48 152.036C913.776 152.036 912.528 153.32 912.528 155.096ZM913.368 155.084C913.368 153.74 914.232 152.78 915.48 152.78C916.716 152.78 917.592 153.74 917.592 155.084C917.592 156.452 916.716 157.4 915.48 157.4C914.232 157.4 913.368 156.452 913.368 155.084ZM920.807 158H921.635L922.835 154.352C922.991 153.872 923.087 153.524 923.171 153.212C923.243 153.56 923.339 153.92 923.483 154.352L924.683 158H925.487L927.455 152.192H926.591L925.439 155.696C925.235 156.32 925.211 156.464 925.091 156.944C924.983 156.512 924.839 156.008 924.731 155.696L923.591 152.192H922.739L921.587 155.696C921.527 155.888 921.335 156.476 921.239 156.944C921.119 156.476 921.011 156.08 920.879 155.696L919.739 152.192H918.887L920.807 158Z" fill="#496403"/>
<path d="M1091.91 158V154.04H1096.55V158H1097.4V149.408H1096.55V153.236H1091.91V149.408H1091.04V158H1091.91ZM1099.82 150.596C1100.15 150.596 1100.44 150.32 1100.44 149.984C1100.44 149.648 1100.15 149.36 1099.82 149.36C1099.48 149.36 1099.2 149.648 1099.2 149.984C1099.2 150.32 1099.48 150.596 1099.82 150.596ZM1099.41 158H1100.24V152.192H1099.41V158ZM1101.65 154.928C1101.65 156.512 1102.66 157.82 1104.32 157.82C1105.31 157.82 1106.12 157.34 1106.51 156.524V157.904C1106.51 159.116 1105.72 159.92 1104.53 159.92C1103.49 159.92 1102.77 159.368 1102.59 158.432H1101.76C1101.99 159.836 1103.03 160.676 1104.52 160.676C1106.22 160.676 1107.33 159.548 1107.33 157.82V152.192H1106.61L1106.52 153.356C1106.15 152.504 1105.38 152.036 1104.38 152.036C1102.67 152.036 1101.65 153.344 1101.65 154.928ZM1102.48 154.916C1102.48 153.74 1103.2 152.768 1104.45 152.768C1105.72 152.768 1106.44 153.68 1106.44 154.916C1106.44 156.164 1105.7 157.076 1104.44 157.076C1103.21 157.076 1102.48 156.104 1102.48 154.916ZM1109.97 157.988V154.832C1109.97 153.716 1110.62 152.792 1111.86 152.792C1112.76 152.792 1113.4 153.272 1113.4 154.628V158H1114.23V154.448C1114.23 152.984 1113.54 152.036 1112.02 152.036C1111.05 152.036 1110.34 152.504 1109.97 153.2V149.252H1109.14V157.988H1109.97Z" fill="#496403"/>
<rect x="1256" y="166" width="251" height="150" rx="3" fill="#D2EA97"/>
<rect x="1044" y="343" width="165" height="139" rx="2.49057" fill="#E4F0C5"/>
<path d="M1068.37 382H1070.19L1073.56 371.132L1076.88 382H1078.67L1082.81 368.263H1080.91L1078.38 376.68C1078.19 377.288 1078 377.991 1077.78 379.15C1077.57 378.124 1077.38 377.402 1077.15 376.661L1074.56 368.263H1072.55L1069.95 376.661C1069.74 377.383 1069.53 378.048 1069.3 379.15C1069.11 378.105 1068.92 377.383 1068.73 376.661L1066.22 368.263H1064.29L1068.37 382ZM1087.57 382.228C1089.87 382.228 1091.42 381.107 1091.88 379.112H1090.21C1089.9 380.176 1088.99 380.746 1087.61 380.746C1085.84 380.746 1084.81 379.663 1084.68 377.706L1091.86 377.687V377.022C1091.86 374.267 1090.13 372.443 1087.49 372.443C1084.79 372.443 1082.95 374.457 1082.95 377.364C1082.95 380.252 1084.83 382.228 1087.57 382.228ZM1087.49 373.944C1089.07 373.944 1090.08 374.97 1090.08 376.509H1084.72C1084.95 374.875 1085.93 373.944 1087.49 373.944ZM1095.85 382L1095.98 380.309C1096.59 381.582 1097.83 382.228 1099.29 382.228C1101.99 382.228 1103.66 380.214 1103.66 377.402C1103.66 374.533 1102.06 372.443 1099.4 372.443C1097.88 372.443 1096.63 373.089 1096.02 374.305V368.016H1094.24V382H1095.85ZM1096.04 377.326C1096.04 375.426 1097.14 374.058 1098.97 374.058C1100.79 374.058 1101.87 375.426 1101.87 377.326C1101.87 379.245 1100.79 380.613 1098.97 380.613C1097.14 380.613 1096.04 379.264 1096.04 377.326ZM1111.09 371.968C1111.09 373.944 1112.25 375.236 1114.49 375.749L1116.75 376.262C1118.06 376.566 1118.65 377.25 1118.65 378.333C1118.65 379.701 1117.49 380.556 1115.67 380.556C1113.94 380.556 1112.84 379.72 1112.8 378.409H1110.9C1111.01 380.765 1112.88 382.228 1115.67 382.228C1118.6 382.228 1120.51 380.651 1120.51 378.181C1120.51 376.243 1119.37 375.027 1117.13 374.514L1114.87 373.982C1113.58 373.678 1112.95 373.013 1112.95 371.911C1112.95 370.562 1114.07 369.688 1115.8 369.688C1117.34 369.688 1118.31 370.486 1118.41 371.854H1120.29C1120.13 369.479 1118.44 368.016 1115.82 368.016C1112.99 368.016 1111.09 369.612 1111.09 371.968ZM1122.32 377.364C1122.32 380.29 1124.13 382.228 1126.86 382.228C1129.11 382.228 1130.83 380.879 1131.2 378.865H1129.41C1129.09 379.967 1128.14 380.632 1126.86 380.632C1125.17 380.632 1124.09 379.34 1124.09 377.345C1124.09 375.331 1125.25 374.039 1126.94 374.039C1128.14 374.039 1129.09 374.666 1129.39 375.844H1131.18C1130.85 373.773 1129.22 372.443 1126.88 372.443C1124.17 372.443 1122.32 374.457 1122.32 377.364ZM1138.78 372.633C1138.42 372.557 1138.15 372.519 1137.83 372.519C1136.56 372.519 1135.63 373.165 1135.25 374.134L1135.13 372.728H1133.46V382H1135.25V377.079C1135.25 375.293 1136.29 374.267 1137.98 374.267H1138.78V372.633ZM1143.18 382.228C1144.68 382.228 1145.95 381.563 1146.43 380.499L1146.62 382H1148.14V376.167C1148.14 373.659 1146.58 372.443 1144.28 372.443C1141.89 372.443 1140.29 373.716 1140.29 375.654H1141.85C1141.85 374.533 1142.71 373.868 1144.21 373.868C1145.46 373.868 1146.39 374.419 1146.39 375.977V376.243L1143.47 376.471C1141.28 376.642 1140.01 377.706 1140.01 379.416C1140.01 381.107 1141.19 382.228 1143.18 382.228ZM1143.69 380.841C1142.53 380.841 1141.81 380.347 1141.81 379.359C1141.81 378.447 1142.46 377.839 1144.04 377.687L1146.41 377.497V377.991C1146.41 379.739 1145.38 380.841 1143.69 380.841ZM1150.99 386.161H1152.78V380.48C1153.39 381.62 1154.62 382.247 1156.1 382.247C1158.86 382.247 1160.42 380.119 1160.42 377.288C1160.42 374.438 1158.76 372.443 1156.1 372.443C1154.62 372.443 1153.37 373.108 1152.74 374.381L1152.61 372.709H1150.99V386.161ZM1152.8 377.364C1152.8 375.426 1153.9 374.077 1155.72 374.077C1157.55 374.077 1158.63 375.445 1158.63 377.364C1158.63 379.264 1157.55 380.632 1155.72 380.632C1153.9 380.632 1152.8 379.264 1152.8 377.364ZM1163.64 370.505C1164.29 370.505 1164.82 369.973 1164.82 369.327C1164.82 368.662 1164.29 368.149 1163.64 368.149C1162.99 368.149 1162.46 368.662 1162.46 369.327C1162.46 369.973 1162.99 370.505 1163.64 370.505ZM1162.77 382H1164.55V372.709H1162.77V382ZM1169.31 382V377.079C1169.31 375.274 1170.28 374.077 1171.95 374.077C1173.32 374.077 1174.19 374.837 1174.19 376.718V382H1175.98V376.319C1175.98 373.944 1174.86 372.443 1172.41 372.443C1171.1 372.443 1169.92 373.07 1169.33 374.134L1169.14 372.709H1167.52V382H1169.31ZM1178.24 377.117C1178.24 379.72 1179.92 381.753 1182.56 381.753C1184.02 381.753 1185.24 381.107 1185.84 380.024V381.886C1185.84 383.653 1184.7 384.793 1182.96 384.793C1181.4 384.793 1180.37 383.995 1180.14 382.627H1178.36C1178.7 384.983 1180.43 386.408 1182.96 386.408C1185.81 386.408 1187.61 384.546 1187.61 381.62V372.709H1186.02L1185.88 374.286C1185.29 373.127 1184.13 372.443 1182.63 372.443C1179.94 372.443 1178.24 374.495 1178.24 377.117ZM1180.03 377.079C1180.03 375.369 1181.09 374.001 1182.88 374.001C1184.7 374.001 1185.77 375.293 1185.77 377.079C1185.77 378.903 1184.67 380.195 1182.86 380.195C1181.11 380.195 1180.03 378.827 1180.03 377.079Z" fill="black"/>
<path d="M1122.54 440L1121.63 433.988C1120.95 433.755 1120.21 433.416 1119.42 432.971C1118.63 432.526 1117.95 432.055 1117.38 431.558L1111.79 434.104L1107.79 427.038L1112.84 423.319C1112.78 422.968 1112.73 422.585 1112.7 422.169C1112.67 421.754 1112.65 421.37 1112.65 421.019C1112.65 420.681 1112.67 420.304 1112.7 419.888C1112.73 419.473 1112.78 419.07 1112.84 418.681L1107.79 414.942L1111.79 407.935L1117.36 410.442C1117.97 409.945 1118.66 409.477 1119.42 409.038C1120.18 408.6 1120.91 408.274 1121.61 408.062L1122.54 402H1130.47L1131.37 408.031C1132.11 408.303 1132.84 408.64 1133.58 409.042C1134.31 409.445 1134.98 409.912 1135.57 410.442L1141.24 407.935L1145.21 414.942L1140.08 418.658C1140.17 419.055 1140.23 419.455 1140.25 419.858C1140.28 420.26 1140.29 420.641 1140.29 421C1140.29 421.346 1140.27 421.715 1140.24 422.108C1140.22 422.5 1140.16 422.908 1140.08 423.331L1145.19 427.038L1141.2 434.104L1135.57 431.538C1134.94 432.061 1134.27 432.544 1133.55 432.986C1132.83 433.429 1132.1 433.756 1131.37 433.969L1130.47 440H1122.54ZM1126.44 426.635C1128.01 426.635 1129.34 426.088 1130.44 424.994C1131.53 423.901 1132.08 422.569 1132.08 421C1132.08 419.431 1131.53 418.099 1130.44 417.006C1129.34 415.912 1128.01 415.365 1126.44 415.365C1124.89 415.365 1123.56 415.912 1122.46 417.006C1121.36 418.099 1120.81 419.431 1120.81 421C1120.81 422.569 1121.36 423.901 1122.46 424.994C1123.56 426.088 1124.89 426.635 1126.44 426.635ZM1126.44 424.365C1125.51 424.365 1124.72 424.036 1124.06 423.379C1123.41 422.721 1123.08 421.928 1123.08 421C1123.08 420.072 1123.41 419.279 1124.06 418.621C1124.72 417.963 1125.51 417.635 1126.44 417.635C1127.38 417.635 1128.18 417.963 1128.83 418.621C1129.48 419.279 1129.81 420.072 1129.81 421C1129.81 421.928 1129.48 422.721 1128.83 423.379C1128.18 424.036 1127.38 424.365 1126.44 424.365ZM1124.36 437.731H1128.62L1129.34 432.15C1130.4 431.883 1131.39 431.486 1132.31 430.958C1133.23 430.429 1134.11 429.759 1134.95 428.946L1140.17 431.208L1142.17 427.665L1137.55 424.254C1137.68 423.661 1137.79 423.103 1137.87 422.579C1137.94 422.054 1137.98 421.528 1137.98 421C1137.98 420.446 1137.95 419.913 1137.88 419.402C1137.81 418.89 1137.7 418.351 1137.55 417.785L1142.21 414.335L1140.21 410.792L1134.93 413.054C1134.23 412.264 1133.38 411.568 1132.39 410.965C1131.4 410.363 1130.37 409.991 1129.32 409.85L1128.64 404.269H1124.36L1123.7 409.831C1122.59 410.051 1121.57 410.429 1120.64 410.963C1119.71 411.498 1118.84 412.188 1118.03 413.035L1112.79 410.792L1110.79 414.335L1115.41 417.727C1115.27 418.255 1115.15 418.791 1115.08 419.335C1115 419.878 1114.96 420.44 1114.96 421.019C1114.96 421.573 1115 422.115 1115.08 422.646C1115.15 423.177 1115.26 423.713 1115.39 424.254L1110.79 427.665L1112.79 431.208L1118.01 428.965C1118.81 429.778 1119.68 430.449 1120.62 430.977C1121.56 431.505 1122.58 431.902 1123.68 432.169L1124.36 437.731Z" fill="#5F8502"/>
<rect x="1064" y="456" width="125" height="6" rx="3" fill="white"/>
<rect x="1064" y="456" width="81" height="6" rx="3" fill="#96D300"/>
<circle cx="554" cy="241" r="4" fill="#96D300"/>
<circle cx="885" cy="115" r="4" fill="#96D300"/>
<circle cx="1044" cy="432" r="4" fill="#96D300"/>
<mask id="path-39-inside-1_424_3802" fill="white">
<path d="M-16 147H283V333.978H-16V147Z"/>
</mask>
<path d="M-16 147H283V333.978H-16V147Z" fill="#E4F0C5"/>
<path d="M8.08886 186.633V180.534H14.8909V186.633H16.7529V172.896H14.8909V178.805H8.08886V172.896H6.22686V186.633H8.08886ZM20.8888 175.138C21.5348 175.138 22.0668 174.606 22.0668 173.96C22.0668 173.295 21.5348 172.782 20.8888 172.782C20.2428 172.782 19.7108 173.295 19.7108 173.96C19.7108 174.606 20.2428 175.138 20.8888 175.138ZM20.0148 186.633H21.8008V177.342H20.0148V186.633ZM24.0137 183.935C24.0137 185.702 25.4007 186.861 27.5857 186.861C29.7897 186.861 31.3097 185.74 31.3097 183.973C31.3097 182.586 30.5307 181.864 28.9537 181.484L27.3197 181.085C26.4077 180.857 25.9517 180.439 25.9517 179.812C25.9517 178.957 26.5787 178.463 27.6997 178.463C28.7827 178.463 29.4097 179.052 29.4477 179.983H31.1577C31.1197 178.216 29.7897 177.076 27.7567 177.076C25.7047 177.076 24.2607 178.159 24.2607 179.869C24.2607 181.237 25.0397 182.054 26.6927 182.453L28.3267 182.833C29.2957 183.08 29.5997 183.46 29.5997 184.087C29.5997 184.942 28.8777 185.455 27.6237 185.455C26.4457 185.455 25.7237 184.885 25.7237 183.935H24.0137ZM36.2923 186.633V178.843H38.1163V177.342H36.2923V174.435H34.5063V177.342H32.6823V178.843H34.5063V186.633H36.2923ZM39.3983 181.978C39.3983 184.847 41.4503 186.861 44.2433 186.861C47.0173 186.861 49.0693 184.847 49.0693 181.978C49.0693 179.109 47.0173 177.095 44.2433 177.095C41.4503 177.095 39.3983 179.109 39.3983 181.978ZM41.2033 181.978C41.2033 180.04 42.4383 178.691 44.2433 178.691C46.0293 178.691 47.2833 180.04 47.2833 181.978C47.2833 183.916 46.0293 185.265 44.2433 185.265C42.4383 185.265 41.2033 183.916 41.2033 181.978ZM56.7464 177.266C56.3854 177.19 56.1194 177.152 55.7964 177.152C54.5234 177.152 53.5924 177.798 53.2124 178.767L53.0984 177.361H51.4264V186.633H53.2124V181.712C53.2124 179.926 54.2574 178.9 55.9484 178.9H56.7464V177.266ZM59.6755 175.138C60.3215 175.138 60.8535 174.606 60.8535 173.96C60.8535 173.295 60.3215 172.782 59.6755 172.782C59.0295 172.782 58.4975 173.295 58.4975 173.96C58.4975 174.606 59.0295 175.138 59.6755 175.138ZM58.8015 186.633H60.5875V177.342H58.8015V186.633ZM62.9524 181.997C62.9524 184.923 64.7574 186.861 67.4934 186.861C69.7354 186.861 71.4644 185.512 71.8254 183.498H70.0394C69.7164 184.6 68.7664 185.265 67.4934 185.265C65.8024 185.265 64.7194 183.973 64.7194 181.978C64.7194 179.964 65.8784 178.672 67.5694 178.672C68.7664 178.672 69.7164 179.299 70.0204 180.477H71.8064C71.4834 178.406 69.8494 177.076 67.5124 177.076C64.7954 177.076 62.9524 179.09 62.9524 181.997ZM76.8068 186.861C78.3078 186.861 79.5808 186.196 80.0558 185.132L80.2458 186.633H81.7658V180.8C81.7658 178.292 80.2078 177.076 77.9088 177.076C75.5148 177.076 73.9188 178.349 73.9188 180.287H75.4768C75.4768 179.166 76.3318 178.501 77.8328 178.501C79.0868 178.501 80.0178 179.052 80.0178 180.61V180.876L77.0918 181.104C74.9068 181.275 73.6338 182.339 73.6338 184.049C73.6338 185.74 74.8118 186.861 76.8068 186.861ZM77.3198 185.474C76.1608 185.474 75.4388 184.98 75.4388 183.992C75.4388 183.08 76.0848 182.472 77.6618 182.32L80.0368 182.13V182.624C80.0368 184.372 79.0108 185.474 77.3198 185.474ZM86.4432 186.633V172.649H84.6572V186.633H86.4432ZM99.8727 186.633C103.939 186.633 106.675 183.859 106.675 179.774C106.675 175.67 103.901 172.896 99.7967 172.896H95.3317V186.633H99.8727ZM99.6637 174.606C102.799 174.606 104.737 176.582 104.737 179.774C104.737 182.928 102.799 184.904 99.7397 184.904H97.1937V174.606H99.6637ZM111.837 186.861C113.338 186.861 114.611 186.196 115.086 185.132L115.276 186.633H116.796V180.8C116.796 178.292 115.238 177.076 112.939 177.076C110.545 177.076 108.949 178.349 108.949 180.287H110.507C110.507 179.166 111.362 178.501 112.863 178.501C114.117 178.501 115.048 179.052 115.048 180.61V180.876L112.122 181.104C109.937 181.275 108.664 182.339 108.664 184.049C108.664 185.74 109.842 186.861 111.837 186.861ZM112.35 185.474C111.191 185.474 110.469 184.98 110.469 183.992C110.469 183.08 111.115 182.472 112.692 182.32L115.067 182.13V182.624C115.067 184.372 114.041 185.474 112.35 185.474ZM122.123 186.633V178.843H123.947V177.342H122.123V174.435H120.337V177.342H118.513V178.843H120.337V186.633H122.123ZM128.535 186.861C130.036 186.861 131.309 186.196 131.784 185.132L131.974 186.633H133.494V180.8C133.494 178.292 131.936 177.076 129.637 177.076C127.243 177.076 125.647 178.349 125.647 180.287H127.205C127.205 179.166 128.06 178.501 129.561 178.501C130.815 178.501 131.746 179.052 131.746 180.61V180.876L128.82 181.104C126.635 181.275 125.362 182.339 125.362 184.049C125.362 185.74 126.54 186.861 128.535 186.861ZM129.048 185.474C127.889 185.474 127.167 184.98 127.167 183.992C127.167 183.08 127.813 182.472 129.39 182.32L131.765 182.13V182.624C131.765 184.372 130.739 185.474 129.048 185.474Z" fill="#0C1612"/>
<path d="M247.609 184.686V184.036H249.615V184.686H247.609ZM245.317 181.606V180.955H251.908V181.606H245.317ZM243.598 178.525V177.875H253.627V178.525H243.598Z" fill="#0C1612"/>
<path d="M19.7617 267.024C19.7617 265.885 20.6854 264.961 21.8249 264.961H34.6693C35.8087 264.961 36.7324 265.885 36.7324 267.024V313.347H19.7617V267.024Z" fill="#C0E36A"/>
<path d="M36.7324 245.934C36.7324 244.795 37.6561 243.871 38.7956 243.871H51.64C52.7794 243.871 53.7032 244.795 53.7032 245.934V313.348H36.7324V245.934Z" fill="#00954A"/>
<path d="M68.1445 275.708C68.1445 274.568 69.0682 273.645 70.2077 273.645H83.0521C84.1915 273.645 85.1153 274.568 85.1153 275.708V313.346H68.1445V275.708Z" fill="#C0E36A"/>
<path d="M85.1152 254.618C85.1152 253.478 86.039 252.555 87.1784 252.555H100.023C101.162 252.555 102.086 253.478 102.086 254.618V313.347H85.1152V254.618Z" fill="#00954A"/>
<path d="M116.529 269.505C116.529 268.365 117.453 267.441 118.592 267.441H131.437C132.576 267.441 133.5 268.365 133.5 269.505V313.346H116.529V269.505Z" fill="#C0E36A"/>
<path d="M133.5 252.137C133.5 250.998 134.424 250.074 135.563 250.074H148.408C149.547 250.074 150.471 250.998 150.471 252.137V313.348H133.5V252.137Z" fill="#00954A"/>
<path d="M164.912 250.895C164.912 249.756 165.836 248.832 166.975 248.832H179.82C180.959 248.832 181.883 249.756 181.883 250.895V313.347H164.912V250.895Z" fill="#C0E36A"/>
<path d="M181.883 260.821C181.883 259.682 182.807 258.758 183.946 258.758H196.79C197.93 258.758 198.854 259.682 198.854 260.821V313.347H181.883V260.821Z" fill="#00954A"/>
<path d="M213.297 275.708C213.297 274.568 214.221 273.645 215.36 273.645H228.204C229.344 273.645 230.268 274.568 230.268 275.708V313.346H213.297V275.708Z" fill="#C0E36A"/>
<path d="M230.268 252.137C230.268 250.998 231.191 250.074 232.331 250.074H245.175C246.315 250.074 247.238 250.998 247.238 252.137V313.348H230.268V252.137Z" fill="#00954A"/>
<path d="M282.519 147V333.978H283.481V147H282.519Z" fill="#EAEDD6" mask="url(#path-39-inside-1_424_3802)"/>
<rect x="150" y="402" width="213.539" height="105" rx="2.54831" fill="white"/>
<path d="M172.717 433.742H164.338V420.005H172.717V421.715H166.2V426.009H172.071V427.662H166.2V432.013H172.717V433.742ZM177.657 433.742H175.795V420.005H180.982C183.927 420.005 185.675 421.563 185.675 424.128C185.675 426.028 184.725 427.396 183.015 427.947L185.808 433.742H183.737L181.172 428.308H177.657V433.742ZM177.657 421.677V426.655H181.001C182.73 426.655 183.718 425.724 183.718 424.147C183.718 422.551 182.692 421.677 180.982 421.677H177.657ZM193.946 428.84H190.469V433.742H188.607V420.005H193.946C196.644 420.005 198.373 421.772 198.373 424.413C198.373 426.978 196.625 428.84 193.946 428.84ZM193.623 421.677H190.469V427.168H193.547C195.39 427.168 196.416 426.085 196.416 424.394C196.416 422.665 195.371 421.677 193.623 421.677ZM215.362 433.742L214.279 432.507C213.215 433.457 211.752 433.989 210.023 433.989C207.078 433.989 205.14 432.469 205.14 430.17C205.14 428.479 206.223 427.13 208.503 425.952C207.325 424.603 206.888 423.767 206.888 422.741C206.888 421.012 208.237 419.777 210.175 419.777C212.056 419.777 213.348 420.936 213.348 422.627C213.348 423.995 212.645 425.059 210.878 426.256L214.165 429.999C214.469 429.258 214.64 428.346 214.64 427.32H216.369C216.369 428.878 215.989 430.246 215.324 431.31L217.452 433.742H215.362ZM208.579 422.722C208.579 423.444 208.902 424.014 209.966 425.23C211.125 424.527 211.676 423.691 211.676 422.665C211.676 421.772 211.106 421.221 210.156 421.221C209.187 421.221 208.579 421.81 208.579 422.722ZM207.002 430.037C207.002 431.538 208.199 432.45 210.194 432.45C211.467 432.45 212.493 432.07 213.253 431.329L209.396 426.959C207.686 427.909 207.002 428.802 207.002 430.037ZM225.06 433.742H223.122L228.138 420.005H230.209L235.244 433.742H233.287L232.052 430.322H226.276L225.06 433.742ZM228.936 422.969L226.846 428.707H231.501L229.392 422.969C229.297 422.703 229.202 422.38 229.164 422.171C229.126 422.361 229.031 422.684 228.936 422.969ZM236.186 429.106C236.186 426.199 238.029 424.185 240.746 424.185C243.083 424.185 244.717 425.515 245.04 427.586H243.254C242.95 426.408 242 425.781 240.803 425.781C239.112 425.781 237.953 427.073 237.953 429.087C237.953 431.082 239.036 432.374 240.727 432.374C242 432.374 242.95 431.709 243.273 430.607H245.059C244.698 432.621 242.969 433.97 240.727 433.97C237.991 433.97 236.186 432.032 236.186 429.106ZM246.715 429.106C246.715 426.199 248.558 424.185 251.275 424.185C253.612 424.185 255.246 425.515 255.569 427.586H253.783C253.479 426.408 252.529 425.781 251.332 425.781C249.641 425.781 248.482 427.073 248.482 429.087C248.482 431.082 249.565 432.374 251.256 432.374C252.529 432.374 253.479 431.709 253.802 430.607H255.588C255.227 432.621 253.498 433.97 251.256 433.97C248.52 433.97 246.715 432.032 246.715 429.106ZM257.245 429.087C257.245 426.218 259.297 424.204 262.09 424.204C264.864 424.204 266.916 426.218 266.916 429.087C266.916 431.956 264.864 433.97 262.09 433.97C259.297 433.97 257.245 431.956 257.245 429.087ZM259.05 429.087C259.05 431.025 260.285 432.374 262.09 432.374C263.876 432.374 265.13 431.025 265.13 429.087C265.13 427.149 263.876 425.8 262.09 425.8C260.285 425.8 259.05 427.149 259.05 429.087ZM275.472 424.451H277.239V433.742H275.643L275.453 432.336C274.921 433.305 273.686 433.97 272.318 433.97C270.152 433.97 268.936 432.507 268.936 430.227V424.451H270.722V429.638C270.722 431.633 271.577 432.393 272.945 432.393C274.579 432.393 275.472 431.348 275.472 429.353V424.451ZM281.996 433.742H280.21V424.451H281.825L282.015 425.876C282.604 424.812 283.782 424.185 285.093 424.185C287.544 424.185 288.665 425.686 288.665 428.061V433.742H286.879V428.46C286.879 426.579 286.005 425.819 284.637 425.819C282.965 425.819 281.996 427.016 281.996 428.821V433.742ZM294.141 433.742H292.355V425.952H290.531V424.451H292.355V421.544H294.141V424.451H295.965V425.952H294.141V433.742ZM298.822 422.247C298.176 422.247 297.644 421.715 297.644 421.069C297.644 420.404 298.176 419.891 298.822 419.891C299.468 419.891 300 420.404 300 421.069C300 421.715 299.468 422.247 298.822 422.247ZM297.948 433.742V424.451H299.734V433.742H297.948ZM304.493 433.742H302.707V424.451H304.322L304.512 425.876C305.101 424.812 306.279 424.185 307.59 424.185C310.041 424.185 311.162 425.686 311.162 428.061V433.742H309.376V428.46C309.376 426.579 308.502 425.819 307.134 425.819C305.462 425.819 304.493 427.016 304.493 428.821V433.742ZM313.426 428.859C313.426 426.237 315.117 424.185 317.815 424.185C319.316 424.185 320.475 424.869 321.064 426.028L321.197 424.451H322.793V433.362C322.793 436.288 320.988 438.15 318.138 438.15C315.611 438.15 313.882 436.725 313.54 434.369H315.326C315.554 435.737 316.58 436.535 318.138 436.535C319.886 436.535 321.026 435.395 321.026 433.628V431.766C320.418 432.849 319.202 433.495 317.739 433.495C315.098 433.495 313.426 431.462 313.426 428.859ZM315.212 428.821C315.212 430.569 316.295 431.937 318.043 431.937C319.848 431.937 320.95 430.645 320.95 428.821C320.95 427.035 319.886 425.743 318.062 425.743C316.276 425.743 315.212 427.111 315.212 428.821ZM163.274 454.044H164.984C164.984 454.994 165.706 455.564 166.884 455.564C168.138 455.564 168.86 455.051 168.86 454.196C168.86 453.569 168.556 453.189 167.587 452.942L165.953 452.562C164.3 452.163 163.521 451.346 163.521 449.978C163.521 448.268 164.965 447.185 167.017 447.185C169.05 447.185 170.38 448.325 170.418 450.092H168.708C168.67 449.161 168.043 448.572 166.96 448.572C165.839 448.572 165.212 449.066 165.212 449.921C165.212 450.548 165.668 450.966 166.58 451.194L168.214 451.593C169.791 451.973 170.57 452.695 170.57 454.082C170.57 455.849 169.05 456.97 166.846 456.97C164.661 456.97 163.274 455.811 163.274 454.044ZM173.48 456.742H171.713L177.071 443.024H178.857L173.48 456.742ZM181.967 456.742L178.927 447.451H180.77L182.309 452.277C182.518 452.961 182.708 453.664 182.879 454.481C183.031 453.664 183.278 452.885 183.487 452.277L185.045 447.451H186.869L188.408 452.277C188.56 452.733 188.864 453.816 189.016 454.481C189.168 453.74 189.339 453.094 189.605 452.277L191.163 447.451H193.025L189.852 456.742H188.161L186.546 451.764C186.242 450.833 186.052 450.111 185.957 449.598C185.862 450.054 185.691 450.662 185.349 451.783L183.734 456.742H181.967Z" fill="#496403"/>
<rect x="265" y="451" width="72" height="7" rx="3.5" fill="#E4F0C5"/>
<rect x="265" y="462" width="58" height="7" rx="3.5" fill="#E4F0C5"/>
<path d="M695.974 156.449L771.804 227.105L670.805 250.38L594.975 179.724L695.974 156.449Z" fill="white"/>
<path d="M726.307 208.502L717.823 200.324C716.589 199.135 716.099 197.37 716.542 195.714C717.471 192.25 721.777 191.053 724.36 193.542L732.844 201.72C734.077 202.909 734.568 204.674 734.124 206.33C733.196 209.794 728.89 210.991 726.307 208.502Z" fill="#F1F3E4"/>
<path d="M640.152 235.939L670.949 121L735.575 178.926L704.778 293.865L640.152 235.939Z" fill="#77A701"/>
<path d="M623.152 258.939L653.949 144L718.575 201.926L687.778 316.865L623.152 258.939Z" fill="#AEDC3D"/>
<path d="M609.152 261.939L639.949 147L704.575 204.926L673.778 319.865L609.152 261.939Z" fill="#C0E36A"/>
<path d="M596.152 264.939L626.949 150L691.575 207.926L660.778 322.865L596.152 264.939Z" fill="#D2EA97"/>
<path d="M584.152 264.939L614.949 150L679.575 207.926L648.778 322.865L584.152 264.939Z" fill="#E4F0C5"/>
<path d="M570.561 270.842L594.969 179.75L670.848 250.32L646.44 341.411L570.561 270.842Z" fill="#004D26"/>
<path d="M626.307 231.502L617.823 223.324C616.589 222.135 616.099 220.37 616.542 218.714C617.471 215.25 621.777 214.053 624.36 216.542L632.844 224.72C634.077 225.909 634.568 227.674 634.124 229.33C633.196 232.794 628.89 233.991 626.307 231.502Z" fill="white"/>
<circle cx="290" cy="240" r="4" fill="#96D300"/>
<circle cx="363" cy="451" r="4" fill="#96D300"/>
<path d="M747.319 318.675L771.863 227.076L670.847 250.317L646.439 341.409L747.319 318.675Z" fill="#D2EA97"/>
<path d="M596.588 83.154C598.744 83.154 600.494 81.88 600.956 79.99H599.878C599.444 81.334 598.184 82.188 596.602 82.188C594.404 82.188 592.934 80.508 592.934 77.988C592.934 75.454 594.404 73.774 596.602 73.774C598.17 73.774 599.402 74.656 599.822 76.098H600.9C600.494 74.11 598.8 72.808 596.644 72.808C593.816 72.808 591.884 74.908 591.884 77.988C591.884 81.068 593.788 83.154 596.588 83.154ZM604.438 83.168C605.586 83.168 606.51 82.664 606.93 81.81L607.056 83H607.868V78.618C607.868 76.826 606.72 76.042 605.152 76.042C603.486 76.042 602.366 76.924 602.366 78.296H603.248C603.248 77.386 603.948 76.854 605.124 76.854C606.118 76.854 606.916 77.274 606.916 78.604V78.828L604.676 79.01C603.094 79.136 602.142 79.92 602.142 81.166C602.142 82.356 602.996 83.168 604.438 83.168ZM604.662 82.384C603.738 82.384 603.122 81.964 603.122 81.138C603.122 80.382 603.64 79.822 604.914 79.71L606.916 79.556V79.92C606.916 81.39 606.09 82.384 604.662 82.384ZM610.955 83V72.794H609.989V83H610.955ZM612.673 79.626C612.673 81.754 613.975 83.168 615.893 83.168C617.433 83.168 618.637 82.258 618.959 80.872H617.979C617.713 81.74 616.901 82.3 615.893 82.3C614.521 82.3 613.625 81.222 613.625 79.612C613.625 77.946 614.591 76.896 615.963 76.896C616.901 76.896 617.713 77.414 617.965 78.352H618.931C618.665 76.952 617.517 76.042 615.949 76.042C613.975 76.042 612.673 77.498 612.673 79.626ZM625.322 76.224V79.822C625.322 81.432 624.552 82.3 623.25 82.3C622.172 82.3 621.458 81.726 621.458 80.116V76.21H620.478V80.424C620.478 82.076 621.346 83.168 622.942 83.168C624.006 83.168 624.944 82.636 625.322 81.852L625.448 83H626.288V76.224H625.322ZM629.449 83V72.794H628.483V83H629.449ZM633.589 83.168C634.737 83.168 635.661 82.664 636.081 81.81L636.207 83H637.019V78.618C637.019 76.826 635.871 76.042 634.303 76.042C632.637 76.042 631.517 76.924 631.517 78.296H632.399C632.399 77.386 633.099 76.854 634.275 76.854C635.269 76.854 636.067 77.274 636.067 78.604V78.828L633.827 79.01C632.245 79.136 631.293 79.92 631.293 81.166C631.293 82.356 632.147 83.168 633.589 83.168ZM633.813 82.384C632.889 82.384 632.273 81.964 632.273 81.138C632.273 80.382 632.791 79.822 634.065 79.71L636.067 79.556V79.92C636.067 81.39 635.241 82.384 633.813 82.384ZM640.529 83V77.036H641.887V76.224H640.529V74.082H639.577V76.224H638.219V77.036H639.577V83H640.529ZM643.761 74.362C644.153 74.362 644.489 74.04 644.489 73.648C644.489 73.256 644.153 72.92 643.761 72.92C643.369 72.92 643.047 73.256 643.047 73.648C643.047 74.04 643.369 74.362 643.761 74.362ZM643.285 83H644.251V76.224H643.285V83ZM647.371 83V79.458C647.371 77.932 648.155 76.924 649.541 76.924C650.661 76.924 651.375 77.484 651.375 79.066V83H652.341V78.856C652.341 77.148 651.571 76.042 649.709 76.042C648.729 76.042 647.833 76.532 647.385 77.4L647.245 76.224H646.405V83H647.371ZM653.944 79.416C653.944 81.264 655.12 82.79 657.052 82.79C658.214 82.79 659.152 82.23 659.614 81.278V82.888C659.614 84.302 658.69 85.24 657.304 85.24C656.086 85.24 655.246 84.596 655.036 83.504H654.07C654.336 85.142 655.554 86.122 657.29 86.122C659.278 86.122 660.566 84.806 660.566 82.79V76.224H659.726L659.628 77.582C659.194 76.588 658.298 76.042 657.122 76.042C655.134 76.042 653.944 77.568 653.944 79.416ZM654.91 79.402C654.91 78.03 655.75 76.896 657.206 76.896C658.69 76.896 659.53 77.96 659.53 79.402C659.53 80.858 658.662 81.922 657.192 81.922C655.764 81.922 654.91 80.788 654.91 79.402ZM671.043 83.154C673.199 83.154 674.949 81.88 675.411 79.99H674.333C673.899 81.334 672.639 82.188 671.057 82.188C668.859 82.188 667.389 80.508 667.389 77.988C667.389 75.454 668.859 73.774 671.057 73.774C672.625 73.774 673.857 74.656 674.277 76.098H675.355C674.949 74.11 673.255 72.808 671.099 72.808C668.271 72.808 666.339 74.908 666.339 77.988C666.339 81.068 668.243 83.154 671.043 83.154ZM680.626 76.14C680.388 76.084 680.206 76.07 679.996 76.07C679.044 76.07 678.33 76.546 678.064 77.274L677.994 76.224H677.084V83H678.05V79.136C678.05 77.848 678.848 77.008 680.094 77.008H680.626V76.14ZM684.633 83.168C686.229 83.168 687.279 82.398 687.643 80.97H686.719C686.467 81.866 685.753 82.342 684.647 82.342C683.191 82.342 682.323 81.39 682.253 79.738H687.643V79.262C687.643 77.344 686.397 76.042 684.563 76.042C682.631 76.042 681.315 77.498 681.315 79.612C681.315 81.74 682.645 83.168 684.633 83.168ZM684.563 76.868C685.837 76.868 686.677 77.736 686.677 79.038H682.281C682.449 77.708 683.289 76.868 684.563 76.868ZM691.987 83.168C693.121 83.168 694.073 82.664 694.549 81.614L694.647 83H695.487V72.794H694.521V77.512C694.045 76.532 693.149 76.042 692.029 76.042C690.013 76.042 688.851 77.582 688.851 79.626C688.851 81.656 690.013 83.168 691.987 83.168ZM692.155 82.286C690.685 82.286 689.831 81.166 689.831 79.598C689.831 78.044 690.685 76.91 692.155 76.91C693.639 76.91 694.507 78.044 694.507 79.598C694.507 81.166 693.639 82.286 692.155 82.286ZM698.119 74.362C698.511 74.362 698.847 74.04 698.847 73.648C698.847 73.256 698.511 72.92 698.119 72.92C697.727 72.92 697.405 73.256 697.405 73.648C697.405 74.04 697.727 74.362 698.119 74.362ZM697.643 83H698.609V76.224H697.643V83ZM702.317 83V77.036H703.675V76.224H702.317V74.082H701.365V76.224H700.007V77.036H701.365V83H702.317ZM708.704 75.58C708.704 76.952 709.53 77.848 711.098 78.226L712.792 78.646C713.87 78.898 714.374 79.486 714.374 80.382C714.374 81.53 713.436 82.244 711.966 82.244C710.594 82.244 709.67 81.558 709.614 80.508H708.578C708.704 82.146 710.02 83.168 711.966 83.168C714.038 83.168 715.382 82.062 715.382 80.326C715.382 78.968 714.57 78.072 713.002 77.694L711.28 77.274C710.23 77.008 709.712 76.448 709.712 75.566C709.712 74.432 710.636 73.704 712.05 73.704C713.31 73.704 714.08 74.348 714.192 75.482H715.214C715.06 73.802 713.87 72.794 712.064 72.794C710.048 72.794 708.704 73.9 708.704 75.58ZM716.649 79.626C716.649 81.754 717.951 83.168 719.869 83.168C721.409 83.168 722.613 82.258 722.935 80.872H721.955C721.689 81.74 720.877 82.3 719.869 82.3C718.497 82.3 717.601 81.222 717.601 79.612C717.601 77.946 718.567 76.896 719.939 76.896C720.877 76.896 721.689 77.414 721.941 78.352H722.907C722.641 76.952 721.493 76.042 719.925 76.042C717.951 76.042 716.649 77.498 716.649 79.626ZM724.062 79.612C724.062 81.67 725.518 83.168 727.506 83.168C729.494 83.168 730.95 81.67 730.95 79.612C730.95 77.54 729.494 76.042 727.506 76.042C725.518 76.042 724.062 77.54 724.062 79.612ZM725.042 79.598C725.042 78.03 726.05 76.91 727.506 76.91C728.948 76.91 729.97 78.03 729.97 79.598C729.97 81.194 728.948 82.3 727.506 82.3C726.05 82.3 725.042 81.194 725.042 79.598ZM736.177 76.14C735.939 76.084 735.757 76.07 735.547 76.07C734.595 76.07 733.881 76.546 733.615 77.274L733.545 76.224H732.635V83H733.601V79.136C733.601 77.848 734.399 77.008 735.645 77.008H736.177V76.14ZM740.184 83.168C741.78 83.168 742.83 82.398 743.194 80.97H742.27C742.018 81.866 741.304 82.342 740.198 82.342C738.742 82.342 737.874 81.39 737.804 79.738H743.194V79.262C743.194 77.344 741.948 76.042 740.114 76.042C738.182 76.042 736.866 77.498 736.866 79.612C736.866 81.74 738.196 83.168 740.184 83.168ZM740.114 76.868C741.388 76.868 742.228 77.736 742.228 79.038H737.832C738 77.708 738.84 76.868 740.114 76.868ZM745.28 83.154C745.756 83.154 746.162 82.762 746.162 82.3C746.162 81.824 745.756 81.418 745.28 81.418C744.804 81.418 744.398 81.824 744.398 82.3C744.398 82.762 744.804 83.154 745.28 83.154ZM749.084 83.154C749.56 83.154 749.966 82.762 749.966 82.3C749.966 81.824 749.56 81.418 749.084 81.418C748.608 81.418 748.202 81.824 748.202 82.3C748.202 82.762 748.608 83.154 749.084 83.154ZM752.888 83.154C753.364 83.154 753.77 82.762 753.77 82.3C753.77 81.824 753.364 81.418 752.888 81.418C752.412 81.418 752.006 81.824 752.006 82.3C752.006 82.762 752.412 83.154 752.888 83.154Z" fill="#77A701"/>
<path d="M630.416 106.209C633.342 106.209 635.717 104.48 636.344 101.915H634.881C634.292 103.739 632.582 104.898 630.435 104.898C627.452 104.898 625.457 102.618 625.457 99.198C625.457 95.759 627.452 93.479 630.435 93.479C632.563 93.479 634.235 94.676 634.805 96.633H636.268C635.717 93.935 633.418 92.168 630.492 92.168C626.654 92.168 624.032 95.018 624.032 99.198C624.032 103.378 626.616 106.209 630.416 106.209ZM645.075 96.804V101.687C645.075 103.872 644.03 105.05 642.263 105.05C640.8 105.05 639.831 104.271 639.831 102.086V96.785H638.501V102.504C638.501 104.746 639.679 106.228 641.845 106.228C643.289 106.228 644.562 105.506 645.075 104.442L645.246 106H646.386V96.804H645.075ZM648.343 103.416C648.343 105.126 649.635 106.228 651.706 106.228C653.796 106.228 655.202 105.145 655.202 103.492C655.202 102.162 654.48 101.421 652.884 101.022L651.307 100.623C650.3 100.376 649.806 99.882 649.806 99.179C649.806 98.191 650.528 97.64 651.82 97.64C653.055 97.64 653.796 98.267 653.834 99.331H655.107C655.05 97.621 653.796 96.557 651.858 96.557C649.882 96.557 648.533 97.583 648.533 99.198C648.533 100.452 649.312 101.288 650.908 101.687L652.485 102.086C653.568 102.352 653.948 102.789 653.948 103.549C653.948 104.537 653.112 105.145 651.687 105.145C650.395 105.145 649.597 104.48 649.597 103.416H648.343ZM659.659 106V97.906H661.502V96.804H659.659V93.897H658.367V96.804H656.524V97.906H658.367V106H659.659ZM662.66 101.402C662.66 104.195 664.636 106.228 667.334 106.228C670.032 106.228 672.008 104.195 672.008 101.402C672.008 98.59 670.032 96.557 667.334 96.557C664.636 96.557 662.66 98.59 662.66 101.402ZM663.99 101.383C663.99 99.255 665.358 97.735 667.334 97.735C669.291 97.735 670.678 99.255 670.678 101.383C670.678 103.549 669.291 105.05 667.334 105.05C665.358 105.05 663.99 103.549 663.99 101.383ZM675.606 106V100.3C675.606 98.894 676.537 97.754 678.076 97.754C679.463 97.754 680.356 98.666 680.356 100.224V106H681.648V100.319C681.648 98.894 682.56 97.735 684.099 97.735C685.505 97.735 686.379 98.666 686.379 100.243V106H687.652V99.977C687.652 97.849 686.341 96.557 684.346 96.557C682.864 96.557 681.743 97.317 681.325 98.514C680.888 97.317 679.805 96.557 678.361 96.557C677.069 96.557 676.043 97.146 675.587 98.115L675.435 96.804H674.295V106H675.606ZM694.336 106.228C696.502 106.228 697.927 105.183 698.421 103.245H697.167C696.825 104.461 695.856 105.107 694.355 105.107C692.379 105.107 691.201 103.815 691.106 101.573H698.421V100.927C698.421 98.324 696.73 96.557 694.241 96.557C691.619 96.557 689.833 98.533 689.833 101.402C689.833 104.29 691.638 106.228 694.336 106.228ZM694.241 97.678C695.97 97.678 697.11 98.856 697.11 100.623H691.144C691.372 98.818 692.512 97.678 694.241 97.678ZM705.514 96.69C705.191 96.614 704.944 96.595 704.659 96.595C703.367 96.595 702.398 97.241 702.037 98.229L701.942 96.804H700.707V106H702.018V100.756C702.018 99.008 703.101 97.868 704.792 97.868H705.514V96.69ZM713.192 106L714.522 102.39H720.792L722.122 106H723.547L718.493 92.396H716.802L711.805 106H713.192ZM717.467 94.315C717.543 94.125 717.619 93.878 717.638 93.764C717.657 93.897 717.752 94.125 717.809 94.315L720.355 101.193H714.94L717.467 94.315Z" fill="#2F3A35"/>
<rect x="588" y="365" width="171" height="62" rx="31" fill="#004D26"/>
<path d="M643.791 387.132C645.747 387.132 647.295 385.98 647.667 384.252H646.419C646.095 385.32 645.087 386.004 643.815 386.004C642.063 386.004 640.911 384.684 640.911 382.656C640.911 380.628 642.063 379.308 643.815 379.308C645.075 379.308 646.047 379.992 646.371 381.12H647.631C647.307 379.344 645.807 378.18 643.851 378.18C641.367 378.18 639.675 379.992 639.675 382.668C639.675 385.356 641.319 387.132 643.791 387.132ZM652.36 381.084C652.132 381.036 651.964 381.012 651.76 381.012C650.956 381.012 650.368 381.42 650.128 382.032L650.056 381.144H649V387H650.128V383.892C650.128 382.764 650.788 382.116 651.856 382.116H652.36V381.084ZM655.824 387.144C657.276 387.144 658.26 386.436 658.548 385.176H657.492C657.3 385.848 656.724 386.208 655.848 386.208C654.732 386.208 654.084 385.524 654 384.288L658.536 384.276V383.856C658.536 382.116 657.444 380.964 655.776 380.964C654.072 380.964 652.908 382.236 652.908 384.072C652.908 385.896 654.096 387.144 655.824 387.144ZM655.776 381.912C656.772 381.912 657.408 382.56 657.408 383.532H654.024C654.168 382.5 654.792 381.912 655.776 381.912ZM662.231 387.144C663.167 387.144 663.959 386.736 664.343 385.932L664.439 387H665.447V378.168H664.331V382.08C663.935 381.36 663.179 380.964 662.279 380.964C660.539 380.964 659.495 382.284 659.495 384.084C659.495 385.872 660.527 387.144 662.231 387.144ZM662.459 386.124C661.307 386.124 660.635 385.26 660.635 384.048C660.635 382.848 661.307 381.984 662.459 381.984C663.611 381.984 664.319 382.848 664.319 384.048C664.319 385.272 663.611 386.124 662.459 386.124ZM667.711 379.74C668.119 379.74 668.455 379.404 668.455 378.996C668.455 378.576 668.119 378.252 667.711 378.252C667.303 378.252 666.967 378.576 666.967 378.996C666.967 379.404 667.303 379.74 667.711 379.74ZM667.159 387H668.287V381.132H667.159V387ZM671.664 387V382.08H672.816V381.132H671.664V379.296H670.536V381.132H669.384V382.08H670.536V387H671.664ZM676.966 380.664C676.966 381.912 677.698 382.728 679.114 383.052L680.542 383.376C681.37 383.568 681.742 384 681.742 384.684C681.742 385.548 681.01 386.088 679.858 386.088C678.766 386.088 678.07 385.56 678.046 384.732H676.846C676.918 386.22 678.094 387.144 679.858 387.144C681.706 387.144 682.918 386.148 682.918 384.588C682.918 383.364 682.198 382.596 680.782 382.272L679.354 381.936C678.538 381.744 678.142 381.324 678.142 380.628C678.142 379.776 678.85 379.224 679.942 379.224C680.914 379.224 681.526 379.728 681.586 380.592H682.774C682.678 379.092 681.61 378.168 679.954 378.168C678.166 378.168 676.966 379.176 676.966 380.664ZM683.904 384.072C683.904 385.92 685.044 387.144 686.772 387.144C688.188 387.144 689.28 386.292 689.508 385.02H688.38C688.176 385.716 687.576 386.136 686.772 386.136C685.704 386.136 685.02 385.32 685.02 384.06C685.02 382.788 685.752 381.972 686.82 381.972C687.576 381.972 688.176 382.368 688.368 383.112H689.496C689.292 381.804 688.26 380.964 686.784 380.964C685.068 380.964 683.904 382.236 683.904 384.072ZM690.398 384.06C690.398 385.872 691.694 387.144 693.458 387.144C695.21 387.144 696.506 385.872 696.506 384.06C696.506 382.248 695.21 380.976 693.458 380.976C691.694 380.976 690.398 382.248 690.398 384.06ZM691.538 384.06C691.538 382.836 692.318 381.984 693.458 381.984C694.586 381.984 695.378 382.836 695.378 384.06C695.378 385.284 694.586 386.136 693.458 386.136C692.318 386.136 691.538 385.284 691.538 384.06ZM701.199 381.084C700.971 381.036 700.803 381.012 700.599 381.012C699.795 381.012 699.207 381.42 698.967 382.032L698.895 381.144H697.839V387H698.967V383.892C698.967 382.764 699.627 382.116 700.695 382.116H701.199V381.084ZM704.662 387.144C706.114 387.144 707.098 386.436 707.386 385.176H706.33C706.138 385.848 705.562 386.208 704.686 386.208C703.57 386.208 702.922 385.524 702.838 384.288L707.374 384.276V383.856C707.374 382.116 706.282 380.964 704.614 380.964C702.91 380.964 701.746 382.236 701.746 384.072C701.746 385.896 702.934 387.144 704.662 387.144ZM704.614 381.912C705.61 381.912 706.246 382.56 706.246 383.532H702.862C703.006 382.5 703.63 381.912 704.614 381.912Z" fill="#D2EA97"/>
<path d="M652.661 397.371V399.441H661.999L655.628 414H657.974L664.276 399.441V397.371H652.661ZM671.243 414.276C674.831 414.276 677.292 411.861 677.292 408.411C677.292 405.214 675.107 402.845 671.726 402.845C670.484 402.845 669.38 403.19 668.506 403.857L669.61 399.441H676.303V397.371H667.977L665.953 405.904L667.862 406.387C668.621 405.444 669.909 404.777 671.312 404.777C673.635 404.777 674.992 406.364 674.992 408.503C674.992 410.757 673.543 412.252 671.289 412.252C669.173 412.252 667.862 410.941 667.862 408.802H665.631C665.631 412.114 667.839 414.276 671.243 414.276ZM679.703 405.697C679.703 410.872 682.256 414.299 686.557 414.299C690.835 414.299 693.388 410.872 693.388 405.697C693.388 400.545 690.72 397.049 686.557 397.049C682.371 397.049 679.703 400.545 679.703 405.697ZM681.934 405.697C681.934 401.557 683.636 399.073 686.557 399.073C689.478 399.073 691.157 401.557 691.157 405.697C691.157 409.791 689.478 412.275 686.557 412.275C683.636 412.275 681.934 409.791 681.934 405.697Z" fill="white"/>
<path fill-rule="evenodd" clip-rule="evenodd" d="M943 159C944.058 122.37 974.085 93 1010.97 93C1047.86 93 1077.88 122.37 1078.94 159H1065.94C1064.88 129.551 1040.68 106 1010.97 106C981.265 106 957.059 129.551 956.007 159H943Z" fill="#AEDC3D"/>
<path d="M1284.14 203H1279.6V189.263H1284.06C1288.17 189.263 1290.94 192.037 1290.94 196.141C1290.94 200.226 1288.2 203 1284.14 203ZM1283.93 190.973H1281.46V201.271H1284C1287.06 201.271 1289 199.295 1289 196.141C1289 192.949 1287.06 190.973 1283.93 190.973ZM1303.19 203L1302.1 201.765C1301.04 202.715 1299.58 203.247 1297.85 203.247C1294.9 203.247 1292.97 201.727 1292.97 199.428C1292.97 197.737 1294.05 196.388 1296.33 195.21C1295.15 193.861 1294.71 193.025 1294.71 191.999C1294.71 190.27 1296.06 189.035 1298 189.035C1299.88 189.035 1301.17 190.194 1301.17 191.885C1301.17 193.253 1300.47 194.317 1298.7 195.514L1301.99 199.257C1302.29 198.516 1302.47 197.604 1302.47 196.578H1304.19C1304.19 198.136 1303.81 199.504 1303.15 200.568L1305.28 203H1303.19ZM1296.4 191.98C1296.4 192.702 1296.73 193.272 1297.79 194.488C1298.95 193.785 1299.5 192.949 1299.5 191.923C1299.5 191.03 1298.93 190.479 1297.98 190.479C1297.01 190.479 1296.4 191.068 1296.4 191.98ZM1294.83 199.295C1294.83 200.796 1296.02 201.708 1298.02 201.708C1299.29 201.708 1300.32 201.328 1301.08 200.587L1297.22 196.217C1295.51 197.167 1294.83 198.06 1294.83 199.295ZM1307.5 203V189.263H1312.75C1315.42 189.263 1317.06 190.631 1317.06 192.892C1317.06 194.469 1316.37 195.533 1315.01 196.103C1316.53 196.597 1317.31 197.699 1317.31 199.333C1317.31 201.613 1315.65 203 1312.94 203H1307.5ZM1312.63 190.916H1309.36V195.324H1312.75C1314.28 195.324 1315.16 194.488 1315.16 193.063C1315.16 191.695 1314.25 190.916 1312.63 190.916ZM1312.9 196.939H1309.36V201.347H1312.9C1314.49 201.347 1315.39 200.53 1315.39 199.105C1315.39 197.737 1314.47 196.939 1312.9 196.939Z" fill="black"/>
<rect x="1278" y="218" width="115.396" height="6.64151" rx="3.32075" fill="#E4F0C5"/>
<rect x="1278" y="248" width="115.396" height="6.64151" rx="3.32075" fill="#E4F0C5"/>
<rect x="1278" y="278" width="115.396" height="6.64151" rx="3.32075" fill="#D2EA97"/>
<rect x="1278" y="227.961" width="91.3208" height="6.64151" rx="3.32075" fill="#E4F0C5"/>
<rect x="1278" y="257.961" width="91.3208" height="6.64151" rx="3.32075" fill="#E4F0C5"/>
<rect x="1278" y="287.961" width="91.3208" height="6.64151" rx="3.32075" fill="#E4F0C5"/>
<mask id="mask0_424_3802" style="mask-type:alpha" maskUnits="userSpaceOnUse" x="943" y="93" width="136" height="66">
<path d="M943 159C944.058 122.37 974.085 93 1010.97 93C1047.86 93 1077.88 122.37 1078.94 159H1065.94C1064.88 129.551 1040.68 106 1010.97 106C981.265 106 957.059 129.551 956.007 159H943Z" fill="#AEDC3D"/>
</mask>
<g mask="url(#mask0_424_3802)">
<path d="M1011.5 160L961 108.5H937.5L931 160H1011.5Z" fill="#F6F7F2"/>
<path d="M1012.5 161L960.5 108L989 84L1012.5 161Z" fill="#EAEDD6"/>
<path d="M1012.5 160.5L991 91L1030 85.5L1012.5 160.5Z" fill="#D2EA97"/>
<path d="M1012.5 160L1028.5 92L1062.5 106.5L1012.5 160Z" fill="#C0E36A"/>
</g>
<path d="M993.5 100.5L1007.41 156.6C1007.75 158.01 1009.02 159 1010.47 159C1012.67 159 1014.2 156.813 1013.44 154.75L993.5 100.5Z" fill="#77A701"/>
</g>
<defs>
<linearGradient id="paint0_linear_424_3802" x1="367" y1="241" x2="367" y2="242" gradientUnits="userSpaceOnUse">
<stop stop-color="#AEDC3D"/>
<stop offset="1" stop-color="#E4F0C5" stop-opacity="0"/>
</linearGradient>
<linearGradient id="paint1_linear_424_3802" x1="457" y1="240" x2="457" y2="451" gradientUnits="userSpaceOnUse">
<stop stop-color="#AEDC3D"/>
<stop offset="1" stop-color="#E4F0C5" stop-opacity="0"/>
</linearGradient>
<linearGradient id="paint2_linear_424_3802" x1="482.5" y1="2" x2="482.5" y2="240" gradientUnits="userSpaceOnUse">
<stop stop-color="#E4F0C5" stop-opacity="0"/>
<stop offset="1" stop-color="#AEDC3D"/>
</linearGradient>
<linearGradient id="paint3_linear_424_3802" x1="482.5" y1="580" x2="482.5" y2="240" gradientUnits="userSpaceOnUse">
<stop stop-color="#E4F0C5" stop-opacity="0"/>
<stop offset="1" stop-color="#AEDC3D"/>
</linearGradient>
<linearGradient id="paint4_linear_424_3802" x1="838.5" y1="115" x2="838.5" y2="241" gradientUnits="userSpaceOnUse">
<stop stop-color="#E4F0C5" stop-opacity="0"/>
<stop offset="1" stop-color="#AEDC3D"/>
</linearGradient>
<linearGradient id="paint5_linear_424_3802" x1="919.75" y1="241" x2="919.75" y2="434" gradientUnits="userSpaceOnUse">
<stop stop-color="#AEDC3D"/>
<stop offset="1" stop-color="#E4F0C5" stop-opacity="0"/>
</linearGradient>
<linearGradient id="paint6_linear_424_3802" x1="1033.5" y1="241" x2="1033.5" y2="242" gradientUnits="userSpaceOnUse">
<stop stop-color="#AEDC3D"/>
<stop offset="1" stop-color="#E4F0C5" stop-opacity="0"/>
</linearGradient>
<clipPath id="clip0_424_3802">
<rect width="1347" height="481" rx="3" fill="white"/>
</clipPath>
</defs>
</svg>
