<svg width="660" height="584" viewBox="0 0 660 584" fill="none" xmlns="http://www.w3.org/2000/svg">
<rect width="660" height="584" rx="3" fill="#F1F3E4"/>
<rect x="255.229" y="45" width="166" height="32" rx="4" fill="#004D26"/>
<path d="M272.603 57.324V66H271.427V57.324H272.603ZM275.646 66H274.518V60.132H275.538L275.658 61.032C276.03 60.36 276.774 59.964 277.602 59.964C279.15 59.964 279.858 60.912 279.858 62.412V66H278.73V62.664C278.73 61.476 278.178 60.996 277.314 60.996C276.258 60.996 275.646 61.752 275.646 62.892V66ZM283.031 66L280.667 60.132H281.867L283.151 63.408C283.355 63.96 283.523 64.452 283.619 64.812C283.715 64.428 283.907 63.924 284.111 63.408L285.419 60.132H286.595L284.147 66H283.031ZM286.923 63.06C286.923 61.248 288.219 59.976 289.983 59.976C291.735 59.976 293.031 61.248 293.031 63.06C293.031 64.872 291.735 66.144 289.983 66.144C288.219 66.144 286.923 64.872 286.923 63.06ZM288.063 63.06C288.063 64.284 288.843 65.136 289.983 65.136C291.111 65.136 291.903 64.284 291.903 63.06C291.903 61.836 291.111 60.984 289.983 60.984C288.843 60.984 288.063 61.836 288.063 63.06ZM294.916 58.74C294.508 58.74 294.172 58.404 294.172 57.996C294.172 57.576 294.508 57.252 294.916 57.252C295.324 57.252 295.66 57.576 295.66 57.996C295.66 58.404 295.324 58.74 294.916 58.74ZM294.364 66V60.132H295.492V66H294.364ZM296.829 63.072C296.829 61.236 297.993 59.964 299.709 59.964C301.185 59.964 302.217 60.804 302.421 62.112H301.293C301.101 61.368 300.501 60.972 299.745 60.972C298.677 60.972 297.945 61.788 297.945 63.06C297.945 64.32 298.629 65.136 299.697 65.136C300.501 65.136 301.101 64.716 301.305 64.02H302.433C302.205 65.292 301.113 66.144 299.697 66.144C297.969 66.144 296.829 64.92 296.829 63.072ZM306.24 66.144C304.512 66.144 303.324 64.896 303.324 63.072C303.324 61.236 304.488 59.964 306.192 59.964C307.86 59.964 308.952 61.116 308.952 62.856V63.276L304.416 63.288C304.5 64.524 305.148 65.208 306.264 65.208C307.14 65.208 307.716 64.848 307.908 64.176H308.964C308.676 65.436 307.692 66.144 306.24 66.144ZM306.192 60.912C305.208 60.912 304.584 61.5 304.44 62.532H307.824C307.824 61.56 307.188 60.912 306.192 60.912ZM343.17 66H342.042V61.08H340.89V60.132H342.042V58.296H343.17V60.132H344.322V61.08H343.17V66ZM344.976 63.06C344.976 61.248 346.272 59.976 348.036 59.976C349.788 59.976 351.084 61.248 351.084 63.06C351.084 64.872 349.788 66.144 348.036 66.144C346.272 66.144 344.976 64.872 344.976 63.06ZM346.116 63.06C346.116 64.284 346.896 65.136 348.036 65.136C349.164 65.136 349.956 64.284 349.956 63.06C349.956 61.836 349.164 60.984 348.036 60.984C346.896 60.984 346.116 61.836 346.116 63.06ZM355.398 63.072C355.398 61.236 356.562 59.964 358.278 59.964C359.754 59.964 360.786 60.804 360.99 62.112H359.862C359.67 61.368 359.07 60.972 358.314 60.972C357.246 60.972 356.514 61.788 356.514 63.06C356.514 64.32 357.198 65.136 358.266 65.136C359.07 65.136 359.67 64.716 359.874 64.02H361.002C360.774 65.292 359.682 66.144 358.266 66.144C356.538 66.144 355.398 64.92 355.398 63.072ZM366.332 60.132H367.448V66H366.44L366.32 65.112C365.984 65.724 365.204 66.144 364.34 66.144C362.972 66.144 362.204 65.22 362.204 63.78V60.132H363.332V63.408C363.332 64.668 363.872 65.148 364.736 65.148C365.768 65.148 366.332 64.488 366.332 63.228V60.132ZM368.571 64.296H369.651C369.651 64.896 370.107 65.256 370.851 65.256C371.643 65.256 372.099 64.932 372.099 64.392C372.099 63.996 371.907 63.756 371.295 63.6L370.263 63.36C369.219 63.108 368.727 62.592 368.727 61.728C368.727 60.648 369.639 59.964 370.935 59.964C372.219 59.964 373.059 60.684 373.083 61.8H372.003C371.979 61.212 371.583 60.84 370.899 60.84C370.191 60.84 369.795 61.152 369.795 61.692C369.795 62.088 370.083 62.352 370.659 62.496L371.691 62.748C372.687 62.988 373.179 63.444 373.179 64.32C373.179 65.436 372.219 66.144 370.827 66.144C369.447 66.144 368.571 65.412 368.571 64.296ZM376.17 66H375.042V61.08H373.89V60.132H375.042V58.296H376.17V60.132H377.322V61.08H376.17V66ZM377.976 63.06C377.976 61.248 379.272 59.976 381.036 59.976C382.788 59.976 384.084 61.248 384.084 63.06C384.084 64.872 382.788 66.144 381.036 66.144C379.272 66.144 377.976 64.872 377.976 63.06ZM379.116 63.06C379.116 64.284 379.896 65.136 381.036 65.136C382.164 65.136 382.956 64.284 382.956 63.06C382.956 61.836 382.164 60.984 381.036 60.984C379.896 60.984 379.116 61.836 379.116 63.06ZM386.545 66H385.417V60.132H386.425L386.533 60.9C386.833 60.348 387.457 59.964 388.285 59.964C389.197 59.964 389.845 60.42 390.145 61.152C390.421 60.42 391.129 59.964 392.041 59.964C393.385 59.964 394.201 60.804 394.201 62.16V66H393.097V62.436C393.097 61.512 392.581 60.984 391.789 60.984C390.937 60.984 390.373 61.584 390.373 62.52V66H389.257V62.424C389.257 61.5 388.753 60.996 387.961 60.996C387.109 60.996 386.545 61.584 386.545 62.52V66ZM398.38 66.144C396.652 66.144 395.464 64.896 395.464 63.072C395.464 61.236 396.628 59.964 398.332 59.964C400 59.964 401.092 61.116 401.092 62.856V63.276L396.556 63.288C396.64 64.524 397.288 65.208 398.404 65.208C399.28 65.208 399.856 64.848 400.048 64.176H401.104C400.816 65.436 399.832 66.144 398.38 66.144ZM398.332 60.912C397.348 60.912 396.724 61.5 396.58 62.532H399.964C399.964 61.56 399.328 60.912 398.332 60.912ZM405.796 60.084V61.116H405.292C404.224 61.116 403.564 61.764 403.564 62.892V66H402.436V60.144H403.492L403.564 61.032C403.804 60.42 404.392 60.012 405.196 60.012C405.4 60.012 405.568 60.036 405.796 60.084Z" fill="#F6F7F2"/>
<path d="M313.349 59.664C313.349 58.176 314.549 57.168 316.337 57.168C317.993 57.168 319.061 58.092 319.157 59.592H317.969C317.909 58.728 317.297 58.224 316.325 58.224C315.233 58.224 314.525 58.776 314.525 59.628C314.525 60.324 314.921 60.744 315.737 60.936L317.165 61.272C318.581 61.596 319.301 62.364 319.301 63.588C319.301 65.148 318.089 66.144 316.241 66.144C314.477 66.144 313.301 65.22 313.229 63.732H314.429C314.453 64.56 315.149 65.088 316.241 65.088C317.393 65.088 318.125 64.548 318.125 63.684C318.125 63 317.753 62.568 316.925 62.376L315.497 62.052C314.081 61.728 313.349 60.912 313.349 59.664ZM323.202 66.144C321.474 66.144 320.286 64.896 320.286 63.072C320.286 61.236 321.45 59.964 323.154 59.964C324.822 59.964 325.914 61.116 325.914 62.856V63.276L321.378 63.288C321.462 64.524 322.11 65.208 323.226 65.208C324.102 65.208 324.678 64.848 324.87 64.176H325.926C325.638 65.436 324.654 66.144 323.202 66.144ZM323.154 60.912C322.17 60.912 321.546 61.5 321.402 62.532H324.786C324.786 61.56 324.15 60.912 323.154 60.912ZM328.386 66H327.258V60.132H328.278L328.398 61.032C328.77 60.36 329.514 59.964 330.342 59.964C331.89 59.964 332.598 60.912 332.598 62.412V66H331.47V62.664C331.47 61.476 330.918 60.996 330.054 60.996C328.998 60.996 328.386 61.752 328.386 62.892V66ZM335.901 66H334.773V61.08H333.621V60.132H334.773V58.296H335.901V60.132H337.053V61.08H335.901V66Z" fill="#96D300"/>
<path d="M338 77.8398V524.156" stroke="url(#paint0_linear_424_3509)" stroke-width="2" stroke-linecap="round" stroke-dasharray="9 9"/>
<rect x="105" y="97.8398" width="192" height="50" rx="3" fill="#D2EA97"/>
<path d="M123.286 129.09C122.958 129.09 122.676 128.971 122.439 128.735C122.202 128.498 122.084 128.216 122.084 127.888V117.792C122.084 117.464 122.202 117.181 122.439 116.945C122.676 116.708 122.958 116.59 123.286 116.59H136.715C137.043 116.59 137.326 116.708 137.562 116.945C137.799 117.181 137.917 117.464 137.917 117.792V127.888C137.917 128.216 137.799 128.498 137.562 128.735C137.326 128.971 137.043 129.09 136.715 129.09H123.286ZM130.001 122.966L136.972 118.353L136.844 117.535L130.001 121.973L123.158 117.535L123.029 118.353L130.001 122.966Z" fill="#5F8502"/>
<rect x="147" y="119.34" width="67" height="7" rx="3.5" fill="#AEDC3D"/>
<rect x="411" y="113" width="153" height="32" rx="16" fill="#AEDC3D"/>
<rect x="466" y="125.5" width="83" height="7" rx="3.5" fill="#D2EA97"/>
<path d="M549 156V145H538L549 156Z" fill="#AEDC3D"/>
<rect x="499" y="295" width="53" height="32" rx="16" fill="#AEDC3D"/>
<rect x="514.5" y="307.5" width="22" height="7" rx="3.5" fill="#D2EA97"/>
<path d="M537 337.84V326.84H526L537 337.84Z" fill="#AEDC3D"/>
<rect x="399" y="345" width="153" height="32" rx="16" fill="#AEDC3D"/>
<rect x="449" y="357.5" width="88" height="7" rx="3.5" fill="#D2EA97"/>
<path d="M537 388V377H526L537 388Z" fill="#AEDC3D"/>
<rect x="137" y="437" width="176" height="32" rx="16" fill="#D2EA97"/>
<rect x="152" y="449.5" width="127" height="7" rx="3.5" fill="#AEDC3D"/>
<path d="M152 480V469H167.601L152 480Z" fill="#D2EA97"/>
<rect x="82" y="306" width="238" height="50" rx="25" fill="#D2EA97"/>
<rect x="112" y="320.5" width="67" height="7" rx="3.5" fill="#AEDC3D"/>
<rect x="112" y="334.5" width="154" height="7" rx="3.5" fill="#AEDC3D"/>
<path d="M110 367V356H126.105L110 367Z" fill="#D2EA97"/>
<rect x="315.5" y="170.5" width="255.809" height="31" rx="15.5" fill="#F1F3E4"/>
<path d="M334.677 180.543C334.753 180.405 334.952 180.405 335.028 180.543L336.54 183.308C336.558 183.342 336.586 183.369 336.62 183.388L339.384 184.9C339.523 184.976 339.523 185.175 339.384 185.251L336.62 186.763C336.586 186.781 336.558 186.809 336.54 186.842L335.028 189.607C334.952 189.746 334.753 189.746 334.677 189.607L333.165 186.842C333.147 186.809 333.119 186.781 333.086 186.763L330.321 185.251C330.182 185.175 330.182 184.976 330.321 184.9L333.086 183.388C333.119 183.369 333.147 183.342 333.165 183.308L334.677 180.543Z" fill="#002211"/>
<path d="M338.506 178.898C338.488 178.816 338.567 178.746 338.646 178.774L340.22 179.339C340.239 179.346 340.259 179.347 340.279 179.342L341.909 178.969C341.991 178.95 342.061 179.029 342.033 179.108L341.468 180.682C341.461 180.701 341.46 180.722 341.465 180.741L341.838 182.371C341.857 182.453 341.778 182.523 341.699 182.495L340.125 181.93C340.106 181.923 340.085 181.922 340.065 181.927L338.436 182.301C338.354 182.319 338.284 182.24 338.312 182.161L338.877 180.587C338.883 180.568 338.885 180.547 338.88 180.528L338.506 178.898Z" fill="#002211"/>
<path d="M358.417 191.132C355.945 191.132 354.301 189.356 354.301 186.668C354.301 183.992 355.993 182.18 358.477 182.18C360.433 182.18 361.933 183.344 362.257 185.12H360.997C360.673 183.992 359.701 183.308 358.441 183.308C356.689 183.308 355.537 184.628 355.537 186.656C355.537 188.684 356.689 190.004 358.441 190.004C359.713 190.004 360.721 189.32 361.045 188.252H362.293C361.921 189.98 360.373 191.132 358.417 191.132ZM367.683 185.132H368.799V191H367.791L367.671 190.112C367.335 190.724 366.555 191.144 365.691 191.144C364.323 191.144 363.555 190.22 363.555 188.78V185.132H364.683V188.408C364.683 189.668 365.223 190.148 366.087 190.148C367.119 190.148 367.683 189.488 367.683 188.228V185.132ZM369.922 189.296H371.002C371.002 189.896 371.458 190.256 372.202 190.256C372.994 190.256 373.45 189.932 373.45 189.392C373.45 188.996 373.258 188.756 372.646 188.6L371.614 188.36C370.57 188.108 370.078 187.592 370.078 186.728C370.078 185.648 370.99 184.964 372.286 184.964C373.57 184.964 374.41 185.684 374.434 186.8H373.354C373.33 186.212 372.934 185.84 372.25 185.84C371.542 185.84 371.146 186.152 371.146 186.692C371.146 187.088 371.434 187.352 372.01 187.496L373.042 187.748C374.038 187.988 374.53 188.444 374.53 189.32C374.53 190.436 373.57 191.144 372.178 191.144C370.798 191.144 369.922 190.412 369.922 189.296ZM377.521 191H376.393V186.08H375.241V185.132H376.393V183.296H377.521V185.132H378.673V186.08H377.521V191ZM379.327 188.06C379.327 186.248 380.623 184.976 382.387 184.976C384.139 184.976 385.435 186.248 385.435 188.06C385.435 189.872 384.139 191.144 382.387 191.144C380.623 191.144 379.327 189.872 379.327 188.06ZM380.467 188.06C380.467 189.284 381.247 190.136 382.387 190.136C383.515 190.136 384.307 189.284 384.307 188.06C384.307 186.836 383.515 185.984 382.387 185.984C381.247 185.984 380.467 186.836 380.467 188.06ZM387.895 191H386.767V185.132H387.775L387.883 185.9C388.183 185.348 388.807 184.964 389.635 184.964C390.547 184.964 391.195 185.42 391.495 186.152C391.771 185.42 392.479 184.964 393.391 184.964C394.735 184.964 395.551 185.804 395.551 187.16V191H394.447V187.436C394.447 186.512 393.931 185.984 393.139 185.984C392.287 185.984 391.723 186.584 391.723 187.52V191H390.607V187.424C390.607 186.5 390.103 185.996 389.311 185.996C388.459 185.996 387.895 186.584 387.895 187.52V191ZM399.731 191.144C398.003 191.144 396.815 189.896 396.815 188.072C396.815 186.236 397.979 184.964 399.683 184.964C401.351 184.964 402.443 186.116 402.443 187.856V188.276L397.907 188.288C397.991 189.524 398.639 190.208 399.755 190.208C400.631 190.208 401.207 189.848 401.399 189.176H402.455C402.167 190.436 401.183 191.144 399.731 191.144ZM399.683 185.912C398.699 185.912 398.075 186.5 397.931 187.532H401.315C401.315 186.56 400.679 185.912 399.683 185.912ZM407.147 185.084V186.116H406.643C405.575 186.116 404.915 186.764 404.915 187.892V191H403.787V185.144H404.843L404.915 186.032C405.155 185.42 405.743 185.012 406.547 185.012C406.751 185.012 406.919 185.036 407.147 185.084ZM415.014 185.084V186.116H414.51C413.442 186.116 412.782 186.764 412.782 187.892V191H411.654V185.144H412.71L412.782 186.032C413.022 185.42 413.61 185.012 414.414 185.012C414.618 185.012 414.786 185.036 415.014 185.084ZM417.638 191.144C416.378 191.144 415.634 190.436 415.634 189.368C415.634 188.288 416.438 187.616 417.818 187.508L419.666 187.364V187.196C419.666 186.212 419.078 185.864 418.286 185.864C417.338 185.864 416.798 186.284 416.798 186.992H415.814C415.814 185.768 416.822 184.964 418.334 184.964C419.786 184.964 420.77 185.732 420.77 187.316V191H419.81L419.69 190.052C419.39 190.724 418.586 191.144 417.638 191.144ZM417.962 190.268C419.03 190.268 419.678 189.572 419.678 188.468V188.156L418.178 188.276C417.182 188.372 416.774 188.756 416.774 189.332C416.774 189.956 417.23 190.268 417.962 190.268ZM422.968 183.74C422.56 183.74 422.224 183.404 422.224 182.996C422.224 182.576 422.56 182.252 422.968 182.252C423.376 182.252 423.712 182.576 423.712 182.996C423.712 183.404 423.376 183.74 422.968 183.74ZM422.416 191V185.132H423.544V191H422.416ZM424.785 189.296H425.865C425.865 189.896 426.321 190.256 427.065 190.256C427.857 190.256 428.313 189.932 428.313 189.392C428.313 188.996 428.121 188.756 427.509 188.6L426.477 188.36C425.433 188.108 424.941 187.592 424.941 186.728C424.941 185.648 425.853 184.964 427.149 184.964C428.433 184.964 429.273 185.684 429.297 186.8H428.217C428.193 186.212 427.797 185.84 427.113 185.84C426.405 185.84 426.009 186.152 426.009 186.692C426.009 187.088 426.297 187.352 426.873 187.496L427.905 187.748C428.901 187.988 429.393 188.444 429.393 189.32C429.393 190.436 428.433 191.144 427.041 191.144C425.661 191.144 424.785 190.412 424.785 189.296ZM433.26 191.144C431.532 191.144 430.344 189.896 430.344 188.072C430.344 186.236 431.508 184.964 433.212 184.964C434.88 184.964 435.972 186.116 435.972 187.856V188.276L431.436 188.288C431.52 189.524 432.168 190.208 433.284 190.208C434.16 190.208 434.736 189.848 434.928 189.176H435.984C435.696 190.436 434.712 191.144 433.26 191.144ZM433.212 185.912C432.228 185.912 431.604 186.5 431.46 187.532H434.844C434.844 186.56 434.208 185.912 433.212 185.912ZM439.668 191.144C437.964 191.144 436.932 189.872 436.932 188.084C436.932 186.284 437.976 184.964 439.716 184.964C440.616 184.964 441.372 185.36 441.768 186.08V182.168H442.884V191H441.876L441.78 189.932C441.396 190.736 440.604 191.144 439.668 191.144ZM439.896 190.124C441.048 190.124 441.756 189.272 441.756 188.048C441.756 186.848 441.048 185.984 439.896 185.984C438.744 185.984 438.072 186.848 438.072 188.048C438.072 189.26 438.744 190.124 439.896 190.124ZM450.313 191.144C448.609 191.144 447.577 189.872 447.577 188.084C447.577 186.284 448.621 184.964 450.361 184.964C451.261 184.964 452.017 185.36 452.413 186.08V182.168H453.529V191H452.521L452.425 189.932C452.041 190.736 451.249 191.144 450.313 191.144ZM450.541 190.124C451.693 190.124 452.401 189.272 452.401 188.048C452.401 186.848 451.693 185.984 450.541 185.984C449.389 185.984 448.717 186.848 448.717 188.048C448.717 189.26 449.389 190.124 450.541 190.124ZM455.792 183.74C455.384 183.74 455.048 183.404 455.048 182.996C455.048 182.576 455.384 182.252 455.792 182.252C456.2 182.252 456.536 182.576 456.536 182.996C456.536 183.404 456.2 183.74 455.792 183.74ZM455.24 191V185.132H456.368V191H455.24ZM457.61 189.296H458.69C458.69 189.896 459.146 190.256 459.89 190.256C460.682 190.256 461.138 189.932 461.138 189.392C461.138 188.996 460.946 188.756 460.334 188.6L459.302 188.36C458.258 188.108 457.766 187.592 457.766 186.728C457.766 185.648 458.678 184.964 459.974 184.964C461.258 184.964 462.098 185.684 462.122 186.8H461.042C461.018 186.212 460.622 185.84 459.938 185.84C459.23 185.84 458.834 186.152 458.834 186.692C458.834 187.088 459.122 187.352 459.698 187.496L460.73 187.748C461.726 187.988 462.218 188.444 462.218 189.32C462.218 190.436 461.258 191.144 459.866 191.144C458.486 191.144 457.61 190.412 457.61 189.296ZM463.553 193.628V185.132H464.573L464.657 186.188C465.053 185.384 465.845 184.964 466.781 184.964C468.461 184.964 469.505 186.224 469.505 188.024C469.505 189.812 468.521 191.156 466.781 191.156C465.845 191.156 465.065 190.76 464.681 190.04V193.628H463.553ZM464.693 188.072C464.693 189.272 465.389 190.136 466.541 190.136C467.693 190.136 468.377 189.272 468.377 188.072C468.377 186.86 467.693 185.996 466.541 185.996C465.389 185.996 464.693 186.848 464.693 188.072ZM474.747 185.132H475.863V191H474.855L474.735 190.112C474.399 190.724 473.619 191.144 472.755 191.144C471.387 191.144 470.619 190.22 470.619 188.78V185.132H471.747V188.408C471.747 189.668 472.287 190.148 473.151 190.148C474.183 190.148 474.747 189.488 474.747 188.228V185.132ZM479.24 191H478.112V186.08H476.96V185.132H478.112V183.296H479.24V185.132H480.392V186.08H479.24V191ZM483.962 191.144C482.234 191.144 481.046 189.896 481.046 188.072C481.046 186.236 482.21 184.964 483.914 184.964C485.582 184.964 486.674 186.116 486.674 187.856V188.276L482.138 188.288C482.222 189.524 482.87 190.208 483.986 190.208C484.862 190.208 485.438 189.848 485.63 189.176H486.686C486.398 190.436 485.414 191.144 483.962 191.144ZM483.914 185.912C482.93 185.912 482.306 186.5 482.162 187.532H485.546C485.546 186.56 484.91 185.912 483.914 185.912ZM490.999 188.06C490.999 186.248 492.295 184.976 494.059 184.976C495.811 184.976 497.107 186.248 497.107 188.06C497.107 189.872 495.811 191.144 494.059 191.144C492.295 191.144 490.999 189.872 490.999 188.06ZM492.139 188.06C492.139 189.284 492.919 190.136 494.059 190.136C495.187 190.136 495.979 189.284 495.979 188.06C495.979 186.836 495.187 185.984 494.059 185.984C492.919 185.984 492.139 186.836 492.139 188.06ZM499.814 191L497.45 185.132H498.65L499.934 188.408C500.138 188.96 500.306 189.452 500.402 189.812C500.498 189.428 500.69 188.924 500.894 188.408L502.202 185.132H503.378L500.93 191H499.814ZM506.622 191.144C504.894 191.144 503.706 189.896 503.706 188.072C503.706 186.236 504.87 184.964 506.574 184.964C508.242 184.964 509.334 186.116 509.334 187.856V188.276L504.798 188.288C504.882 189.524 505.53 190.208 506.646 190.208C507.522 190.208 508.098 189.848 508.29 189.176H509.346C509.058 190.436 508.074 191.144 506.622 191.144ZM506.574 185.912C505.59 185.912 504.966 186.5 504.822 187.532H508.206C508.206 186.56 507.57 185.912 506.574 185.912ZM514.038 185.084V186.116H513.534C512.466 186.116 511.806 186.764 511.806 187.892V191H510.678V185.144H511.734L511.806 186.032C512.046 185.42 512.634 185.012 513.438 185.012C513.642 185.012 513.81 185.036 514.038 185.084ZM518.545 193.628V185.132H519.565L519.649 186.188C520.045 185.384 520.837 184.964 521.773 184.964C523.453 184.964 524.497 186.224 524.497 188.024C524.497 189.812 523.513 191.156 521.773 191.156C520.837 191.156 520.057 190.76 519.673 190.04V193.628H518.545ZM519.685 188.072C519.685 189.272 520.381 190.136 521.533 190.136C522.685 190.136 523.369 189.272 523.369 188.072C523.369 186.86 522.685 185.996 521.533 185.996C520.381 185.996 519.685 186.848 519.685 188.072ZM529.184 185.084V186.116H528.68C527.612 186.116 526.952 186.764 526.952 187.892V191H525.824V185.144H526.88L526.952 186.032C527.192 185.42 527.78 185.012 528.584 185.012C528.788 185.012 528.956 185.036 529.184 185.084ZM530.878 183.74C530.47 183.74 530.134 183.404 530.134 182.996C530.134 182.576 530.47 182.252 530.878 182.252C531.286 182.252 531.622 182.576 531.622 182.996C531.622 183.404 531.286 183.74 530.878 183.74ZM530.326 191V185.132H531.454V191H530.326ZM532.792 188.072C532.792 186.236 533.956 184.964 535.672 184.964C537.148 184.964 538.18 185.804 538.384 187.112H537.256C537.064 186.368 536.464 185.972 535.708 185.972C534.64 185.972 533.908 186.788 533.908 188.06C533.908 189.32 534.592 190.136 535.66 190.136C536.464 190.136 537.064 189.716 537.268 189.02H538.396C538.168 190.292 537.076 191.144 535.66 191.144C533.932 191.144 532.792 189.92 532.792 188.072ZM540.222 183.74C539.814 183.74 539.478 183.404 539.478 182.996C539.478 182.576 539.814 182.252 540.222 182.252C540.63 182.252 540.966 182.576 540.966 182.996C540.966 183.404 540.63 183.74 540.222 183.74ZM539.67 191V185.132H540.798V191H539.67ZM543.648 191H542.52V185.132H543.54L543.66 186.032C544.032 185.36 544.776 184.964 545.604 184.964C547.152 184.964 547.86 185.912 547.86 187.412V191H546.732V187.664C546.732 186.476 546.18 185.996 545.316 185.996C544.26 185.996 543.648 186.752 543.648 187.892V191ZM549.134 187.916C549.134 186.26 550.202 184.964 551.906 184.964C552.854 184.964 553.586 185.396 553.958 186.128L554.042 185.132H555.05V190.76C555.05 192.608 553.91 193.784 552.11 193.784C550.514 193.784 549.422 192.884 549.206 191.396H550.334C550.478 192.26 551.126 192.764 552.11 192.764C553.214 192.764 553.934 192.044 553.934 190.928V189.752C553.55 190.436 552.782 190.844 551.858 190.844C550.19 190.844 549.134 189.56 549.134 187.916ZM550.262 187.892C550.262 188.996 550.946 189.86 552.05 189.86C553.19 189.86 553.886 189.044 553.886 187.892C553.886 186.764 553.214 185.948 552.062 185.948C550.934 185.948 550.262 186.812 550.262 187.892Z" fill="#002211"/>
<rect x="315.5" y="170.5" width="255.809" height="31" rx="15.5" stroke="#002211"/>
<rect x="110.5" y="263.5" width="251" height="31" rx="15.5" fill="#F1F3E4"/>
<path d="M127.773 276.079C127.849 275.94 128.048 275.94 128.124 276.079L129.636 278.843C129.654 278.877 129.682 278.905 129.715 278.923L132.48 280.435C132.619 280.511 132.619 280.71 132.48 280.786L129.715 282.298C129.682 282.316 129.654 282.344 129.636 282.377L128.124 285.142C128.048 285.281 127.849 285.281 127.773 285.142L126.261 282.377C126.242 282.344 126.215 282.316 126.181 282.298L123.417 280.786C123.278 280.71 123.278 280.511 123.417 280.435L126.181 278.923C126.215 278.905 126.242 278.877 126.261 278.843L127.773 276.079Z" fill="#002211"/>
<path d="M131.602 274.433C131.583 274.351 131.662 274.281 131.741 274.309L133.315 274.874C133.334 274.881 133.355 274.882 133.375 274.878L135.005 274.504C135.087 274.485 135.157 274.564 135.128 274.643L134.564 276.217C134.557 276.236 134.556 276.257 134.56 276.277L134.934 277.906C134.953 277.988 134.874 278.058 134.795 278.03L133.221 277.465C133.202 277.459 133.181 277.457 133.161 277.462L131.531 277.836C131.45 277.854 131.379 277.775 131.408 277.696L131.972 276.122C131.979 276.103 131.98 276.083 131.976 276.063L131.602 274.433Z" fill="#002211"/>
<path d="M147.408 277.664C147.408 278.912 148.14 279.728 149.556 280.052L150.984 280.376C151.812 280.568 152.184 281 152.184 281.684C152.184 282.548 151.452 283.088 150.3 283.088C149.208 283.088 148.512 282.56 148.488 281.732H147.288C147.36 283.22 148.536 284.144 150.3 284.144C152.148 284.144 153.36 283.148 153.36 281.588C153.36 280.364 152.64 279.596 151.224 279.272L149.796 278.936C148.98 278.744 148.584 278.324 148.584 277.628C148.584 276.776 149.292 276.224 150.384 276.224C151.356 276.224 151.968 276.728 152.028 277.592H153.216C153.12 276.092 152.052 275.168 150.396 275.168C148.608 275.168 147.408 276.176 147.408 277.664ZM156.446 284.144C157.394 284.144 158.198 283.724 158.498 283.052L158.618 284H159.578V280.316C159.578 278.732 158.594 277.964 157.142 277.964C155.63 277.964 154.622 278.768 154.622 279.992H155.606C155.606 279.284 156.146 278.864 157.094 278.864C157.886 278.864 158.474 279.212 158.474 280.196V280.364L156.626 280.508C155.246 280.616 154.442 281.288 154.442 282.368C154.442 283.436 155.186 284.144 156.446 284.144ZM156.77 283.268C156.038 283.268 155.582 282.956 155.582 282.332C155.582 281.756 155.99 281.372 156.986 281.276L158.486 281.156V281.468C158.486 282.572 157.838 283.268 156.77 283.268ZM162.376 284V275.168H161.248V284H162.376ZM166.653 284.144C168.105 284.144 169.089 283.436 169.377 282.176H168.321C168.129 282.848 167.553 283.208 166.677 283.208C165.561 283.208 164.913 282.524 164.829 281.288L169.365 281.276V280.856C169.365 279.116 168.273 277.964 166.605 277.964C164.901 277.964 163.737 279.236 163.737 281.072C163.737 282.896 164.925 284.144 166.653 284.144ZM166.605 278.912C167.601 278.912 168.237 279.56 168.237 280.532H164.853C164.997 279.5 165.621 278.912 166.605 278.912ZM170.229 282.296C170.229 283.412 171.105 284.144 172.485 284.144C173.877 284.144 174.837 283.436 174.837 282.32C174.837 281.444 174.345 280.988 173.349 280.748L172.317 280.496C171.741 280.352 171.453 280.088 171.453 279.692C171.453 279.152 171.849 278.84 172.557 278.84C173.241 278.84 173.637 279.212 173.661 279.8H174.741C174.717 278.684 173.877 277.964 172.593 277.964C171.297 277.964 170.385 278.648 170.385 279.728C170.385 280.592 170.877 281.108 171.921 281.36L172.953 281.6C173.565 281.756 173.757 281.996 173.757 282.392C173.757 282.932 173.301 283.256 172.509 283.256C171.765 283.256 171.309 282.896 171.309 282.296H170.229ZM181.193 284V279.08H182.345V278.132H181.193V276.296H180.065V278.132H178.913V279.08H180.065V284H181.193ZM185.915 284.144C187.367 284.144 188.351 283.436 188.639 282.176H187.583C187.391 282.848 186.815 283.208 185.939 283.208C184.823 283.208 184.175 282.524 184.091 281.288L188.627 281.276V280.856C188.627 279.116 187.535 277.964 185.867 277.964C184.163 277.964 182.999 279.236 182.999 281.072C182.999 282.896 184.187 284.144 185.915 284.144ZM185.867 278.912C186.863 278.912 187.499 279.56 187.499 280.532H184.115C184.259 279.5 184.883 278.912 185.867 278.912ZM191.628 284.144C192.576 284.144 193.38 283.724 193.68 283.052L193.8 284H194.76V280.316C194.76 278.732 193.776 277.964 192.324 277.964C190.812 277.964 189.804 278.768 189.804 279.992H190.788C190.788 279.284 191.328 278.864 192.276 278.864C193.068 278.864 193.656 279.212 193.656 280.196V280.364L191.808 280.508C190.428 280.616 189.624 281.288 189.624 282.368C189.624 283.436 190.368 284.144 191.628 284.144ZM191.952 283.268C191.22 283.268 190.764 282.956 190.764 282.332C190.764 281.756 191.172 281.372 192.168 281.276L193.668 281.156V281.468C193.668 282.572 193.02 283.268 191.952 283.268ZM197.534 284V280.52C197.534 279.584 198.098 278.996 198.95 278.996C199.742 278.996 200.246 279.5 200.246 280.424V284H201.362V280.52C201.362 279.584 201.926 278.984 202.778 278.984C203.57 278.984 204.086 279.512 204.086 280.436V284H205.19V280.16C205.19 278.804 204.374 277.964 203.03 277.964C202.118 277.964 201.41 278.42 201.134 279.152C200.834 278.42 200.186 277.964 199.274 277.964C198.446 277.964 197.822 278.348 197.522 278.9L197.414 278.132H196.406V284H197.534ZM211.859 284V279.08H213.011V278.132H211.859V276.296H210.731V278.132H209.579V279.08H210.731V284H211.859ZM215.753 284.144C216.701 284.144 217.505 283.724 217.805 283.052L217.925 284H218.885V280.316C218.885 278.732 217.901 277.964 216.449 277.964C214.937 277.964 213.929 278.768 213.929 279.992H214.913C214.913 279.284 215.453 278.864 216.401 278.864C217.193 278.864 217.781 279.212 217.781 280.196V280.364L215.933 280.508C214.553 280.616 213.749 281.288 213.749 282.368C213.749 283.436 214.493 284.144 215.753 284.144ZM216.077 283.268C215.345 283.268 214.889 282.956 214.889 282.332C214.889 281.756 215.297 281.372 216.293 281.276L217.793 281.156V281.468C217.793 282.572 217.145 283.268 216.077 283.268ZM220.159 280.916C220.159 282.56 221.215 283.844 222.883 283.844C223.807 283.844 224.575 283.436 224.959 282.752V283.928C224.959 285.044 224.239 285.764 223.135 285.764C222.151 285.764 221.503 285.26 221.359 284.396H220.231C220.447 285.884 221.539 286.784 223.135 286.784C224.935 286.784 226.075 285.608 226.075 283.76V278.132H225.067L224.983 279.128C224.611 278.396 223.879 277.964 222.931 277.964C221.227 277.964 220.159 279.26 220.159 280.916ZM221.287 280.892C221.287 279.812 221.959 278.948 223.087 278.948C224.239 278.948 224.911 279.764 224.911 280.892C224.911 282.044 224.215 282.86 223.075 282.86C221.971 282.86 221.287 281.996 221.287 280.892ZM227.415 280.916C227.415 282.56 228.471 283.844 230.139 283.844C231.063 283.844 231.831 283.436 232.215 282.752V283.928C232.215 285.044 231.495 285.764 230.391 285.764C229.407 285.764 228.759 285.26 228.615 284.396H227.487C227.703 285.884 228.795 286.784 230.391 286.784C232.191 286.784 233.331 285.608 233.331 283.76V278.132H232.323L232.239 279.128C231.867 278.396 231.135 277.964 230.187 277.964C228.483 277.964 227.415 279.26 227.415 280.916ZM228.543 280.892C228.543 279.812 229.215 278.948 230.343 278.948C231.495 278.948 232.167 279.764 232.167 280.892C232.167 282.044 231.471 282.86 230.331 282.86C229.227 282.86 228.543 281.996 228.543 280.892ZM237.575 284.144C239.027 284.144 240.011 283.436 240.299 282.176H239.243C239.051 282.848 238.475 283.208 237.599 283.208C236.483 283.208 235.835 282.524 235.751 281.288L240.287 281.276V280.856C240.287 279.116 239.195 277.964 237.527 277.964C235.823 277.964 234.659 279.236 234.659 281.072C234.659 282.896 235.847 284.144 237.575 284.144ZM237.527 278.912C238.523 278.912 239.159 279.56 239.159 280.532H235.775C235.919 279.5 236.543 278.912 237.527 278.912ZM243.983 284.144C244.919 284.144 245.711 283.736 246.095 282.932L246.191 284H247.199V275.168H246.083V279.08C245.687 278.36 244.931 277.964 244.031 277.964C242.291 277.964 241.247 279.284 241.247 281.084C241.247 282.872 242.279 284.144 243.983 284.144ZM244.211 283.124C243.059 283.124 242.387 282.26 242.387 281.048C242.387 279.848 243.059 278.984 244.211 278.984C245.363 278.984 246.071 279.848 246.071 281.048C246.071 282.272 245.363 283.124 244.211 283.124ZM252.827 276.74C253.235 276.74 253.571 276.404 253.571 275.996C253.571 275.576 253.235 275.252 252.827 275.252C252.419 275.252 252.083 275.576 252.083 275.996C252.083 276.404 252.419 276.74 252.827 276.74ZM252.275 284H253.403V278.132H252.275V284ZM256.253 284V280.892C256.253 279.752 256.865 278.996 257.921 278.996C258.785 278.996 259.337 279.476 259.337 280.664V284H260.465V280.412C260.465 278.912 259.757 277.964 258.209 277.964C257.381 277.964 256.637 278.36 256.265 279.032L256.145 278.132H255.125V284H256.253ZM263.767 284V279.08H264.919V278.132H263.767V276.296H262.639V278.132H261.487V279.08H262.639V284H263.767ZM265.573 281.06C265.573 282.872 266.869 284.144 268.633 284.144C270.385 284.144 271.681 282.872 271.681 281.06C271.681 279.248 270.385 277.976 268.633 277.976C266.869 277.976 265.573 279.248 265.573 281.06ZM266.713 281.06C266.713 279.836 267.493 278.984 268.633 278.984C269.761 278.984 270.553 279.836 270.553 281.06C270.553 282.284 269.761 283.136 268.633 283.136C267.493 283.136 266.713 282.284 266.713 281.06ZM280.171 284.132C282.127 284.132 283.675 282.98 284.047 281.252H282.799C282.475 282.32 281.467 283.004 280.195 283.004C278.443 283.004 277.291 281.684 277.291 279.656C277.291 277.628 278.443 276.308 280.195 276.308C281.455 276.308 282.427 276.992 282.751 278.12H284.011C283.687 276.344 282.187 275.18 280.231 275.18C277.747 275.18 276.055 276.992 276.055 279.668C276.055 282.356 277.699 284.132 280.171 284.132ZM284.997 281.06C284.997 282.872 286.293 284.144 288.057 284.144C289.809 284.144 291.105 282.872 291.105 281.06C291.105 279.248 289.809 277.976 288.057 277.976C286.293 277.976 284.997 279.248 284.997 281.06ZM286.137 281.06C286.137 279.836 286.917 278.984 288.057 278.984C289.185 278.984 289.977 279.836 289.977 281.06C289.977 282.284 289.185 283.136 288.057 283.136C286.917 283.136 286.137 282.284 286.137 281.06ZM293.565 284V280.892C293.565 279.752 294.177 278.996 295.233 278.996C296.097 278.996 296.649 279.476 296.649 280.664V284H297.777V280.412C297.777 278.912 297.069 277.964 295.521 277.964C294.693 277.964 293.949 278.36 293.577 279.032L293.457 278.132H292.437V284H293.565ZM300.951 284H302.067L304.515 278.132H303.339L302.031 281.408C301.827 281.924 301.635 282.428 301.539 282.812C301.443 282.452 301.275 281.96 301.071 281.408L299.787 278.132H298.587L300.951 284ZM307.759 284.144C309.211 284.144 310.195 283.436 310.483 282.176H309.427C309.235 282.848 308.659 283.208 307.783 283.208C306.667 283.208 306.019 282.524 305.935 281.288L310.471 281.276V280.856C310.471 279.116 309.379 277.964 307.711 277.964C306.007 277.964 304.843 279.236 304.843 281.072C304.843 282.896 306.031 284.144 307.759 284.144ZM307.711 278.912C308.707 278.912 309.343 279.56 309.343 280.532H305.959C306.103 279.5 306.727 278.912 307.711 278.912ZM315.174 278.084C314.946 278.036 314.778 278.012 314.574 278.012C313.77 278.012 313.182 278.42 312.942 279.032L312.87 278.144H311.814V284H312.942V280.892C312.942 279.764 313.602 279.116 314.67 279.116H315.174V278.084ZM315.836 282.296C315.836 283.412 316.712 284.144 318.092 284.144C319.484 284.144 320.444 283.436 320.444 282.32C320.444 281.444 319.952 280.988 318.956 280.748L317.924 280.496C317.348 280.352 317.06 280.088 317.06 279.692C317.06 279.152 317.456 278.84 318.164 278.84C318.848 278.84 319.244 279.212 319.268 279.8H320.348C320.324 278.684 319.484 277.964 318.2 277.964C316.904 277.964 315.992 278.648 315.992 279.728C315.992 280.592 316.484 281.108 317.528 281.36L318.56 281.6C319.172 281.756 319.364 281.996 319.364 282.392C319.364 282.932 318.908 283.256 318.116 283.256C317.372 283.256 316.916 282.896 316.916 282.296H315.836ZM323.495 284.144C324.443 284.144 325.247 283.724 325.547 283.052L325.667 284H326.627V280.316C326.627 278.732 325.643 277.964 324.191 277.964C322.679 277.964 321.671 278.768 321.671 279.992H322.655C322.655 279.284 323.195 278.864 324.143 278.864C324.935 278.864 325.523 279.212 325.523 280.196V280.364L323.675 280.508C322.295 280.616 321.491 281.288 321.491 282.368C321.491 283.436 322.235 284.144 323.495 284.144ZM323.819 283.268C323.087 283.268 322.631 282.956 322.631 282.332C322.631 281.756 323.039 281.372 324.035 281.276L325.535 281.156V281.468C325.535 282.572 324.887 283.268 323.819 283.268ZM329.836 284V279.08H330.988V278.132H329.836V276.296H328.708V278.132H327.556V279.08H328.708V284H329.836ZM332.636 276.74C333.044 276.74 333.38 276.404 333.38 275.996C333.38 275.576 333.044 275.252 332.636 275.252C332.228 275.252 331.892 275.576 331.892 275.996C331.892 276.404 332.228 276.74 332.636 276.74ZM332.084 284H333.212V278.132H332.084V284ZM334.55 281.06C334.55 282.872 335.846 284.144 337.61 284.144C339.362 284.144 340.658 282.872 340.658 281.06C340.658 279.248 339.362 277.976 337.61 277.976C335.846 277.976 334.55 279.248 334.55 281.06ZM335.69 281.06C335.69 279.836 336.47 278.984 337.61 278.984C338.738 278.984 339.53 279.836 339.53 281.06C339.53 282.284 338.738 283.136 337.61 283.136C336.47 283.136 335.69 282.284 335.69 281.06ZM343.118 284V280.892C343.118 279.752 343.73 278.996 344.786 278.996C345.65 278.996 346.202 279.476 346.202 280.664V284H347.33V280.412C347.33 278.912 346.622 277.964 345.074 277.964C344.246 277.964 343.502 278.36 343.13 279.032L343.01 278.132H341.99V284H343.118Z" fill="#002211"/>
<rect x="110.5" y="263.5" width="251" height="31" rx="15.5" stroke="#002211"/>
<rect x="315.5" y="399.5" width="235.809" height="31" rx="15.5" fill="#F1F3E4"/>
<path d="M334.677 412.079C334.753 411.94 334.952 411.94 335.028 412.079L336.54 414.843C336.558 414.877 336.586 414.905 336.62 414.923L339.384 416.435C339.523 416.511 339.523 416.71 339.384 416.786L336.62 418.298C336.586 418.316 336.558 418.344 336.54 418.377L335.028 421.142C334.952 421.281 334.753 421.281 334.677 421.142L333.165 418.377C333.147 418.344 333.119 418.316 333.086 418.298L330.321 416.786C330.182 416.71 330.182 416.511 330.321 416.435L333.086 414.923C333.119 414.905 333.147 414.877 333.165 414.843L334.677 412.079Z" fill="#002211"/>
<path d="M338.506 410.433C338.488 410.351 338.567 410.281 338.646 410.309L340.22 410.874C340.239 410.881 340.259 410.882 340.279 410.878L341.909 410.504C341.991 410.485 342.061 410.564 342.033 410.643L341.468 412.217C341.461 412.236 341.46 412.257 341.465 412.277L341.838 413.906C341.857 413.988 341.778 414.058 341.699 414.03L340.125 413.465C340.106 413.459 340.085 413.457 340.065 413.462L338.436 413.836C338.354 413.854 338.284 413.775 338.312 413.696L338.877 412.122C338.883 412.103 338.885 412.083 338.88 412.063L338.506 410.433Z" fill="#002211"/>
<path d="M355.993 420V413.292L360.433 420H361.609V411.324H360.433V418.032L355.993 411.324H354.817V420H355.993ZM363.137 417.06C363.137 418.872 364.433 420.144 366.197 420.144C367.949 420.144 369.245 418.872 369.245 417.06C369.245 415.248 367.949 413.976 366.197 413.976C364.433 413.976 363.137 415.248 363.137 417.06ZM364.277 417.06C364.277 415.836 365.057 414.984 366.197 414.984C367.325 414.984 368.117 415.836 368.117 417.06C368.117 418.284 367.325 419.136 366.197 419.136C365.057 419.136 364.277 418.284 364.277 417.06ZM372.175 420V415.08H373.327V414.132H372.175V412.296H371.047V414.132H369.895V415.08H371.047V420H372.175ZM374.975 412.74C375.383 412.74 375.719 412.404 375.719 411.996C375.719 411.576 375.383 411.252 374.975 411.252C374.567 411.252 374.231 411.576 374.231 411.996C374.231 412.404 374.567 412.74 374.975 412.74ZM374.423 420H375.551V414.132H374.423V420ZM381.245 420H382.373V414.132H378.641V413.196C378.641 412.56 378.821 412.188 379.505 412.188H380.009V411.216C379.793 411.18 379.529 411.168 379.313 411.168C378.293 411.168 377.513 411.756 377.513 413.196V414.132H376.649V415.08H377.513V420H378.641V415.08H381.245V420ZM381.809 412.692C382.205 412.692 382.517 412.38 382.517 411.972C382.517 411.564 382.205 411.252 381.809 411.252C381.401 411.252 381.089 411.564 381.089 411.972C381.089 412.38 381.401 412.692 381.809 412.692ZM383.676 417.072C383.676 418.92 384.816 420.144 386.544 420.144C387.96 420.144 389.052 419.292 389.28 418.02H388.152C387.948 418.716 387.348 419.136 386.544 419.136C385.476 419.136 384.792 418.32 384.792 417.06C384.792 415.788 385.524 414.972 386.592 414.972C387.348 414.972 387.948 415.368 388.14 416.112H389.268C389.064 414.804 388.032 413.964 386.556 413.964C384.84 413.964 383.676 415.236 383.676 417.072ZM392.27 420.144C393.218 420.144 394.022 419.724 394.322 419.052L394.442 420H395.402V416.316C395.402 414.732 394.418 413.964 392.966 413.964C391.454 413.964 390.446 414.768 390.446 415.992H391.43C391.43 415.284 391.97 414.864 392.918 414.864C393.71 414.864 394.298 415.212 394.298 416.196V416.364L392.45 416.508C391.07 416.616 390.266 417.288 390.266 418.368C390.266 419.436 391.01 420.144 392.27 420.144ZM392.594 419.268C391.862 419.268 391.406 418.956 391.406 418.332C391.406 417.756 391.814 417.372 392.81 417.276L394.31 417.156V417.468C394.31 418.572 393.662 419.268 392.594 419.268ZM398.611 420V415.08H399.763V414.132H398.611V412.296H397.483V414.132H396.331V415.08H397.483V420H398.611ZM401.411 412.74C401.819 412.74 402.155 412.404 402.155 411.996C402.155 411.576 401.819 411.252 401.411 411.252C401.003 411.252 400.667 411.576 400.667 411.996C400.667 412.404 401.003 412.74 401.411 412.74ZM400.859 420H401.987V414.132H400.859V420ZM403.325 417.06C403.325 418.872 404.621 420.144 406.385 420.144C408.137 420.144 409.433 418.872 409.433 417.06C409.433 415.248 408.137 413.976 406.385 413.976C404.621 413.976 403.325 415.248 403.325 417.06ZM404.465 417.06C404.465 415.836 405.245 414.984 406.385 414.984C407.513 414.984 408.305 415.836 408.305 417.06C408.305 418.284 407.513 419.136 406.385 419.136C405.245 419.136 404.465 418.284 404.465 417.06ZM411.893 420V416.892C411.893 415.752 412.505 414.996 413.561 414.996C414.425 414.996 414.977 415.476 414.977 416.664V420H416.105V416.412C416.105 414.912 415.397 413.964 413.849 413.964C413.021 413.964 412.277 414.36 411.905 415.032L411.785 414.132H410.765V420H411.893ZM420.637 418.296C420.637 419.412 421.513 420.144 422.893 420.144C424.285 420.144 425.245 419.436 425.245 418.32C425.245 417.444 424.753 416.988 423.757 416.748L422.725 416.496C422.149 416.352 421.861 416.088 421.861 415.692C421.861 415.152 422.257 414.84 422.965 414.84C423.649 414.84 424.045 415.212 424.069 415.8H425.149C425.125 414.684 424.285 413.964 423.001 413.964C421.705 413.964 420.793 414.648 420.793 415.728C420.793 416.592 421.285 417.108 422.329 417.36L423.361 417.6C423.973 417.756 424.165 417.996 424.165 418.392C424.165 418.932 423.709 419.256 422.917 419.256C422.173 419.256 421.717 418.896 421.717 418.296H420.637ZM429.112 420.144C430.564 420.144 431.548 419.436 431.836 418.176H430.78C430.588 418.848 430.012 419.208 429.136 419.208C428.02 419.208 427.372 418.524 427.288 417.288L431.824 417.276V416.856C431.824 415.116 430.732 413.964 429.064 413.964C427.36 413.964 426.196 415.236 426.196 417.072C426.196 418.896 427.384 420.144 429.112 420.144ZM429.064 414.912C430.06 414.912 430.696 415.56 430.696 416.532H427.312C427.456 415.5 428.08 414.912 429.064 414.912ZM434.296 420V416.892C434.296 415.752 434.908 414.996 435.964 414.996C436.828 414.996 437.38 415.476 437.38 416.664V420H438.508V416.412C438.508 414.912 437.8 413.964 436.252 413.964C435.424 413.964 434.68 414.36 434.308 415.032L434.188 414.132H433.168V420H434.296ZM441.81 420V415.08H442.962V414.132H441.81V412.296H440.682V414.132H439.53V415.08H440.682V420H441.81ZM449.08 420V415.08H450.232V414.132H449.08V412.296H447.952V414.132H446.8V415.08H447.952V420H449.08ZM450.885 417.06C450.885 418.872 452.181 420.144 453.945 420.144C455.697 420.144 456.993 418.872 456.993 417.06C456.993 415.248 455.697 413.976 453.945 413.976C452.181 413.976 450.885 415.248 450.885 417.06ZM452.025 417.06C452.025 415.836 452.805 414.984 453.945 414.984C455.073 414.984 455.865 415.836 455.865 417.06C455.865 418.284 455.073 419.136 453.945 419.136C452.805 419.136 452.025 418.284 452.025 417.06ZM466.467 416.316V415.248H463.059V412.404H467.115V411.324H461.883V420H463.059V416.316H466.467ZM468.984 412.74C469.392 412.74 469.728 412.404 469.728 411.996C469.728 411.576 469.392 411.252 468.984 411.252C468.576 411.252 468.24 411.576 468.24 411.996C468.24 412.404 468.576 412.74 468.984 412.74ZM468.432 420H469.56V414.132H468.432V420ZM472.409 420V416.892C472.409 415.752 473.021 414.996 474.077 414.996C474.941 414.996 475.493 415.476 475.493 416.664V420H476.621V416.412C476.621 414.912 475.913 413.964 474.365 413.964C473.537 413.964 472.793 414.36 472.421 415.032L472.301 414.132H471.281V420H472.409ZM479.984 420.144C480.932 420.144 481.736 419.724 482.036 419.052L482.156 420H483.116V416.316C483.116 414.732 482.132 413.964 480.68 413.964C479.168 413.964 478.16 414.768 478.16 415.992H479.144C479.144 415.284 479.684 414.864 480.632 414.864C481.424 414.864 482.012 415.212 482.012 416.196V416.364L480.164 416.508C478.784 416.616 477.98 417.288 477.98 418.368C477.98 419.436 478.724 420.144 479.984 420.144ZM480.308 419.268C479.576 419.268 479.12 418.956 479.12 418.332C479.12 417.756 479.528 417.372 480.524 417.276L482.024 417.156V417.468C482.024 418.572 481.376 419.268 480.308 419.268ZM485.89 420V416.892C485.89 415.752 486.502 414.996 487.558 414.996C488.422 414.996 488.974 415.476 488.974 416.664V420H490.102V416.412C490.102 414.912 489.394 413.964 487.846 413.964C487.018 413.964 486.274 414.36 485.902 415.032L485.782 414.132H484.762V420H485.89ZM491.364 417.072C491.364 418.92 492.504 420.144 494.232 420.144C495.648 420.144 496.74 419.292 496.968 418.02H495.84C495.636 418.716 495.036 419.136 494.232 419.136C493.164 419.136 492.48 418.32 492.48 417.06C492.48 415.788 493.212 414.972 494.28 414.972C495.036 414.972 495.636 415.368 495.828 416.112H496.956C496.752 414.804 495.72 413.964 494.244 413.964C492.528 413.964 491.364 415.236 491.364 417.072ZM500.774 420.144C502.226 420.144 503.21 419.436 503.498 418.176H502.442C502.25 418.848 501.674 419.208 500.798 419.208C499.682 419.208 499.034 418.524 498.95 417.288L503.486 417.276V416.856C503.486 415.116 502.394 413.964 500.726 413.964C499.022 413.964 497.858 415.236 497.858 417.072C497.858 418.896 499.046 420.144 500.774 420.144ZM500.726 414.912C501.722 414.912 502.358 415.56 502.358 416.532H498.974C499.118 415.5 499.742 414.912 500.726 414.912ZM507.547 412.404H510.163V420H511.339V412.404H513.943V411.324H507.547V412.404ZM516.6 420.144C518.052 420.144 519.036 419.436 519.324 418.176H518.268C518.076 418.848 517.5 419.208 516.624 419.208C515.508 419.208 514.86 418.524 514.776 417.288L519.312 417.276V416.856C519.312 415.116 518.22 413.964 516.552 413.964C514.848 413.964 513.684 415.236 513.684 417.072C513.684 418.896 514.872 420.144 516.6 420.144ZM516.552 414.912C517.548 414.912 518.184 415.56 518.184 416.532H514.8C514.944 415.5 515.568 414.912 516.552 414.912ZM522.314 420.144C523.262 420.144 524.066 419.724 524.366 419.052L524.486 420H525.446V416.316C525.446 414.732 524.462 413.964 523.01 413.964C521.498 413.964 520.49 414.768 520.49 415.992H521.474C521.474 415.284 522.014 414.864 522.962 414.864C523.754 414.864 524.342 415.212 524.342 416.196V416.364L522.494 416.508C521.114 416.616 520.31 417.288 520.31 418.368C520.31 419.436 521.054 420.144 522.314 420.144ZM522.638 419.268C521.906 419.268 521.45 418.956 521.45 418.332C521.45 417.756 521.858 417.372 522.854 417.276L524.354 417.156V417.468C524.354 418.572 523.706 419.268 522.638 419.268ZM528.22 420V416.52C528.22 415.584 528.784 414.996 529.636 414.996C530.428 414.996 530.932 415.5 530.932 416.424V420H532.048V416.52C532.048 415.584 532.612 414.984 533.464 414.984C534.256 414.984 534.772 415.512 534.772 416.436V420H535.876V416.16C535.876 414.804 535.06 413.964 533.716 413.964C532.804 413.964 532.096 414.42 531.82 415.152C531.52 414.42 530.872 413.964 529.96 413.964C529.132 413.964 528.508 414.348 528.208 414.9L528.1 414.132H527.092V420H528.22Z" fill="#002211"/>
<rect x="315.5" y="399.5" width="235.809" height="31" rx="15.5" stroke="#002211"/>
<rect x="247.129" y="218" width="182" height="32" rx="4" fill="#004D26"/>
<path d="M264.773 230.324H263.597V239H264.773V230.324ZM267.816 239V235.892C267.816 234.752 268.428 233.996 269.484 233.996C270.348 233.996 270.9 234.476 270.9 235.664V239H272.028V235.412C272.028 233.912 271.32 232.964 269.772 232.964C268.944 232.964 268.2 233.36 267.828 234.032L267.708 233.132H266.688V239H267.816ZM275.201 239H276.317L278.765 233.132H277.589L276.281 236.408C276.077 236.924 275.885 237.428 275.789 237.812C275.693 237.452 275.525 236.96 275.321 236.408L274.037 233.132H272.837L275.201 239ZM279.093 236.06C279.093 237.872 280.389 239.144 282.153 239.144C283.905 239.144 285.201 237.872 285.201 236.06C285.201 234.248 283.905 232.976 282.153 232.976C280.389 232.976 279.093 234.248 279.093 236.06ZM280.233 236.06C280.233 234.836 281.013 233.984 282.153 233.984C283.281 233.984 284.073 234.836 284.073 236.06C284.073 237.284 283.281 238.136 282.153 238.136C281.013 238.136 280.233 237.284 280.233 236.06ZM287.086 231.74C287.494 231.74 287.83 231.404 287.83 230.996C287.83 230.576 287.494 230.252 287.086 230.252C286.678 230.252 286.342 230.576 286.342 230.996C286.342 231.404 286.678 231.74 287.086 231.74ZM286.534 239H287.662V233.132H286.534V239ZM288.999 236.072C288.999 237.92 290.139 239.144 291.867 239.144C293.283 239.144 294.375 238.292 294.603 237.02H293.475C293.271 237.716 292.671 238.136 291.867 238.136C290.799 238.136 290.115 237.32 290.115 236.06C290.115 234.788 290.847 233.972 291.915 233.972C292.671 233.972 293.271 234.368 293.463 235.112H294.591C294.387 233.804 293.355 232.964 291.879 232.964C290.163 232.964 288.999 234.236 288.999 236.072ZM298.409 239.144C299.861 239.144 300.845 238.436 301.133 237.176H300.077C299.885 237.848 299.309 238.208 298.433 238.208C297.317 238.208 296.669 237.524 296.585 236.288L301.121 236.276V235.856C301.121 234.116 300.029 232.964 298.361 232.964C296.657 232.964 295.493 234.236 295.493 236.072C295.493 237.896 296.681 239.144 298.409 239.144ZM298.361 233.912C299.357 233.912 299.993 234.56 299.993 235.532H296.609C296.753 234.5 297.377 233.912 298.361 233.912ZM306.959 239V235.52C306.959 234.584 307.523 233.996 308.375 233.996C309.167 233.996 309.671 234.5 309.671 235.424V239H310.787V235.52C310.787 234.584 311.351 233.984 312.203 233.984C312.995 233.984 313.511 234.512 313.511 235.436V239H314.615V235.16C314.615 233.804 313.799 232.964 312.455 232.964C311.543 232.964 310.835 233.42 310.559 234.152C310.259 233.42 309.611 232.964 308.699 232.964C307.871 232.964 307.247 233.348 306.947 233.9L306.839 233.132H305.831V239H306.959ZM317.978 239.144C318.926 239.144 319.73 238.724 320.03 238.052L320.15 239H321.11V235.316C321.11 233.732 320.126 232.964 318.674 232.964C317.162 232.964 316.154 233.768 316.154 234.992H317.138C317.138 234.284 317.678 233.864 318.626 233.864C319.418 233.864 320.006 234.212 320.006 235.196V235.364L318.158 235.508C316.778 235.616 315.974 236.288 315.974 237.368C315.974 238.436 316.718 239.144 317.978 239.144ZM318.302 238.268C317.57 238.268 317.114 237.956 317.114 237.332C317.114 236.756 317.522 236.372 318.518 236.276L320.018 236.156V236.468C320.018 237.572 319.37 238.268 318.302 238.268ZM326.116 233.084C325.888 233.036 325.72 233.012 325.516 233.012C324.712 233.012 324.124 233.42 323.884 234.032L323.812 233.144H322.756V239H323.884V235.892C323.884 234.764 324.544 234.116 325.612 234.116H326.116V233.084ZM328.41 239V237.332L329.406 236.288L331.122 239H332.418L330.186 235.472L332.43 233.132H331.014L328.41 235.892V230.168H327.282V239H328.41ZM335.745 239.144C337.197 239.144 338.181 238.436 338.469 237.176H337.413C337.221 237.848 336.645 238.208 335.769 238.208C334.653 238.208 334.005 237.524 333.921 236.288L338.457 236.276V235.856C338.457 234.116 337.365 232.964 335.697 232.964C333.993 232.964 332.829 234.236 332.829 236.072C332.829 237.896 334.017 239.144 335.745 239.144ZM335.697 233.912C336.693 233.912 337.329 234.56 337.329 235.532H333.945C334.089 234.5 334.713 233.912 335.697 233.912ZM342.153 239.144C343.089 239.144 343.881 238.736 344.265 237.932L344.361 239H345.369V230.168H344.253V234.08C343.857 233.36 343.101 232.964 342.201 232.964C340.461 232.964 339.417 234.284 339.417 236.084C339.417 237.872 340.449 239.144 342.153 239.144ZM342.381 238.124C341.229 238.124 340.557 237.26 340.557 236.048C340.557 234.848 341.229 233.984 342.381 233.984C343.533 233.984 344.241 234.848 344.241 236.048C344.241 237.272 343.533 238.124 342.381 238.124ZM352.162 239.144C353.11 239.144 353.914 238.724 354.214 238.052L354.334 239H355.294V235.316C355.294 233.732 354.31 232.964 352.858 232.964C351.346 232.964 350.338 233.768 350.338 234.992H351.322C351.322 234.284 351.862 233.864 352.81 233.864C353.602 233.864 354.19 234.212 354.19 235.196V235.364L352.342 235.508C350.962 235.616 350.158 236.288 350.158 237.368C350.158 238.436 350.902 239.144 352.162 239.144ZM352.486 238.268C351.754 238.268 351.298 237.956 351.298 237.332C351.298 236.756 351.706 236.372 352.702 236.276L354.202 236.156V236.468C354.202 237.572 353.554 238.268 352.486 238.268ZM356.46 237.296C356.46 238.412 357.336 239.144 358.716 239.144C360.108 239.144 361.068 238.436 361.068 237.32C361.068 236.444 360.576 235.988 359.58 235.748L358.548 235.496C357.972 235.352 357.684 235.088 357.684 234.692C357.684 234.152 358.08 233.84 358.788 233.84C359.472 233.84 359.868 234.212 359.892 234.8H360.972C360.948 233.684 360.108 232.964 358.824 232.964C357.528 232.964 356.616 233.648 356.616 234.728C356.616 235.592 357.108 236.108 358.152 236.36L359.184 236.6C359.796 236.756 359.988 236.996 359.988 237.392C359.988 237.932 359.532 238.256 358.74 238.256C357.996 238.256 357.54 237.896 357.54 237.296H356.46Z" fill="#F6F7F2"/>
<path d="M368.828 239C371.396 239 373.124 237.248 373.124 234.668C373.124 232.076 371.372 230.324 368.78 230.324H365.96V239H368.828ZM368.696 231.404C370.676 231.404 371.9 232.652 371.9 234.668C371.9 236.66 370.676 237.908 368.744 237.908H367.136V231.404H368.696ZM375.064 231.74C375.472 231.74 375.808 231.404 375.808 230.996C375.808 230.576 375.472 230.252 375.064 230.252C374.656 230.252 374.32 230.576 374.32 230.996C374.32 231.404 374.656 231.74 375.064 231.74ZM374.512 239H375.64V233.132H374.512V239ZM376.882 237.296C376.882 238.412 377.758 239.144 379.138 239.144C380.53 239.144 381.49 238.436 381.49 237.32C381.49 236.444 380.998 235.988 380.002 235.748L378.97 235.496C378.394 235.352 378.106 235.088 378.106 234.692C378.106 234.152 378.502 233.84 379.21 233.84C379.894 233.84 380.29 234.212 380.314 234.8H381.394C381.37 233.684 380.53 232.964 379.246 232.964C377.95 232.964 377.038 233.648 377.038 234.728C377.038 235.592 377.53 236.108 378.574 236.36L379.606 236.6C380.218 236.756 380.41 236.996 380.41 237.392C380.41 237.932 379.954 238.256 379.162 238.256C378.418 238.256 377.962 237.896 377.962 237.296H376.882ZM382.825 241.628H383.953V238.04C384.337 238.76 385.117 239.156 386.053 239.156C387.793 239.156 388.777 237.812 388.777 236.024C388.777 234.224 387.733 232.964 386.053 232.964C385.117 232.964 384.325 233.384 383.929 234.188L383.845 233.132H382.825V241.628ZM383.965 236.072C383.965 234.848 384.661 233.996 385.813 233.996C386.965 233.996 387.649 234.86 387.649 236.072C387.649 237.272 386.965 238.136 385.813 238.136C384.661 238.136 383.965 237.272 383.965 236.072ZM394.02 233.132V236.228C394.02 237.488 393.456 238.148 392.424 238.148C391.56 238.148 391.02 237.668 391.02 236.408V233.132H389.892V236.78C389.892 238.22 390.66 239.144 392.028 239.144C392.892 239.144 393.672 238.724 394.008 238.112L394.128 239H395.136V233.132H394.02ZM398.512 239V234.08H399.664V233.132H398.512V231.296H397.384V233.132H396.232V234.08H397.384V239H398.512ZM403.234 239.144C404.686 239.144 405.67 238.436 405.958 237.176H404.902C404.71 237.848 404.134 238.208 403.258 238.208C402.142 238.208 401.494 237.524 401.41 236.288L405.946 236.276V235.856C405.946 234.116 404.854 232.964 403.186 232.964C401.482 232.964 400.318 234.236 400.318 236.072C400.318 237.896 401.506 239.144 403.234 239.144ZM403.186 233.912C404.182 233.912 404.818 234.56 404.818 235.532H401.434C401.578 234.5 402.202 233.912 403.186 233.912ZM409.642 239.144C410.578 239.144 411.37 238.736 411.754 237.932L411.85 239H412.858V230.168H411.742V234.08C411.346 233.36 410.59 232.964 409.69 232.964C407.95 232.964 406.906 234.284 406.906 236.084C406.906 237.872 407.938 239.144 409.642 239.144ZM409.87 238.124C408.718 238.124 408.046 237.26 408.046 236.048C408.046 234.848 408.718 233.984 409.87 233.984C411.022 233.984 411.73 234.848 411.73 236.048C411.73 237.272 411.022 238.124 409.87 238.124Z" fill="#96D300"/>
<rect x="179.629" y="506.84" width="317" height="32" rx="4" fill="#004D26"/>
<path d="M198.652 527.84H195.784V519.164H198.604C201.196 519.164 202.948 520.916 202.948 523.508C202.948 526.088 201.22 527.84 198.652 527.84ZM198.52 520.244H196.96V526.748H198.568C200.5 526.748 201.724 525.5 201.724 523.508C201.724 521.492 200.5 520.244 198.52 520.244ZM204.888 520.58C204.48 520.58 204.144 520.244 204.144 519.836C204.144 519.416 204.48 519.092 204.888 519.092C205.296 519.092 205.632 519.416 205.632 519.836C205.632 520.244 205.296 520.58 204.888 520.58ZM204.336 527.84V521.972H205.464V527.84H204.336ZM206.706 526.136H207.786C207.786 526.736 208.242 527.096 208.986 527.096C209.778 527.096 210.234 526.772 210.234 526.232C210.234 525.836 210.042 525.596 209.43 525.44L208.398 525.2C207.354 524.948 206.862 524.432 206.862 523.568C206.862 522.488 207.774 521.804 209.07 521.804C210.354 521.804 211.194 522.524 211.218 523.64H210.138C210.114 523.052 209.718 522.68 209.034 522.68C208.326 522.68 207.93 522.992 207.93 523.532C207.93 523.928 208.218 524.192 208.794 524.336L209.826 524.588C210.822 524.828 211.314 525.284 211.314 526.16C211.314 527.276 210.354 527.984 208.962 527.984C207.582 527.984 206.706 527.252 206.706 526.136ZM212.649 530.468V521.972H213.669L213.753 523.028C214.149 522.224 214.941 521.804 215.877 521.804C217.557 521.804 218.601 523.064 218.601 524.864C218.601 526.652 217.617 527.996 215.877 527.996C214.941 527.996 214.161 527.6 213.777 526.88V530.468H212.649ZM213.789 524.912C213.789 526.112 214.485 526.976 215.637 526.976C216.789 526.976 217.473 526.112 217.473 524.912C217.473 523.7 216.789 522.836 215.637 522.836C214.485 522.836 213.789 523.688 213.789 524.912ZM223.843 521.972H224.959V527.84H223.951L223.831 526.952C223.495 527.564 222.715 527.984 221.851 527.984C220.483 527.984 219.715 527.06 219.715 525.62V521.972H220.843V525.248C220.843 526.508 221.383 526.988 222.247 526.988C223.279 526.988 223.843 526.328 223.843 525.068V521.972ZM228.336 527.84H227.208V522.92H226.056V521.972H227.208V520.136H228.336V521.972H229.488V522.92H228.336V527.84ZM233.058 527.984C231.33 527.984 230.142 526.736 230.142 524.912C230.142 523.076 231.306 521.804 233.01 521.804C234.678 521.804 235.77 522.956 235.77 524.696V525.116L231.234 525.128C231.318 526.364 231.966 527.048 233.082 527.048C233.958 527.048 234.534 526.688 234.726 526.016H235.782C235.494 527.276 234.51 527.984 233.058 527.984ZM233.01 522.752C232.026 522.752 231.402 523.34 231.258 524.372H234.642C234.642 523.4 234.006 522.752 233.01 522.752ZM241.031 520.58C240.623 520.58 240.287 520.244 240.287 519.836C240.287 519.416 240.623 519.092 241.031 519.092C241.439 519.092 241.775 519.416 241.775 519.836C241.775 520.244 241.439 520.58 241.031 520.58ZM240.479 527.84V521.972H241.607V527.84H240.479ZM242.848 526.136H243.928C243.928 526.736 244.384 527.096 245.128 527.096C245.92 527.096 246.376 526.772 246.376 526.232C246.376 525.836 246.184 525.596 245.572 525.44L244.54 525.2C243.496 524.948 243.004 524.432 243.004 523.568C243.004 522.488 243.916 521.804 245.212 521.804C246.496 521.804 247.336 522.524 247.36 523.64H246.28C246.256 523.052 245.86 522.68 245.176 522.68C244.468 522.68 244.072 522.992 244.072 523.532C244.072 523.928 244.36 524.192 244.936 524.336L245.968 524.588C246.964 524.828 247.456 525.284 247.456 526.16C247.456 527.276 246.496 527.984 245.104 527.984C243.724 527.984 242.848 527.252 242.848 526.136ZM251.773 524.912C251.773 523.076 252.937 521.804 254.653 521.804C256.129 521.804 257.161 522.644 257.365 523.952H256.237C256.045 523.208 255.445 522.812 254.689 522.812C253.621 522.812 252.889 523.628 252.889 524.9C252.889 526.16 253.573 526.976 254.641 526.976C255.445 526.976 256.045 526.556 256.249 525.86H257.377C257.149 527.132 256.057 527.984 254.641 527.984C252.913 527.984 251.773 526.76 251.773 524.912ZM259.803 527.84H258.675V519.008H259.803V527.84ZM261.163 524.9C261.163 523.088 262.459 521.816 264.223 521.816C265.975 521.816 267.271 523.088 267.271 524.9C267.271 526.712 265.975 527.984 264.223 527.984C262.459 527.984 261.163 526.712 261.163 524.9ZM262.303 524.9C262.303 526.124 263.083 526.976 264.223 526.976C265.351 526.976 266.143 526.124 266.143 524.9C266.143 523.676 265.351 522.824 264.223 522.824C263.083 522.824 262.303 523.676 262.303 524.9ZM268.124 526.136H269.204C269.204 526.736 269.66 527.096 270.404 527.096C271.196 527.096 271.652 526.772 271.652 526.232C271.652 525.836 271.46 525.596 270.848 525.44L269.816 525.2C268.772 524.948 268.28 524.432 268.28 523.568C268.28 522.488 269.192 521.804 270.488 521.804C271.772 521.804 272.612 522.524 272.636 523.64H271.556C271.532 523.052 271.136 522.68 270.452 522.68C269.744 522.68 269.348 522.992 269.348 523.532C269.348 523.928 269.636 524.192 270.212 524.336L271.244 524.588C272.24 524.828 272.732 525.284 272.732 526.16C272.732 527.276 271.772 527.984 270.38 527.984C269 527.984 268.124 527.252 268.124 526.136ZM276.599 527.984C274.871 527.984 273.683 526.736 273.683 524.912C273.683 523.076 274.847 521.804 276.551 521.804C278.219 521.804 279.311 522.956 279.311 524.696V525.116L274.775 525.128C274.859 526.364 275.507 527.048 276.623 527.048C277.499 527.048 278.075 526.688 278.267 526.016H279.323C279.035 527.276 278.051 527.984 276.599 527.984ZM276.551 522.752C275.567 522.752 274.943 523.34 274.799 524.372H278.183C278.183 523.4 277.547 522.752 276.551 522.752ZM283.007 527.984C281.303 527.984 280.271 526.712 280.271 524.924C280.271 523.124 281.315 521.804 283.055 521.804C283.955 521.804 284.711 522.2 285.107 522.92V519.008H286.223V527.84H285.215L285.119 526.772C284.735 527.576 283.943 527.984 283.007 527.984ZM283.235 526.964C284.387 526.964 285.095 526.112 285.095 524.888C285.095 523.688 284.387 522.824 283.235 522.824C282.083 522.824 281.411 523.688 281.411 524.888C281.411 526.1 282.083 526.964 283.235 526.964ZM293.015 527.984C291.755 527.984 291.011 527.276 291.011 526.208C291.011 525.128 291.815 524.456 293.195 524.348L295.043 524.204V524.036C295.043 523.052 294.455 522.704 293.663 522.704C292.715 522.704 292.175 523.124 292.175 523.832H291.191C291.191 522.608 292.199 521.804 293.711 521.804C295.163 521.804 296.147 522.572 296.147 524.156V527.84H295.187L295.067 526.892C294.767 527.564 293.963 527.984 293.015 527.984ZM293.339 527.108C294.407 527.108 295.055 526.412 295.055 525.308V524.996L293.555 525.116C292.559 525.212 292.151 525.596 292.151 526.172C292.151 526.796 292.607 527.108 293.339 527.108ZM298.921 527.84H297.793V521.972H298.813L298.933 522.872C299.305 522.2 300.049 521.804 300.877 521.804C302.425 521.804 303.133 522.752 303.133 524.252V527.84H302.005V524.504C302.005 523.316 301.453 522.836 300.589 522.836C299.533 522.836 298.921 523.592 298.921 524.732V527.84ZM307.132 527.984C305.428 527.984 304.396 526.712 304.396 524.924C304.396 523.124 305.44 521.804 307.18 521.804C308.08 521.804 308.836 522.2 309.232 522.92V519.008H310.348V527.84H309.34L309.244 526.772C308.86 527.576 308.068 527.984 307.132 527.984ZM307.36 526.964C308.512 526.964 309.22 526.112 309.22 524.888C309.22 523.688 308.512 522.824 307.36 522.824C306.208 522.824 305.536 523.688 305.536 524.888C305.536 526.1 306.208 526.964 307.36 526.964ZM315.976 520.58C315.568 520.58 315.232 520.244 315.232 519.836C315.232 519.416 315.568 519.092 315.976 519.092C316.384 519.092 316.72 519.416 316.72 519.836C316.72 520.244 316.384 520.58 315.976 520.58ZM315.424 527.84V521.972H316.552V527.84H315.424ZM319.402 527.84H318.274V521.972H319.294L319.414 522.872C319.786 522.2 320.53 521.804 321.358 521.804C322.906 521.804 323.614 522.752 323.614 524.252V527.84H322.486V524.504C322.486 523.316 321.934 522.836 321.07 522.836C320.014 522.836 319.402 523.592 319.402 524.732V527.84ZM326.787 527.84L324.423 521.972H325.623L326.907 525.248C327.111 525.8 327.279 526.292 327.375 526.652C327.471 526.268 327.663 525.764 327.867 525.248L329.175 521.972H330.351L327.903 527.84H326.787ZM330.679 524.9C330.679 523.088 331.975 521.816 333.739 521.816C335.491 521.816 336.787 523.088 336.787 524.9C336.787 526.712 335.491 527.984 333.739 527.984C331.975 527.984 330.679 526.712 330.679 524.9ZM331.819 524.9C331.819 526.124 332.599 526.976 333.739 526.976C334.867 526.976 335.659 526.124 335.659 524.9C335.659 523.676 334.867 522.824 333.739 522.824C332.599 522.824 331.819 523.676 331.819 524.9ZM338.672 520.58C338.264 520.58 337.928 520.244 337.928 519.836C337.928 519.416 338.264 519.092 338.672 519.092C339.08 519.092 339.416 519.416 339.416 519.836C339.416 520.244 339.08 520.58 338.672 520.58ZM338.12 527.84V521.972H339.248V527.84H338.12ZM340.585 524.912C340.585 523.076 341.749 521.804 343.465 521.804C344.941 521.804 345.973 522.644 346.177 523.952H345.049C344.857 523.208 344.257 522.812 343.501 522.812C342.433 522.812 341.701 523.628 341.701 524.9C341.701 526.16 342.385 526.976 343.453 526.976C344.257 526.976 344.857 526.556 345.061 525.86H346.189C345.961 527.132 344.869 527.984 343.453 527.984C341.725 527.984 340.585 526.76 340.585 524.912ZM349.996 527.984C348.268 527.984 347.08 526.736 347.08 524.912C347.08 523.076 348.244 521.804 349.948 521.804C351.616 521.804 352.708 522.956 352.708 524.696V525.116L348.172 525.128C348.256 526.364 348.904 527.048 350.02 527.048C350.896 527.048 351.472 526.688 351.664 526.016H352.72C352.432 527.276 351.448 527.984 349.996 527.984ZM349.948 522.752C348.964 522.752 348.34 523.34 348.196 524.372H351.58C351.58 523.4 350.944 522.752 349.948 522.752ZM358.545 527.84H357.417V521.972H358.425L358.533 522.74C358.833 522.188 359.457 521.804 360.285 521.804C361.197 521.804 361.845 522.26 362.145 522.992C362.421 522.26 363.129 521.804 364.041 521.804C365.385 521.804 366.201 522.644 366.201 524V527.84H365.097V524.276C365.097 523.352 364.581 522.824 363.789 522.824C362.937 522.824 362.373 523.424 362.373 524.36V527.84H361.257V524.264C361.257 523.34 360.753 522.836 359.961 522.836C359.109 522.836 358.545 523.424 358.545 524.36V527.84ZM367.464 524.9C367.464 523.088 368.76 521.816 370.524 521.816C372.276 521.816 373.572 523.088 373.572 524.9C373.572 526.712 372.276 527.984 370.524 527.984C368.76 527.984 367.464 526.712 367.464 524.9ZM368.604 524.9C368.604 526.124 369.384 526.976 370.524 526.976C371.652 526.976 372.444 526.124 372.444 524.9C372.444 523.676 371.652 522.824 370.524 522.824C369.384 522.824 368.604 523.676 368.604 524.9ZM376.279 527.84L373.915 521.972H375.115L376.399 525.248C376.603 525.8 376.771 526.292 376.867 526.652C376.963 526.268 377.155 525.764 377.359 525.248L378.667 521.972H379.843L377.395 527.84H376.279ZM383.087 527.984C381.359 527.984 380.171 526.736 380.171 524.912C380.171 523.076 381.335 521.804 383.039 521.804C384.707 521.804 385.799 522.956 385.799 524.696V525.116L381.263 525.128C381.347 526.364 381.995 527.048 383.111 527.048C383.987 527.048 384.563 526.688 384.755 526.016H385.811C385.523 527.276 384.539 527.984 383.087 527.984ZM383.039 522.752C382.055 522.752 381.431 523.34 381.287 524.372H384.671C384.671 523.4 384.035 522.752 383.039 522.752ZM389.495 527.984C387.791 527.984 386.759 526.712 386.759 524.924C386.759 523.124 387.803 521.804 389.543 521.804C390.443 521.804 391.199 522.2 391.595 522.92V519.008H392.711V527.84H391.703L391.607 526.772C391.223 527.576 390.431 527.984 389.495 527.984ZM389.723 526.964C390.875 526.964 391.583 526.112 391.583 524.888C391.583 523.688 390.875 522.824 389.723 522.824C388.571 522.824 387.899 523.688 387.899 524.888C387.899 526.1 388.571 526.964 389.723 526.964ZM399.444 527.84H398.316V522.92H397.164V521.972H398.316V520.136H399.444V521.972H400.596V522.92H399.444V527.84ZM401.25 524.9C401.25 523.088 402.546 521.816 404.31 521.816C406.062 521.816 407.358 523.088 407.358 524.9C407.358 526.712 406.062 527.984 404.31 527.984C402.546 527.984 401.25 526.712 401.25 524.9ZM402.39 524.9C402.39 526.124 403.17 526.976 404.31 526.976C405.438 526.976 406.23 526.124 406.23 524.9C406.23 523.676 405.438 522.824 404.31 522.824C403.17 522.824 402.39 523.676 402.39 524.9Z" fill="#F6F7F2"/>
<path d="M411.671 524.912C411.671 523.076 412.835 521.804 414.551 521.804C416.027 521.804 417.059 522.644 417.263 523.952H416.135C415.943 523.208 415.343 522.812 414.587 522.812C413.519 522.812 412.787 523.628 412.787 524.9C412.787 526.16 413.471 526.976 414.539 526.976C415.343 526.976 415.943 526.556 416.147 525.86H417.275C417.047 527.132 415.955 527.984 414.539 527.984C412.811 527.984 411.671 526.76 411.671 524.912ZM421.91 521.924V522.956H421.406C420.338 522.956 419.678 523.604 419.678 524.732V527.84H418.55V521.984H419.606L419.678 522.872C419.918 522.26 420.506 521.852 421.31 521.852C421.514 521.852 421.682 521.876 421.91 521.924ZM425.373 527.984C423.645 527.984 422.457 526.736 422.457 524.912C422.457 523.076 423.621 521.804 425.325 521.804C426.993 521.804 428.085 522.956 428.085 524.696V525.116L423.549 525.128C423.633 526.364 424.281 527.048 425.397 527.048C426.273 527.048 426.849 526.688 427.041 526.016H428.097C427.809 527.276 426.825 527.984 425.373 527.984ZM425.325 522.752C424.341 522.752 423.717 523.34 423.573 524.372H426.957C426.957 523.4 426.321 522.752 425.325 522.752ZM431.781 527.984C430.077 527.984 429.045 526.712 429.045 524.924C429.045 523.124 430.089 521.804 431.829 521.804C432.729 521.804 433.485 522.2 433.881 522.92V519.008H434.997V527.84H433.989L433.893 526.772C433.509 527.576 432.717 527.984 431.781 527.984ZM432.009 526.964C433.161 526.964 433.869 526.112 433.869 524.888C433.869 523.688 433.161 522.824 432.009 522.824C430.857 522.824 430.185 523.688 430.185 524.888C430.185 526.1 430.857 526.964 432.009 526.964ZM437.26 520.58C436.852 520.58 436.516 520.244 436.516 519.836C436.516 519.416 436.852 519.092 437.26 519.092C437.668 519.092 438.004 519.416 438.004 519.836C438.004 520.244 437.668 520.58 437.26 520.58ZM436.708 527.84V521.972H437.836V527.84H436.708ZM441.214 527.84H440.086V522.92H438.934V521.972H440.086V520.136H441.214V521.972H442.366V522.92H441.214V527.84ZM446.827 530.468V521.972H447.847L447.931 523.028C448.327 522.224 449.119 521.804 450.055 521.804C451.735 521.804 452.779 523.064 452.779 524.864C452.779 526.652 451.795 527.996 450.055 527.996C449.119 527.996 448.339 527.6 447.955 526.88V530.468H446.827ZM447.967 524.912C447.967 526.112 448.663 526.976 449.815 526.976C450.967 526.976 451.651 526.112 451.651 524.912C451.651 523.7 450.967 522.836 449.815 522.836C448.663 522.836 447.967 523.688 447.967 524.912ZM456.638 527.984C454.91 527.984 453.722 526.736 453.722 524.912C453.722 523.076 454.886 521.804 456.59 521.804C458.258 521.804 459.35 522.956 459.35 524.696V525.116L454.814 525.128C454.898 526.364 455.546 527.048 456.662 527.048C457.538 527.048 458.114 526.688 458.306 526.016H459.362C459.074 527.276 458.09 527.984 456.638 527.984ZM456.59 522.752C455.606 522.752 454.982 523.34 454.838 524.372H458.222C458.222 523.4 457.586 522.752 456.59 522.752ZM464.054 521.924V522.956H463.55C462.482 522.956 461.822 523.604 461.822 524.732V527.84H460.694V521.984H461.75L461.822 522.872C462.062 522.26 462.65 521.852 463.454 521.852C463.658 521.852 463.826 521.876 464.054 521.924ZM465.748 520.58C465.34 520.58 465.004 520.244 465.004 519.836C465.004 519.416 465.34 519.092 465.748 519.092C466.156 519.092 466.492 519.416 466.492 519.836C466.492 520.244 466.156 520.58 465.748 520.58ZM465.196 527.84V521.972H466.324V527.84H465.196ZM467.662 524.9C467.662 523.088 468.958 521.816 470.722 521.816C472.474 521.816 473.77 523.088 473.77 524.9C473.77 526.712 472.474 527.984 470.722 527.984C468.958 527.984 467.662 526.712 467.662 524.9ZM468.802 524.9C468.802 526.124 469.582 526.976 470.722 526.976C471.85 526.976 472.642 526.124 472.642 524.9C472.642 523.676 471.85 522.824 470.722 522.824C469.582 522.824 468.802 523.676 468.802 524.9ZM477.455 527.984C475.751 527.984 474.719 526.712 474.719 524.924C474.719 523.124 475.763 521.804 477.503 521.804C478.403 521.804 479.159 522.2 479.555 522.92V519.008H480.671V527.84H479.663L479.567 526.772C479.183 527.576 478.391 527.984 477.455 527.984ZM477.683 526.964C478.835 526.964 479.543 526.112 479.543 524.888C479.543 523.688 478.835 522.824 477.683 522.824C476.531 522.824 475.859 523.688 475.859 524.888C475.859 526.1 476.531 526.964 477.683 526.964Z" fill="#96D300"/>
<path d="M109.194 159.237V158.436H106.638V156.303H109.68V155.493H105.756V162H106.638V159.237H109.194ZM111.081 156.555C111.387 156.555 111.639 156.303 111.639 155.997C111.639 155.682 111.387 155.439 111.081 155.439C110.775 155.439 110.523 155.682 110.523 155.997C110.523 156.303 110.775 156.555 111.081 156.555ZM110.667 162H111.513V157.599H110.667V162ZM113.65 162V159.669C113.65 158.814 114.109 158.247 114.901 158.247C115.549 158.247 115.963 158.607 115.963 159.498V162H116.809V159.309C116.809 158.184 116.278 157.473 115.117 157.473C114.496 157.473 113.938 157.77 113.659 158.274L113.569 157.599H112.804V162H113.65ZM121.626 159.237V158.436H119.07V156.303H122.112V155.493H118.188V162H119.07V159.237H121.626ZM123.963 162V155.376H123.117V162H123.963ZM124.984 159.795C124.984 161.154 125.956 162.108 127.279 162.108C128.593 162.108 129.565 161.154 129.565 159.795C129.565 158.436 128.593 157.482 127.279 157.482C125.956 157.482 124.984 158.436 124.984 159.795ZM125.839 159.795C125.839 158.877 126.424 158.238 127.279 158.238C128.125 158.238 128.719 158.877 128.719 159.795C128.719 160.713 128.125 161.352 127.279 161.352C126.424 161.352 125.839 160.713 125.839 159.795ZM131.41 161.991V159.597C131.41 158.841 131.851 158.247 132.67 158.247C133.3 158.247 133.723 158.607 133.723 159.498V162H134.569V159.309C134.569 158.184 134.029 157.473 132.904 157.473C132.22 157.473 131.689 157.797 131.41 158.274V155.376H130.564V161.991H131.41ZM138.742 162L139.318 160.38H142.054L142.639 162H143.566L141.181 155.493H140.2L137.824 162H138.742ZM140.578 156.897C140.623 156.762 140.668 156.609 140.686 156.519C140.704 156.618 140.749 156.771 140.794 156.897L141.793 159.615H139.588L140.578 156.897ZM147.269 157.599V159.921C147.269 160.866 146.846 161.361 146.072 161.361C145.424 161.361 145.019 161.001 145.019 160.056V157.599H144.173V160.335C144.173 161.415 144.749 162.108 145.775 162.108C146.423 162.108 147.008 161.793 147.26 161.334L147.35 162H148.106V157.599H147.269ZM150.638 162V158.31H151.502V157.599H150.638V156.222H149.792V157.599H148.928V158.31H149.792V162H150.638ZM151.993 159.795C151.993 161.154 152.965 162.108 154.288 162.108C155.602 162.108 156.574 161.154 156.574 159.795C156.574 158.436 155.602 157.482 154.288 157.482C152.965 157.482 151.993 158.436 151.993 159.795ZM152.848 159.795C152.848 158.877 153.433 158.238 154.288 158.238C155.134 158.238 155.728 158.877 155.728 159.795C155.728 160.713 155.134 161.352 154.288 161.352C153.433 161.352 152.848 160.713 152.848 159.795ZM158.419 162V159.39C158.419 158.688 158.842 158.247 159.481 158.247C160.075 158.247 160.453 158.625 160.453 159.318V162H161.29V159.39C161.29 158.688 161.713 158.238 162.352 158.238C162.946 158.238 163.333 158.634 163.333 159.327V162H164.161V159.12C164.161 158.103 163.549 157.473 162.541 157.473C161.857 157.473 161.326 157.815 161.119 158.364C160.894 157.815 160.408 157.473 159.724 157.473C159.103 157.473 158.635 157.761 158.41 158.175L158.329 157.599H157.573V162H158.419ZM166.684 162.108C167.395 162.108 167.998 161.793 168.223 161.289L168.313 162H169.033V159.237C169.033 158.049 168.295 157.473 167.206 157.473C166.072 157.473 165.316 158.076 165.316 158.994H166.054C166.054 158.463 166.459 158.148 167.17 158.148C167.764 158.148 168.205 158.409 168.205 159.147V159.273L166.819 159.381C165.784 159.462 165.181 159.966 165.181 160.776C165.181 161.577 165.739 162.108 166.684 162.108ZM166.927 161.451C166.378 161.451 166.036 161.217 166.036 160.749C166.036 160.317 166.342 160.029 167.089 159.957L168.214 159.867V160.101C168.214 160.929 167.728 161.451 166.927 161.451ZM171.439 162V158.31H172.303V157.599H171.439V156.222H170.593V157.599H169.729V158.31H170.593V162H171.439ZM174.98 162.108C176.069 162.108 176.807 161.577 177.023 160.632H176.231C176.087 161.136 175.655 161.406 174.998 161.406C174.161 161.406 173.675 160.893 173.612 159.966L177.014 159.957V159.642C177.014 158.337 176.195 157.473 174.944 157.473C173.666 157.473 172.793 158.427 172.793 159.804C172.793 161.172 173.684 162.108 174.98 162.108ZM174.944 158.184C175.691 158.184 176.168 158.67 176.168 159.399H173.63C173.738 158.625 174.206 158.184 174.944 158.184ZM179.786 162.108C180.488 162.108 181.082 161.802 181.37 161.199L181.442 162H182.198V155.376H181.361V158.31C181.064 157.77 180.497 157.473 179.822 157.473C178.517 157.473 177.734 158.463 177.734 159.813C177.734 161.154 178.508 162.108 179.786 162.108ZM179.957 161.343C179.093 161.343 178.589 160.695 178.589 159.786C178.589 158.886 179.093 158.238 179.957 158.238C180.821 158.238 181.352 158.886 181.352 159.786C181.352 160.704 180.821 161.343 179.957 161.343ZM187.014 162V159.219C187.014 158.31 186.996 157.644 186.951 157.329L188.841 162H189.669L191.568 157.311C191.523 157.77 191.514 158.211 191.514 159.426V162H192.378V155.493H191.496L189.255 160.965L187.014 155.493H186.15V162H187.014ZM195.711 162.108C196.8 162.108 197.538 161.577 197.754 160.632H196.962C196.818 161.136 196.386 161.406 195.729 161.406C194.892 161.406 194.406 160.893 194.343 159.966L197.745 159.957V159.642C197.745 158.337 196.926 157.473 195.675 157.473C194.397 157.473 193.524 158.427 193.524 159.804C193.524 161.172 194.415 162.108 195.711 162.108ZM195.675 158.184C196.422 158.184 196.899 158.67 196.899 159.399H194.361C194.469 158.625 194.937 158.184 195.675 158.184ZM198.393 160.722C198.393 161.559 199.05 162.108 200.085 162.108C201.129 162.108 201.849 161.577 201.849 160.74C201.849 160.083 201.48 159.741 200.733 159.561L199.959 159.372C199.527 159.264 199.311 159.066 199.311 158.769C199.311 158.364 199.608 158.13 200.139 158.13C200.652 158.13 200.949 158.409 200.967 158.85H201.777C201.759 158.013 201.129 157.473 200.166 157.473C199.194 157.473 198.51 157.986 198.51 158.796C198.51 159.444 198.879 159.831 199.662 160.02L200.436 160.2C200.895 160.317 201.039 160.497 201.039 160.794C201.039 161.199 200.697 161.442 200.103 161.442C199.545 161.442 199.203 161.172 199.203 160.722H198.393ZM202.49 160.722C202.49 161.559 203.147 162.108 204.182 162.108C205.226 162.108 205.946 161.577 205.946 160.74C205.946 160.083 205.577 159.741 204.83 159.561L204.056 159.372C203.624 159.264 203.408 159.066 203.408 158.769C203.408 158.364 203.705 158.13 204.236 158.13C204.749 158.13 205.046 158.409 205.064 158.85H205.874C205.856 158.013 205.226 157.473 204.263 157.473C203.291 157.473 202.607 157.986 202.607 158.796C202.607 159.444 202.976 159.831 203.759 160.02L204.533 160.2C204.992 160.317 205.136 160.497 205.136 160.794C205.136 161.199 204.794 161.442 204.2 161.442C203.642 161.442 203.3 161.172 203.3 160.722H202.49ZM208.234 162.108C208.945 162.108 209.548 161.793 209.773 161.289L209.863 162H210.583V159.237C210.583 158.049 209.845 157.473 208.756 157.473C207.622 157.473 206.866 158.076 206.866 158.994H207.604C207.604 158.463 208.009 158.148 208.72 158.148C209.314 158.148 209.755 158.409 209.755 159.147V159.273L208.369 159.381C207.334 159.462 206.731 159.966 206.731 160.776C206.731 161.577 207.289 162.108 208.234 162.108ZM208.477 161.451C207.928 161.451 207.586 161.217 207.586 160.749C207.586 160.317 207.892 160.029 208.639 159.957L209.764 159.867V160.101C209.764 160.929 209.278 161.451 208.477 161.451ZM211.539 159.687C211.539 160.92 212.331 161.883 213.582 161.883C214.275 161.883 214.851 161.577 215.139 161.064V161.946C215.139 162.783 214.599 163.323 213.771 163.323C213.033 163.323 212.547 162.945 212.439 162.297H211.593C211.755 163.413 212.574 164.088 213.771 164.088C215.121 164.088 215.976 163.206 215.976 161.82V157.599H215.22L215.157 158.346C214.878 157.797 214.329 157.473 213.618 157.473C212.34 157.473 211.539 158.445 211.539 159.687ZM212.385 159.669C212.385 158.859 212.889 158.211 213.735 158.211C214.599 158.211 215.103 158.823 215.103 159.669C215.103 160.533 214.581 161.145 213.726 161.145C212.898 161.145 212.385 160.497 212.385 159.669ZM219.159 162.108C220.248 162.108 220.986 161.577 221.202 160.632H220.41C220.266 161.136 219.834 161.406 219.177 161.406C218.34 161.406 217.854 160.893 217.791 159.966L221.193 159.957V159.642C221.193 158.337 220.374 157.473 219.123 157.473C217.845 157.473 216.972 158.427 216.972 159.804C216.972 161.172 217.863 162.108 219.159 162.108ZM219.123 158.184C219.87 158.184 220.347 158.67 220.347 159.399H217.809C217.917 158.625 218.385 158.184 219.123 158.184Z" fill="#77A701"/>
<defs>
<linearGradient id="paint0_linear_424_3509" x1="338" y1="523.84" x2="338" y2="77.8398" gradientUnits="userSpaceOnUse">
<stop stop-color="#77A701"/>
<stop offset="1" stop-color="#D2EA97"/>
</linearGradient>
</defs>
</svg>
