<svg width="322" height="473" viewBox="0 0 322 473" fill="none" xmlns="http://www.w3.org/2000/svg">
<g clip-path="url(#clip0_424_10519)">
<rect x="-10" width="342" height="473" fill="#F1F3E4"/>
<path d="M171.76 278.968L206.463 311.303L160.242 321.954L125.54 289.62L171.76 278.968Z" fill="white"/>
<path d="M185.643 302.789L181.76 299.047C181.196 298.503 180.971 297.695 181.174 296.937C181.599 295.352 183.57 294.804 184.752 295.943L188.634 299.686C189.199 300.23 189.423 301.038 189.22 301.795C188.795 303.381 186.825 303.928 185.643 302.789Z" fill="#F1F3E4"/>
<path d="M146.215 315.345L160.309 262.746L189.884 289.255L175.79 341.854L146.215 315.345Z" fill="#77A701"/>
<path d="M138.436 325.871L152.53 273.271L182.104 299.78L168.01 352.38L138.436 325.871Z" fill="#AEDC3D"/>
<path d="M132.029 327.244L146.123 274.644L175.697 301.153L161.603 353.752L132.029 327.244Z" fill="#C0E36A"/>
<path d="M126.08 328.617L140.174 276.017L169.748 302.526L155.654 355.125L126.08 328.617Z" fill="#D2EA97"/>
<path d="M120.588 328.617L134.682 276.017L164.257 302.526L150.163 355.125L120.588 328.617Z" fill="#E4F0C5"/>
<path d="M114.368 331.317L125.537 289.631L160.262 321.926L149.092 363.612L114.368 331.317Z" fill="#004D26"/>
<path d="M139.88 313.315L135.997 309.573C135.432 309.028 135.208 308.22 135.411 307.463C135.836 305.877 137.807 305.33 138.988 306.469L142.871 310.211C143.436 310.755 143.66 311.563 143.457 312.321C143.032 313.906 141.062 314.454 139.88 313.315Z" fill="white"/>
<path d="M195.258 353.209L206.49 311.29L160.262 321.926L149.092 363.612L195.258 353.209Z" fill="#D2EA97"/>
<rect x="122" y="415" width="78.2549" height="29.5074" rx="14.7537" fill="#004D26"/>
<path d="M147.531 424.814C146.4 424.814 145.648 424.001 145.648 422.771C145.648 421.547 146.422 420.717 147.559 420.717C148.454 420.717 149.14 421.25 149.289 422.063H148.712C148.564 421.547 148.119 421.234 147.542 421.234C146.741 421.234 146.213 421.838 146.213 422.766C146.213 423.694 146.741 424.298 147.542 424.298C148.125 424.298 148.586 423.985 148.734 423.496H149.305C149.135 424.287 148.427 424.814 147.531 424.814ZM151.453 422.046V422.519H151.223C150.734 422.519 150.432 422.815 150.432 423.331V424.754H149.916V422.074H150.399L150.432 422.48C150.542 422.2 150.811 422.013 151.179 422.013C151.272 422.013 151.349 422.024 151.453 422.046ZM153.038 424.82C152.247 424.82 151.704 424.248 151.704 423.414C151.704 422.574 152.236 421.991 153.016 421.991C153.78 421.991 154.279 422.519 154.279 423.315V423.507L152.203 423.513C152.242 424.078 152.538 424.391 153.049 424.391C153.45 424.391 153.714 424.227 153.801 423.919H154.285C154.153 424.496 153.703 424.82 153.038 424.82ZM153.016 422.425C152.566 422.425 152.28 422.694 152.214 423.167H153.763C153.763 422.722 153.472 422.425 153.016 422.425ZM155.971 424.82C155.191 424.82 154.719 424.237 154.719 423.419C154.719 422.596 155.196 421.991 155.993 421.991C156.404 421.991 156.75 422.173 156.932 422.502V420.712H157.442V424.754H156.981L156.937 424.265C156.761 424.633 156.399 424.82 155.971 424.82ZM156.075 424.353C156.602 424.353 156.926 423.963 156.926 423.403C156.926 422.854 156.602 422.458 156.075 422.458C155.548 422.458 155.24 422.854 155.24 423.403C155.24 423.957 155.548 424.353 156.075 424.353ZM158.478 421.431C158.291 421.431 158.138 421.278 158.138 421.091C158.138 420.899 158.291 420.75 158.478 420.75C158.665 420.75 158.819 420.899 158.819 421.091C158.819 421.278 158.665 421.431 158.478 421.431ZM158.225 424.754V422.068H158.742V424.754H158.225ZM160.287 424.754H159.771V422.502H159.244V422.068H159.771V421.228H160.287V422.068H160.815V422.502H160.287V424.754ZM162.714 421.854C162.714 421.173 163.263 420.712 164.081 420.712C164.839 420.712 165.328 421.135 165.371 421.821H164.828C164.8 421.426 164.52 421.195 164.075 421.195C163.576 421.195 163.252 421.448 163.252 421.838C163.252 422.156 163.433 422.348 163.806 422.436L164.46 422.59C165.108 422.738 165.437 423.09 165.437 423.65C165.437 424.364 164.883 424.82 164.037 424.82C163.23 424.82 162.692 424.397 162.659 423.716H163.208C163.219 424.095 163.537 424.336 164.037 424.336C164.564 424.336 164.899 424.089 164.899 423.694C164.899 423.381 164.729 423.183 164.35 423.095L163.697 422.947C163.049 422.799 162.714 422.425 162.714 421.854ZM165.889 423.414C165.889 422.574 166.421 421.991 167.206 421.991C167.882 421.991 168.354 422.376 168.448 422.974H167.931C167.844 422.634 167.569 422.453 167.223 422.453C166.734 422.453 166.399 422.826 166.399 423.408C166.399 423.985 166.712 424.358 167.201 424.358C167.569 424.358 167.844 424.166 167.937 423.848H168.453C168.349 424.43 167.849 424.82 167.201 424.82C166.41 424.82 165.889 424.259 165.889 423.414ZM168.86 423.408C168.86 422.579 169.454 421.997 170.261 421.997C171.063 421.997 171.656 422.579 171.656 423.408C171.656 424.237 171.063 424.82 170.261 424.82C169.454 424.82 168.86 424.237 168.86 423.408ZM169.382 423.408C169.382 423.968 169.739 424.358 170.261 424.358C170.777 424.358 171.139 423.968 171.139 423.408C171.139 422.848 170.777 422.458 170.261 422.458C169.739 422.458 169.382 422.848 169.382 423.408ZM173.803 422.046V422.519H173.573C173.084 422.519 172.782 422.815 172.782 423.331V424.754H172.266V422.074H172.749L172.782 422.48C172.892 422.2 173.161 422.013 173.529 422.013C173.622 422.013 173.699 422.024 173.803 422.046ZM175.388 424.82C174.597 424.82 174.053 424.248 174.053 423.414C174.053 422.574 174.586 421.991 175.366 421.991C176.129 421.991 176.629 422.519 176.629 423.315V423.507L174.553 423.513C174.592 424.078 174.888 424.391 175.399 424.391C175.8 424.391 176.063 424.227 176.151 423.919H176.635C176.503 424.496 176.052 424.82 175.388 424.82ZM175.366 422.425C174.916 422.425 174.63 422.694 174.564 423.167H176.113C176.113 422.722 175.822 422.425 175.366 422.425Z" fill="#D2EA97"/>
<path d="M151.591 430.144H156.906V431.091L154.022 437.754H152.949L155.864 431.091H151.591V430.144ZM160.095 437.88C158.537 437.88 157.526 436.891 157.526 435.375H158.547C158.547 436.354 159.147 436.954 160.116 436.954C161.147 436.954 161.81 436.27 161.81 435.238C161.81 434.259 161.189 433.533 160.126 433.533C159.484 433.533 158.895 433.838 158.547 434.27L157.674 434.049L158.6 430.144H162.41V431.091H159.347L158.842 433.112C159.242 432.807 159.747 432.649 160.316 432.649C161.863 432.649 162.863 433.733 162.863 435.196C162.863 436.775 161.736 437.88 160.095 437.88ZM163.966 433.954C163.966 431.596 165.187 429.996 167.103 429.996C169.008 429.996 170.229 431.596 170.229 433.954C170.229 436.322 169.06 437.891 167.103 437.891C165.134 437.891 163.966 436.322 163.966 433.954ZM164.987 433.954C164.987 435.828 165.766 436.964 167.103 436.964C168.439 436.964 169.208 435.828 169.208 433.954C169.208 432.059 168.439 430.923 167.103 430.923C165.766 430.923 164.987 432.059 164.987 433.954Z" fill="white"/>
<path d="M116.072 385.088C114.424 385.088 113.328 383.904 113.328 382.112C113.328 380.328 114.456 379.12 116.112 379.12C117.416 379.12 118.416 379.896 118.632 381.08H117.792C117.576 380.328 116.928 379.872 116.088 379.872C114.92 379.872 114.152 380.752 114.152 382.104C114.152 383.456 114.92 384.336 116.088 384.336C116.936 384.336 117.608 383.88 117.824 383.168H118.656C118.408 384.32 117.376 385.088 116.072 385.088ZM120.611 385.096C119.771 385.096 119.275 384.624 119.275 383.912C119.275 383.192 119.811 382.744 120.731 382.672L121.963 382.576V382.464C121.963 381.808 121.571 381.576 121.043 381.576C120.411 381.576 120.051 381.856 120.051 382.328H119.395C119.395 381.512 120.067 380.976 121.075 380.976C122.043 380.976 122.699 381.488 122.699 382.544V385H122.059L121.979 384.368C121.779 384.816 121.243 385.096 120.611 385.096ZM120.827 384.512C121.539 384.512 121.971 384.048 121.971 383.312V383.104L120.971 383.184C120.307 383.248 120.035 383.504 120.035 383.888C120.035 384.304 120.339 384.512 120.827 384.512ZM124.565 385H123.813V379.112H124.565V385ZM125.472 383.048C125.472 381.824 126.248 380.976 127.392 380.976C128.376 380.976 129.064 381.536 129.2 382.408H128.448C128.32 381.912 127.92 381.648 127.416 381.648C126.704 381.648 126.216 382.192 126.216 383.04C126.216 383.88 126.672 384.424 127.384 384.424C127.92 384.424 128.32 384.144 128.456 383.68H129.208C129.056 384.528 128.328 385.096 127.384 385.096C126.232 385.096 125.472 384.28 125.472 383.048ZM132.761 381.088H133.505V385H132.833L132.753 384.408C132.529 384.816 132.009 385.096 131.433 385.096C130.521 385.096 130.009 384.48 130.009 383.52V381.088H130.761V383.272C130.761 384.112 131.121 384.432 131.697 384.432C132.385 384.432 132.761 383.992 132.761 383.152V381.088ZM135.42 385H134.668V379.112H135.42V385ZM137.727 385.096C136.887 385.096 136.391 384.624 136.391 383.912C136.391 383.192 136.927 382.744 137.847 382.672L139.079 382.576V382.464C139.079 381.808 138.687 381.576 138.159 381.576C137.527 381.576 137.167 381.856 137.167 382.328H136.511C136.511 381.512 137.183 380.976 138.191 380.976C139.159 380.976 139.815 381.488 139.815 382.544V385H139.175L139.095 384.368C138.895 384.816 138.359 385.096 137.727 385.096ZM137.943 384.512C138.655 384.512 139.087 384.048 139.087 383.312V383.104L138.087 383.184C137.423 383.248 137.151 383.504 137.151 383.888C137.151 384.304 137.455 384.512 137.943 384.512ZM141.954 385H141.202V381.72H140.434V381.088H141.202V379.864H141.954V381.088H142.722V381.72H141.954V385ZM143.821 380.16C143.549 380.16 143.325 379.936 143.325 379.664C143.325 379.384 143.549 379.168 143.821 379.168C144.093 379.168 144.317 379.384 144.317 379.664C144.317 379.936 144.093 380.16 143.821 380.16ZM143.453 385V381.088H144.205V385H143.453ZM146.105 385H145.353V381.088H146.033L146.113 381.688C146.361 381.24 146.857 380.976 147.409 380.976C148.441 380.976 148.913 381.608 148.913 382.608V385H148.161V382.776C148.161 381.984 147.793 381.664 147.217 381.664C146.513 381.664 146.105 382.168 146.105 382.928V385ZM149.762 382.944C149.762 381.84 150.474 380.976 151.61 380.976C152.242 380.976 152.73 381.264 152.978 381.752L153.034 381.088H153.706V384.84C153.706 386.072 152.946 386.856 151.746 386.856C150.682 386.856 149.954 386.256 149.81 385.264H150.562C150.658 385.84 151.09 386.176 151.746 386.176C152.482 386.176 152.962 385.696 152.962 384.952V384.168C152.706 384.624 152.194 384.896 151.578 384.896C150.466 384.896 149.762 384.04 149.762 382.944ZM150.514 382.928C150.514 383.664 150.97 384.24 151.706 384.24C152.466 384.24 152.93 383.696 152.93 382.928C152.93 382.176 152.482 381.632 151.714 381.632C150.962 381.632 150.514 382.208 150.514 382.928ZM159.619 385.088C157.971 385.088 156.875 383.904 156.875 382.112C156.875 380.328 158.003 379.12 159.659 379.12C160.963 379.12 161.963 379.896 162.179 381.08H161.339C161.123 380.328 160.475 379.872 159.635 379.872C158.467 379.872 157.699 380.752 157.699 382.104C157.699 383.456 158.467 384.336 159.635 384.336C160.483 384.336 161.155 383.88 161.371 383.168H162.203C161.955 384.32 160.923 385.088 159.619 385.088ZM165.332 381.056V381.744H164.996C164.284 381.744 163.844 382.176 163.844 382.928V385H163.092V381.096H163.796L163.844 381.688C164.004 381.28 164.396 381.008 164.932 381.008C165.068 381.008 165.18 381.024 165.332 381.056ZM167.641 385.096C166.489 385.096 165.697 384.264 165.697 383.048C165.697 381.824 166.473 380.976 167.609 380.976C168.721 380.976 169.449 381.744 169.449 382.904V383.184L166.425 383.192C166.481 384.016 166.913 384.472 167.657 384.472C168.241 384.472 168.625 384.232 168.753 383.784H169.457C169.265 384.624 168.609 385.096 167.641 385.096ZM167.609 381.608C166.953 381.608 166.537 382 166.441 382.688H168.697C168.697 382.04 168.273 381.608 167.609 381.608ZM171.913 385.096C170.777 385.096 170.089 384.248 170.089 383.056C170.089 381.856 170.785 380.976 171.945 380.976C172.545 380.976 173.049 381.24 173.313 381.72V379.112H174.057V385H173.385L173.321 384.288C173.065 384.824 172.537 385.096 171.913 385.096ZM172.065 384.416C172.833 384.416 173.305 383.848 173.305 383.032C173.305 382.232 172.833 381.656 172.065 381.656C171.297 381.656 170.849 382.232 170.849 383.032C170.849 383.84 171.297 384.416 172.065 384.416ZM175.566 380.16C175.294 380.16 175.07 379.936 175.07 379.664C175.07 379.384 175.294 379.168 175.566 379.168C175.838 379.168 176.062 379.384 176.062 379.664C176.062 379.936 175.838 380.16 175.566 380.16ZM175.198 385V381.088H175.95V385H175.198ZM178.202 385H177.45V381.72H176.682V381.088H177.45V379.864H178.202V381.088H178.97V381.72H178.202V385ZM181.736 380.776C181.736 379.784 182.536 379.112 183.728 379.112C184.832 379.112 185.544 379.728 185.608 380.728H184.816C184.776 380.152 184.368 379.816 183.72 379.816C182.992 379.816 182.52 380.184 182.52 380.752C182.52 381.216 182.784 381.496 183.328 381.624L184.28 381.848C185.224 382.064 185.704 382.576 185.704 383.392C185.704 384.432 184.896 385.096 183.664 385.096C182.488 385.096 181.704 384.48 181.656 383.488H182.456C182.472 384.04 182.936 384.392 183.664 384.392C184.432 384.392 184.92 384.032 184.92 383.456C184.92 383 184.672 382.712 184.12 382.584L183.168 382.368C182.224 382.152 181.736 381.608 181.736 380.776ZM186.361 383.048C186.361 381.824 187.137 380.976 188.281 380.976C189.265 380.976 189.953 381.536 190.089 382.408H189.337C189.209 381.912 188.809 381.648 188.305 381.648C187.593 381.648 187.105 382.192 187.105 383.04C187.105 383.88 187.561 384.424 188.273 384.424C188.809 384.424 189.209 384.144 189.345 383.68H190.097C189.945 384.528 189.217 385.096 188.273 385.096C187.121 385.096 186.361 384.28 186.361 383.048ZM190.691 383.04C190.691 381.832 191.555 380.984 192.731 380.984C193.899 380.984 194.763 381.832 194.763 383.04C194.763 384.248 193.899 385.096 192.731 385.096C191.555 385.096 190.691 384.248 190.691 383.04ZM191.451 383.04C191.451 383.856 191.971 384.424 192.731 384.424C193.483 384.424 194.011 383.856 194.011 383.04C194.011 382.224 193.483 381.656 192.731 381.656C191.971 381.656 191.451 382.224 191.451 383.04ZM197.891 381.056V381.744H197.555C196.843 381.744 196.403 382.176 196.403 382.928V385H195.651V381.096H196.355L196.403 381.688C196.563 381.28 196.955 381.008 197.491 381.008C197.627 381.008 197.739 381.024 197.891 381.056ZM200.2 385.096C199.048 385.096 198.256 384.264 198.256 383.048C198.256 381.824 199.032 380.976 200.168 380.976C201.28 380.976 202.008 381.744 202.008 382.904V383.184L198.984 383.192C199.04 384.016 199.472 384.472 200.216 384.472C200.8 384.472 201.184 384.232 201.312 383.784H202.016C201.824 384.624 201.168 385.096 200.2 385.096ZM200.168 381.608C199.512 381.608 199.096 382 199 382.688H201.256C201.256 382.04 200.832 381.608 200.168 381.608ZM203.221 385.096C202.909 385.096 202.645 384.84 202.645 384.536C202.645 384.224 202.909 383.968 203.221 383.968C203.525 383.968 203.789 384.224 203.789 384.536C203.789 384.84 203.525 385.096 203.221 385.096ZM205.488 385.096C205.176 385.096 204.912 384.84 204.912 384.536C204.912 384.224 205.176 383.968 205.488 383.968C205.792 383.968 206.056 384.224 206.056 384.536C206.056 384.84 205.792 385.096 205.488 385.096ZM207.755 385.096C207.443 385.096 207.179 384.84 207.179 384.536C207.179 384.224 207.443 383.968 207.755 383.968C208.059 383.968 208.323 384.224 208.323 384.536C208.323 384.84 208.059 385.096 207.755 385.096Z" fill="#77A701"/>
<path d="M133.548 401.132C131.148 401.132 129.516 399.344 129.516 396.704C129.516 394.064 131.172 392.264 133.596 392.264C135.444 392.264 136.896 393.38 137.244 395.084H136.32C135.96 393.848 134.904 393.092 133.56 393.092C131.676 393.092 130.416 394.532 130.416 396.704C130.416 398.864 131.676 400.304 133.56 400.304C134.916 400.304 135.996 399.572 136.368 398.42H137.292C136.896 400.04 135.396 401.132 133.548 401.132ZM142.806 395.192H143.634V401H142.914L142.806 400.016C142.482 400.688 141.678 401.144 140.766 401.144C139.398 401.144 138.654 400.208 138.654 398.792V395.18H139.494V398.528C139.494 399.908 140.106 400.4 141.03 400.4C142.146 400.4 142.806 399.656 142.806 398.276V395.192ZM144.87 399.368H145.662C145.662 400.04 146.166 400.46 146.982 400.46C147.882 400.46 148.41 400.076 148.41 399.452C148.41 398.972 148.17 398.696 147.486 398.528L146.49 398.276C145.482 398.024 144.99 397.496 144.99 396.704C144.99 395.684 145.842 395.036 147.09 395.036C148.314 395.036 149.106 395.708 149.142 396.788H148.338C148.314 396.116 147.846 395.72 147.066 395.72C146.25 395.72 145.794 396.068 145.794 396.692C145.794 397.136 146.106 397.448 146.742 397.604L147.738 397.856C148.746 398.108 149.202 398.576 149.202 399.416C149.202 400.46 148.314 401.144 146.994 401.144C145.686 401.144 144.87 400.448 144.87 399.368ZM152.017 401H151.201V395.888H150.037V395.192H151.201V393.356H152.017V395.192H153.181V395.888H152.017V401ZM153.913 398.096C153.913 396.32 155.161 395.036 156.865 395.036C158.569 395.036 159.817 396.32 159.817 398.096C159.817 399.86 158.569 401.144 156.865 401.144C155.161 401.144 153.913 399.86 153.913 398.096ZM154.753 398.084C154.753 399.452 155.617 400.4 156.865 400.4C158.101 400.4 158.977 399.452 158.977 398.084C158.977 396.74 158.101 395.78 156.865 395.78C155.617 395.78 154.753 396.74 154.753 398.084ZM162.089 401H161.261V395.192H161.981L162.077 396.02C162.365 395.408 163.013 395.036 163.829 395.036C164.741 395.036 165.425 395.516 165.701 396.272C165.965 395.516 166.673 395.036 167.609 395.036C168.869 395.036 169.697 395.852 169.697 397.196V401H168.893V397.364C168.893 396.368 168.341 395.78 167.453 395.78C166.481 395.78 165.905 396.512 165.905 397.412V401H165.089V397.352C165.089 396.368 164.525 395.792 163.649 395.792C162.677 395.792 162.089 396.512 162.089 397.4V401ZM173.918 401.144C172.214 401.144 171.074 399.92 171.074 398.096C171.074 396.284 172.202 395.036 173.858 395.036C175.43 395.036 176.498 396.152 176.498 397.796V398.204H171.878C171.938 399.62 172.682 400.436 173.93 400.436C174.878 400.436 175.49 400.028 175.706 399.26H176.498C176.186 400.484 175.286 401.144 173.918 401.144ZM173.858 395.744C172.766 395.744 172.046 396.464 171.902 397.604H175.67C175.67 396.488 174.95 395.744 173.858 395.744ZM180.978 395.12V395.864H180.522C179.454 395.864 178.77 396.584 178.77 397.688V401H177.942V395.192H178.722L178.782 396.092C179.01 395.468 179.622 395.06 180.438 395.06C180.618 395.06 180.774 395.072 180.978 395.12ZM185.827 401H184.951L188.107 392.408H189.175L192.367 401H191.467L190.627 398.72H186.667L185.827 401ZM188.527 393.62L186.931 397.964H190.351L188.743 393.62C188.707 393.5 188.647 393.356 188.635 393.272C188.623 393.344 188.575 393.5 188.527 393.62Z" fill="#2F3A35"/>
<path d="M165 249L60 60.5" stroke="url(#paint0_linear_424_10519)" stroke-dasharray="2 2"/>
<path d="M165 249L55 162.5" stroke="url(#paint1_linear_424_10519)" stroke-dasharray="2 2"/>
<path d="M165 249L220 75" stroke="url(#paint2_linear_424_10519)" stroke-dasharray="2 2"/>
<path d="M165 249L279 179" stroke="url(#paint3_linear_424_10519)" stroke-dasharray="2 2"/>
<path opacity="0.2" d="M165 249L332 -16" stroke="url(#paint4_linear_424_10519)"/>
<path opacity="0.2" d="M165 249L122 -24" stroke="url(#paint5_linear_424_10519)"/>
<mask id="path-23-inside-1_424_10519" fill="white">
<path d="M1 94H109.524V161.865H1V94Z"/>
</mask>
<path d="M1 94H109.524V161.865H1V94Z" fill="#E4F0C5"/>
<path d="M9.74339 108.488V106.275H12.2122V108.488H12.888V103.503H12.2122V105.647H9.74339V103.503H9.06756V108.488H9.74339ZM14.3892 104.316C14.6237 104.316 14.8168 104.123 14.8168 103.889C14.8168 103.647 14.6237 103.461 14.3892 103.461C14.1547 103.461 13.9616 103.647 13.9616 103.889C13.9616 104.123 14.1547 104.316 14.3892 104.316ZM14.072 108.488H14.7202V105.116H14.072V108.488ZM15.5234 107.509C15.5234 108.151 16.0268 108.571 16.8199 108.571C17.6199 108.571 18.1716 108.164 18.1716 107.523C18.1716 107.02 17.8888 106.758 17.3164 106.62L16.7234 106.475C16.3923 106.392 16.2268 106.24 16.2268 106.013C16.2268 105.702 16.4544 105.523 16.8613 105.523C17.2544 105.523 17.4819 105.737 17.4957 106.075H18.1164C18.1026 105.433 17.6199 105.02 16.882 105.02C16.1372 105.02 15.6131 105.413 15.6131 106.033C15.6131 106.53 15.8958 106.826 16.4958 106.971L17.0889 107.109C17.4406 107.199 17.5509 107.337 17.5509 107.564C17.5509 107.875 17.2888 108.061 16.8337 108.061C16.4061 108.061 16.1441 107.854 16.1441 107.509H15.5234ZM19.98 108.488V105.661H20.6421V105.116H19.98V104.061H19.3318V105.116H18.6698V105.661H19.3318V108.488H19.98ZM21.1074 106.799C21.1074 107.84 21.8522 108.571 22.8659 108.571C23.8728 108.571 24.6176 107.84 24.6176 106.799C24.6176 105.758 23.8728 105.027 22.8659 105.027C21.8522 105.027 21.1074 105.758 21.1074 106.799ZM21.7625 106.799C21.7625 106.095 22.2108 105.606 22.8659 105.606C23.5142 105.606 23.9693 106.095 23.9693 106.799C23.9693 107.502 23.5142 107.992 22.8659 107.992C22.2108 107.992 21.7625 107.502 21.7625 106.799ZM27.404 105.089C27.273 105.061 27.1764 105.047 27.0592 105.047C26.5971 105.047 26.2592 105.282 26.1213 105.633L26.0799 105.123H25.4731V108.488H26.1213V106.702C26.1213 106.054 26.5006 105.682 27.1143 105.682H27.404V105.089ZM28.4671 104.316C28.7016 104.316 28.8947 104.123 28.8947 103.889C28.8947 103.647 28.7016 103.461 28.4671 103.461C28.2327 103.461 28.0396 103.647 28.0396 103.889C28.0396 104.123 28.2327 104.316 28.4671 104.316ZM28.1499 108.488H28.7981V105.116H28.1499V108.488ZM29.6565 106.806C29.6565 107.868 30.3116 108.571 31.3047 108.571C32.1184 108.571 32.746 108.082 32.877 107.351H32.2288C32.1116 107.751 31.7667 107.992 31.3047 107.992C30.6909 107.992 30.2979 107.523 30.2979 106.799C30.2979 106.068 30.7185 105.599 31.3323 105.599C31.7667 105.599 32.1116 105.827 32.2219 106.254H32.8701C32.7529 105.502 32.1598 105.02 31.3116 105.02C30.3254 105.02 29.6565 105.751 29.6565 106.806ZM34.6851 108.571C35.2299 108.571 35.6919 108.33 35.8643 107.944L35.9333 108.488H36.485V106.371C36.485 105.461 35.9195 105.02 35.085 105.02C34.2161 105.02 33.6368 105.482 33.6368 106.185H34.2023C34.2023 105.778 34.5127 105.537 35.0575 105.537C35.5126 105.537 35.8505 105.737 35.8505 106.302V106.399L34.7885 106.482C33.9955 106.544 33.5334 106.93 33.5334 107.551C33.5334 108.164 33.961 108.571 34.6851 108.571ZM34.8713 108.068C34.4506 108.068 34.1885 107.888 34.1885 107.53C34.1885 107.199 34.423 106.978 34.9954 106.923L35.8574 106.854V107.033C35.8574 107.668 35.485 108.068 34.8713 108.068ZM38.1827 108.488V103.413H37.5344V108.488H38.1827ZM43.057 108.488C44.5328 108.488 45.5258 107.482 45.5258 105.999C45.5258 104.509 44.519 103.503 43.0294 103.503H41.4088V108.488H43.057ZM42.9811 104.123C44.119 104.123 44.8224 104.84 44.8224 105.999C44.8224 107.144 44.119 107.861 43.0087 107.861H42.0846V104.123H42.9811ZM47.3994 108.571C47.9442 108.571 48.4062 108.33 48.5786 107.944L48.6476 108.488H49.1993V106.371C49.1993 105.461 48.6338 105.02 47.7994 105.02C46.9304 105.02 46.3512 105.482 46.3512 106.185H46.9166C46.9166 105.778 47.227 105.537 47.7718 105.537C48.2269 105.537 48.5648 105.737 48.5648 106.302V106.399L47.5028 106.482C46.7098 106.544 46.2477 106.93 46.2477 107.551C46.2477 108.164 46.6753 108.571 47.3994 108.571ZM47.5856 108.068C47.1649 108.068 46.9029 107.888 46.9029 107.53C46.9029 107.199 47.1373 106.978 47.7097 106.923L48.5717 106.854V107.033C48.5717 107.668 48.1993 108.068 47.5856 108.068ZM51.1328 108.488V105.661H51.7948V105.116H51.1328V104.061H50.4845V105.116H49.8225V105.661H50.4845V108.488H51.1328ZM53.4602 108.571C54.005 108.571 54.4671 108.33 54.6395 107.944L54.7084 108.488H55.2601V106.371C55.2601 105.461 54.6946 105.02 53.8602 105.02C52.9913 105.02 52.412 105.482 52.412 106.185H52.9775C52.9775 105.778 53.2878 105.537 53.8326 105.537C54.2878 105.537 54.6257 105.737 54.6257 106.302V106.399L53.5637 106.482C52.7706 106.544 52.3086 106.93 52.3086 107.551C52.3086 108.164 52.7361 108.571 53.4602 108.571ZM53.6464 108.068C53.2257 108.068 52.9637 107.888 52.9637 107.53C52.9637 107.199 53.1982 106.978 53.7705 106.923L54.6326 106.854V107.033C54.6326 107.668 54.2602 108.068 53.6464 108.068Z" fill="#0C1612"/>
<path d="M96.6792 107.677V107.441H97.4073V107.677H96.6792ZM95.8472 106.559V106.323H98.2393V106.559H95.8472ZM95.2231 105.441V105.205H98.8634V105.441H95.2231Z" fill="#0C1612"/>
<path d="M13.98 137.563C13.98 137.15 14.3153 136.815 14.7288 136.815H19.3908C19.8044 136.815 20.1396 137.15 20.1396 137.563V154.377H13.98V137.563Z" fill="#C0E36A"/>
<path d="M20.1396 129.908C20.1396 129.495 20.4749 129.159 20.8885 129.159H25.5505C25.964 129.159 26.2993 129.495 26.2993 129.908V154.377H20.1396V129.908Z" fill="#00954A"/>
<path d="M31.5413 140.716C31.5413 140.302 31.8765 139.967 32.2901 139.967H36.9521C37.3656 139.967 37.7009 140.302 37.7009 140.716V154.377H31.5413V140.716Z" fill="#C0E36A"/>
<path d="M37.7009 133.06C37.7009 132.647 38.0362 132.311 38.4498 132.311H43.1117C43.5253 132.311 43.8606 132.647 43.8606 133.06V154.377H37.7009V133.06Z" fill="#00954A"/>
<path d="M49.1025 138.464C49.1025 138.05 49.4378 137.715 49.8514 137.715H54.5133C54.9269 137.715 55.2622 138.05 55.2622 138.464V154.377H49.1025V138.464Z" fill="#C0E36A"/>
<path d="M55.2622 132.16C55.2622 131.746 55.5975 131.411 56.0111 131.411H60.673C61.0866 131.411 61.4219 131.746 61.4219 132.16V154.377H55.2622V132.16Z" fill="#00954A"/>
<path d="M66.6638 131.709C66.6638 131.296 66.9991 130.961 67.4127 130.961H72.0746C72.4882 130.961 72.8235 131.296 72.8235 131.709V154.377H66.6638V131.709Z" fill="#C0E36A"/>
<path d="M72.8235 135.312C72.8235 134.898 73.1588 134.563 73.5723 134.563H78.2343C78.6479 134.563 78.9831 134.898 78.9831 135.312V154.377H72.8235V135.312Z" fill="#00954A"/>
<path d="M84.2251 140.716C84.2251 140.302 84.5604 139.967 84.9739 139.967H89.6359C90.0495 139.967 90.3847 140.302 90.3847 140.716V154.377H84.2251V140.716Z" fill="#C0E36A"/>
<path d="M90.3848 132.16C90.3848 131.746 90.72 131.411 91.1336 131.411H95.7956C96.2091 131.411 96.5444 131.746 96.5444 132.16V154.377H90.3848V132.16Z" fill="#00954A"/>
<path d="M109.35 94V161.865H109.699V94H109.35Z" fill="#EAEDD6" mask="url(#path-23-inside-1_424_10519)"/>
<rect x="225" y="115" width="107" height="63.9442" rx="1.27888" fill="white"/>
<path d="M234.505 129.484C235.825 129.484 236.87 128.706 237.121 127.54H236.279C236.06 128.26 235.38 128.722 234.521 128.722C233.338 128.722 232.561 127.831 232.561 126.462C232.561 125.094 233.338 124.203 234.521 124.203C235.371 124.203 236.028 124.664 236.246 125.426H237.097C236.878 124.227 235.866 123.441 234.545 123.441C232.869 123.441 231.727 124.664 231.727 126.47C231.727 128.285 232.836 129.484 234.505 129.484ZM240.395 125.401C240.241 125.369 240.127 125.353 239.99 125.353C239.447 125.353 239.05 125.628 238.888 126.041L238.839 125.442H238.127V129.394H238.888V127.297C238.888 126.535 239.333 126.098 240.054 126.098H240.395V125.401ZM242.837 129.492C243.817 129.492 244.481 129.014 244.676 128.163H243.963C243.833 128.617 243.445 128.86 242.853 128.86C242.1 128.86 241.663 128.398 241.606 127.564L244.668 127.556V127.272C244.668 126.098 243.931 125.32 242.805 125.32C241.655 125.32 240.869 126.179 240.869 127.418C240.869 128.649 241.671 129.492 242.837 129.492ZM242.805 125.96C243.477 125.96 243.906 126.398 243.906 127.054H241.622C241.719 126.357 242.141 125.96 242.805 125.96ZM247.268 129.492C247.899 129.492 248.434 129.216 248.693 128.674L248.758 129.394H249.438V123.433H248.685V126.074C248.418 125.588 247.908 125.32 247.3 125.32C246.126 125.32 245.421 126.211 245.421 127.426C245.421 128.633 246.118 129.492 247.268 129.492ZM247.422 128.803C246.644 128.803 246.19 128.22 246.19 127.402C246.19 126.592 246.644 126.009 247.422 126.009C248.199 126.009 248.677 126.592 248.677 127.402C248.677 128.228 248.199 128.803 247.422 128.803ZM251.071 124.494C251.347 124.494 251.573 124.267 251.573 123.992C251.573 123.708 251.347 123.49 251.071 123.49C250.796 123.49 250.569 123.708 250.569 123.992C250.569 124.267 250.796 124.494 251.071 124.494ZM250.699 129.394H251.46V125.434H250.699V129.394ZM253.845 129.394V126.074H254.623V125.434H253.845V124.194H253.084V125.434H252.306V126.074H253.084V129.394H253.845ZM257.974 129.394H260.291C261.449 129.394 262.154 128.803 262.154 127.831C262.154 127.135 261.822 126.665 261.174 126.454C261.757 126.211 262.048 125.758 262.048 125.085C262.048 124.122 261.352 123.538 260.21 123.538H257.974V129.394ZM260.161 124.243C260.85 124.243 261.238 124.575 261.238 125.158C261.238 125.766 260.866 126.122 260.21 126.122H258.768V124.243H260.161ZM260.275 126.811C260.947 126.811 261.336 127.151 261.336 127.734C261.336 128.341 260.955 128.69 260.275 128.69H258.768V126.811H260.275ZM265.917 125.434V127.523C265.917 128.374 265.537 128.819 264.84 128.819C264.257 128.819 263.892 128.495 263.892 127.645V125.434H263.131V127.896C263.131 128.868 263.649 129.492 264.573 129.492C265.156 129.492 265.682 129.208 265.909 128.795L265.99 129.394H266.671V125.434H265.917ZM270.205 125.401C270.051 125.369 269.938 125.353 269.8 125.353C269.258 125.353 268.861 125.628 268.699 126.041L268.65 125.442H267.937V129.394H268.699V127.297C268.699 126.535 269.144 126.098 269.865 126.098H270.205V125.401ZM272.648 129.492C273.628 129.492 274.292 129.014 274.487 128.163H273.774C273.644 128.617 273.255 128.86 272.664 128.86C271.911 128.86 271.473 128.398 271.417 127.564L274.478 127.556V127.272C274.478 126.098 273.741 125.32 272.615 125.32C271.465 125.32 270.68 126.179 270.68 127.418C270.68 128.649 271.482 129.492 272.648 129.492ZM272.615 125.96C273.288 125.96 273.717 126.398 273.717 127.054H271.433C271.53 126.357 271.951 125.96 272.615 125.96ZM276.609 129.492C277.249 129.492 277.792 129.208 277.995 128.755L278.076 129.394H278.723V126.908C278.723 125.839 278.059 125.32 277.079 125.32C276.059 125.32 275.378 125.863 275.378 126.689H276.043C276.043 126.211 276.407 125.928 277.047 125.928C277.581 125.928 277.978 126.163 277.978 126.827V126.94L276.731 127.037C275.8 127.11 275.257 127.564 275.257 128.293C275.257 129.014 275.759 129.492 276.609 129.492ZM276.828 128.9C276.334 128.9 276.026 128.69 276.026 128.269C276.026 127.88 276.302 127.621 276.974 127.556L277.986 127.475V127.685C277.986 128.431 277.549 128.9 276.828 128.9ZM282.678 125.434V127.523C282.678 128.374 282.297 128.819 281.6 128.819C281.017 128.819 280.653 128.495 280.653 127.645V125.434H279.891V127.896C279.891 128.868 280.41 129.492 281.333 129.492C281.916 129.492 282.443 129.208 282.669 128.795L282.75 129.394H283.431V125.434H282.678ZM286.864 125.118C286.864 125.96 287.358 126.511 288.313 126.73L289.277 126.948C289.836 127.078 290.087 127.37 290.087 127.831C290.087 128.414 289.593 128.779 288.816 128.779C288.079 128.779 287.609 128.422 287.593 127.864H286.783C286.831 128.868 287.625 129.492 288.816 129.492C290.063 129.492 290.881 128.819 290.881 127.766C290.881 126.94 290.395 126.422 289.439 126.203L288.475 125.976C287.925 125.847 287.657 125.563 287.657 125.094C287.657 124.518 288.135 124.146 288.872 124.146C289.528 124.146 289.941 124.486 289.982 125.069H290.784C290.719 124.057 289.998 123.433 288.88 123.433C287.674 123.433 286.864 124.113 286.864 125.118ZM291.652 127.418C291.652 128.665 292.421 129.492 293.587 129.492C294.543 129.492 295.28 128.917 295.434 128.058H294.673C294.535 128.528 294.13 128.811 293.587 128.811C292.867 128.811 292.405 128.26 292.405 127.41C292.405 126.551 292.899 126.001 293.62 126.001C294.13 126.001 294.535 126.268 294.665 126.77H295.426C295.288 125.887 294.592 125.32 293.596 125.32C292.437 125.32 291.652 126.179 291.652 127.418ZM296.14 127.41C296.14 128.633 297.015 129.492 298.206 129.492C299.388 129.492 300.263 128.633 300.263 127.41C300.263 126.187 299.388 125.328 298.206 125.328C297.015 125.328 296.14 126.187 296.14 127.41ZM296.91 127.41C296.91 126.584 297.436 126.009 298.206 126.009C298.967 126.009 299.502 126.584 299.502 127.41C299.502 128.236 298.967 128.811 298.206 128.811C297.436 128.811 296.91 128.236 296.91 127.41ZM303.536 125.401C303.382 125.369 303.268 125.353 303.131 125.353C302.588 125.353 302.191 125.628 302.029 126.041L301.981 125.442H301.268V129.394H302.029V127.297C302.029 126.535 302.475 126.098 303.195 126.098H303.536V125.401ZM305.978 129.492C306.958 129.492 307.623 129.014 307.817 128.163H307.104C306.975 128.617 306.586 128.86 305.995 128.86C305.241 128.86 304.804 128.398 304.747 127.564L307.809 127.556V127.272C307.809 126.098 307.072 125.32 305.946 125.32C304.796 125.32 304.01 126.179 304.01 127.418C304.01 128.649 304.812 129.492 305.978 129.492ZM305.946 125.96C306.618 125.96 307.048 126.398 307.048 127.054H304.763C304.861 126.357 305.282 125.96 305.946 125.96Z" fill="#496403"/>
<path d="M234.766 162.525H234.397V166.187H236.449V165.85H234.766V162.525ZM236.735 164.949C236.735 165.701 237.267 166.249 237.994 166.249C238.72 166.249 239.252 165.701 239.252 164.949C239.252 164.192 238.72 163.645 237.994 163.645C237.267 163.645 236.735 164.192 236.735 164.949ZM237.093 164.944C237.093 164.371 237.462 163.962 237.994 163.962C238.52 163.962 238.894 164.371 238.894 164.944C238.894 165.527 238.52 165.931 237.994 165.931C237.462 165.931 237.093 165.527 237.093 164.944ZM240.264 166.187H240.617L241.129 164.632C241.195 164.428 241.236 164.279 241.272 164.146C241.303 164.295 241.344 164.448 241.405 164.632L241.917 166.187H242.259L243.098 163.711H242.73L242.239 165.205C242.152 165.471 242.142 165.532 242.09 165.737C242.044 165.553 241.983 165.338 241.937 165.205L241.451 163.711H241.088L240.597 165.205C240.571 165.287 240.489 165.538 240.448 165.737C240.397 165.538 240.351 165.369 240.295 165.205L239.809 163.711H239.446L240.264 166.187Z" fill="#496403"/>
<path d="M313.204 166.187V164.499H315.183V166.187H315.547V162.525H315.183V164.156H313.204V162.525H312.835V166.187H313.204ZM316.575 163.031C316.719 163.031 316.841 162.913 316.841 162.77C316.841 162.627 316.719 162.504 316.575 162.504C316.432 162.504 316.314 162.627 316.314 162.77C316.314 162.913 316.432 163.031 316.575 163.031ZM316.401 166.187H316.754V163.711H316.401V166.187ZM317.357 164.878C317.357 165.553 317.787 166.111 318.493 166.111C318.918 166.111 319.26 165.906 319.429 165.558V166.146C319.429 166.663 319.092 167.006 318.585 167.006C318.14 167.006 317.833 166.77 317.756 166.371H317.403C317.501 166.97 317.946 167.328 318.58 167.328C319.306 167.328 319.777 166.847 319.777 166.111V163.711H319.47L319.434 164.208C319.276 163.844 318.948 163.645 318.519 163.645C317.792 163.645 317.357 164.202 317.357 164.878ZM317.71 164.873C317.71 164.371 318.017 163.957 318.549 163.957C319.092 163.957 319.399 164.346 319.399 164.873C319.399 165.405 319.081 165.793 318.544 165.793C318.022 165.793 317.71 165.379 317.71 164.873ZM320.902 166.182V164.837C320.902 164.361 321.179 163.967 321.711 163.967C322.094 163.967 322.365 164.172 322.365 164.75V166.187H322.718V164.673C322.718 164.049 322.427 163.645 321.777 163.645C321.363 163.645 321.061 163.844 320.902 164.141V162.458H320.549V166.182H320.902Z" fill="#496403"/>
<path fill-rule="evenodd" clip-rule="evenodd" d="M249.725 166.582C250.176 150.966 262.976 138.446 278.701 138.446C294.425 138.446 307.226 150.966 307.677 166.582H302.132C301.683 154.028 291.365 143.988 278.701 143.988C266.037 143.988 255.719 154.028 255.27 166.582H249.725Z" fill="#AEDC3D"/>
<mask id="mask0_424_10519" style="mask-type:alpha" maskUnits="userSpaceOnUse" x="249" y="138" width="59" height="29">
<path d="M249.725 166.582C250.176 150.966 262.976 138.446 278.701 138.446C294.425 138.446 307.226 150.966 307.677 166.582H302.132C301.683 154.028 291.364 143.988 278.701 143.988C266.037 143.988 255.719 154.028 255.27 166.582H249.725Z" fill="#AEDC3D"/>
</mask>
<g mask="url(#mask0_424_10519)">
<path d="M278.926 167.008L257.398 145.054H247.381L244.61 167.008H278.926Z" fill="#F6F7F2"/>
<path d="M279.353 167.434L257.185 144.841L269.335 134.61L279.353 167.434Z" fill="#EAEDD6"/>
<path d="M279.353 167.221L270.187 137.594L286.813 135.249L279.353 167.221Z" fill="#D2EA97"/>
<path d="M279.353 167.008L286.173 138.02L300.667 144.201L279.353 167.008Z" fill="#C0E36A"/>
</g>
<path d="M271.253 141.643L277.181 165.559C277.33 166.16 277.869 166.582 278.488 166.582C279.425 166.582 280.076 165.649 279.752 164.77L271.253 141.643Z" fill="#77A701"/>
<circle cx="165" cy="249" r="3" fill="#7EAD0D"/>
<rect x="185" y="19" width="69.7273" height="58.5091" rx="1.04151" fill="#E4F0C5"/>
<path d="M195.191 35.3636H195.954L197.36 30.8188L198.751 35.3636H199.497L201.23 29.619H200.435L199.378 33.1389C199.299 33.3931 199.219 33.6871 199.124 34.1718C199.037 33.7427 198.957 33.4408 198.862 33.1309L197.781 29.619H196.939L195.85 33.1309C195.763 33.4328 195.676 33.7109 195.58 34.1718C195.501 33.7348 195.421 33.4328 195.342 33.1309L194.293 29.619H193.483L195.191 35.3636ZM203.219 35.4589C204.181 35.4589 204.832 34.9902 205.023 34.1559H204.324C204.196 34.6008 203.815 34.8392 203.235 34.8392C202.496 34.8392 202.067 34.3863 202.011 33.5679L205.015 33.56V33.2819C205.015 32.1298 204.292 31.367 203.187 31.367C202.059 31.367 201.288 32.2092 201.288 33.4249C201.288 34.6326 202.075 35.4589 203.219 35.4589ZM203.187 31.9947C203.847 31.9947 204.268 32.4238 204.268 33.0674H202.027C202.123 32.384 202.536 31.9947 203.187 31.9947ZM206.683 35.3636L206.739 34.6564C206.993 35.1888 207.51 35.4589 208.121 35.4589C209.25 35.4589 209.949 34.6167 209.949 33.4408C209.949 32.241 209.281 31.367 208.169 31.367C207.533 31.367 207.009 31.6372 206.755 32.1457V29.5157H206.008V35.3636H206.683ZM206.763 33.409C206.763 32.6145 207.224 32.0424 207.986 32.0424C208.749 32.0424 209.202 32.6145 209.202 33.409C209.202 34.2115 208.749 34.7836 207.986 34.7836C207.224 34.7836 206.763 34.2194 206.763 33.409ZM213.056 31.1684C213.056 31.9947 213.541 32.535 214.478 32.7495L215.424 32.9641C215.972 33.0912 216.218 33.3772 216.218 33.8301C216.218 34.4022 215.734 34.7597 214.971 34.7597C214.248 34.7597 213.787 34.4101 213.771 33.8619H212.976C213.024 34.8471 213.803 35.4589 214.971 35.4589C216.194 35.4589 216.997 34.7995 216.997 33.7666C216.997 32.9561 216.52 32.4476 215.583 32.2331L214.637 32.0106C214.097 31.8835 213.835 31.6054 213.835 31.1446C213.835 30.5804 214.303 30.2149 215.026 30.2149C215.67 30.2149 216.075 30.5486 216.115 31.1207H216.901C216.838 30.1275 216.131 29.5157 215.034 29.5157C213.85 29.5157 213.056 30.1832 213.056 31.1684ZM217.753 33.4249C217.753 34.6485 218.508 35.4589 219.652 35.4589C220.589 35.4589 221.312 34.8948 221.463 34.0526H220.716C220.581 34.5134 220.184 34.7915 219.652 34.7915C218.945 34.7915 218.492 34.2512 218.492 33.417C218.492 32.5747 218.976 32.0344 219.684 32.0344C220.184 32.0344 220.581 32.2966 220.709 32.7893H221.455C221.32 31.9232 220.637 31.367 219.66 31.367C218.524 31.367 217.753 32.2092 217.753 33.4249ZM224.635 31.4465C224.484 31.4147 224.373 31.3988 224.238 31.3988C223.705 31.3988 223.316 31.6689 223.157 32.0742L223.11 31.4862H222.41V35.3636H223.157V33.3057C223.157 32.5588 223.594 32.1298 224.301 32.1298H224.635V31.4465ZM226.475 35.4589C227.103 35.4589 227.635 35.1808 227.834 34.7359L227.914 35.3636H228.549V32.9243C228.549 31.8755 227.898 31.367 226.936 31.367C225.935 31.367 225.268 31.8994 225.268 32.7098H225.919C225.919 32.241 226.277 31.9629 226.905 31.9629C227.429 31.9629 227.818 32.1934 227.818 32.8449V32.9561L226.595 33.0515C225.681 33.123 225.149 33.5679 225.149 34.283C225.149 34.9902 225.641 35.4589 226.475 35.4589ZM226.69 34.8789C226.205 34.8789 225.903 34.6723 225.903 34.2592C225.903 33.8778 226.174 33.6235 226.833 33.56L227.826 33.4805V33.6871C227.826 34.4181 227.397 34.8789 226.69 34.8789ZM229.742 37.1036H230.489V34.728C230.744 35.2047 231.26 35.4669 231.88 35.4669C233.032 35.4669 233.683 34.577 233.683 33.3931C233.683 32.2013 232.992 31.367 231.88 31.367C231.26 31.367 230.736 31.6451 230.473 32.1775L230.418 31.4783H229.742V37.1036ZM230.497 33.4249C230.497 32.6145 230.958 32.0503 231.721 32.0503C232.484 32.0503 232.937 32.6224 232.937 33.4249C232.937 34.2194 232.484 34.7915 231.721 34.7915C230.958 34.7915 230.497 34.2194 230.497 33.4249ZM235.031 30.5566C235.301 30.5566 235.524 30.3341 235.524 30.064C235.524 29.7859 235.301 29.5714 235.031 29.5714C234.761 29.5714 234.538 29.7859 234.538 30.064C234.538 30.3341 234.761 30.5566 235.031 30.5566ZM234.666 35.3636H235.412V31.4783H234.666V35.3636ZM237.403 35.3636V33.3057C237.403 32.5509 237.808 32.0503 238.507 32.0503C239.079 32.0503 239.444 32.3682 239.444 33.1547V35.3636H240.191V32.9879C240.191 31.9947 239.723 31.367 238.698 31.367C238.149 31.367 237.657 31.6292 237.41 32.0742L237.331 31.4783H236.656V35.3636H237.403ZM241.138 33.3216C241.138 34.4101 241.838 35.2603 242.942 35.2603C243.554 35.2603 244.062 34.9902 244.317 34.5373V35.3159C244.317 36.0548 243.84 36.5316 243.109 36.5316C242.457 36.5316 242.028 36.1979 241.933 35.6258H241.186C241.329 36.611 242.052 37.2069 243.109 37.2069C244.301 37.2069 245.056 36.4283 245.056 35.2047V31.4783H244.388L244.332 32.1377C244.086 31.6531 243.602 31.367 242.974 31.367C241.846 31.367 241.138 32.2251 241.138 33.3216ZM241.885 33.3057C241.885 32.5906 242.33 32.0185 243.077 32.0185C243.84 32.0185 244.285 32.5588 244.285 33.3057C244.285 34.0685 243.824 34.6088 243.069 34.6088C242.338 34.6088 241.885 34.0367 241.885 33.3057Z" fill="black"/>
<path d="M218.206 59.9454L217.828 57.4315C217.541 57.3339 217.233 57.1921 216.903 57.0061C216.573 56.8201 216.288 56.623 216.049 56.415L213.71 57.4797L212.039 54.5252L214.152 52.9699C214.125 52.823 214.105 52.6627 214.092 52.489C214.08 52.3152 214.074 52.1549 214.074 52.008C214.074 51.8665 214.08 51.7089 214.092 51.5352C214.105 51.3615 214.125 51.1931 214.152 51.0301L212.039 49.4668L213.71 46.5363L216.041 47.585C216.296 47.377 216.583 47.1813 216.903 46.9979C217.222 46.8146 217.528 46.6784 217.82 46.5894L218.206 44.0546H221.522L221.9 46.5765C222.208 46.6902 222.516 46.8312 222.823 46.9995C223.131 47.1679 223.408 47.363 223.655 47.585L226.026 46.5363L227.689 49.4668L225.543 51.0205C225.582 51.1867 225.606 51.354 225.615 51.5223C225.625 51.6907 225.63 51.8499 225.63 52C225.63 52.1448 225.624 52.2992 225.611 52.4632C225.599 52.6273 225.576 52.7978 225.543 52.9747L227.681 54.5252L226.009 57.4797L223.655 56.407C223.394 56.6257 223.113 56.8276 222.811 57.0125C222.509 57.1975 222.206 57.3345 221.9 57.4235L221.522 59.9454H218.206ZM219.84 54.3563C220.496 54.3563 221.053 54.1276 221.51 53.6703C221.967 53.213 222.196 52.6562 222.196 52C222.196 51.3438 221.967 50.787 221.51 50.3297C221.053 49.8724 220.496 49.6437 219.84 49.6437C219.189 49.6437 218.633 49.8724 218.173 50.3297C217.713 50.787 217.483 51.3438 217.483 52C217.483 52.6562 217.713 53.213 218.173 53.6703C218.633 54.1276 219.189 54.3563 219.84 54.3563ZM219.84 53.4073C219.452 53.4073 219.12 53.2698 218.845 52.9948C218.57 52.7198 218.432 52.3882 218.432 52C218.432 51.6118 218.57 51.2802 218.845 51.0052C219.12 50.7302 219.452 50.5927 219.84 50.5927C220.233 50.5927 220.566 50.7302 220.839 51.0052C221.111 51.2802 221.247 51.6118 221.247 52C221.247 52.3882 221.111 52.7198 220.839 52.9948C220.566 53.2698 220.233 53.4073 219.84 53.4073ZM218.968 58.9965H220.752L221.052 56.6627C221.496 56.5512 221.911 56.385 222.295 56.1641C222.679 55.9432 223.047 55.6628 223.397 55.3229L225.582 56.2687L226.418 54.7873L224.485 53.3607C224.541 53.113 224.584 52.8795 224.617 52.6602C224.649 52.441 224.665 52.2209 224.665 52C224.665 51.7684 224.651 51.5456 224.623 51.3317C224.595 51.1178 224.549 50.8924 224.485 50.6554L226.434 49.2127L225.598 47.7313L223.389 48.6771C223.096 48.3468 222.741 48.0557 222.326 47.8037C221.911 47.5517 221.484 47.3962 221.044 47.3373L220.76 45.0035H218.968L218.691 47.3292C218.228 47.4215 217.802 47.5793 217.412 47.8029C217.022 48.0265 216.659 48.3152 216.322 48.669L214.13 47.7313L213.294 49.2127L215.227 50.6313C215.166 50.8522 215.119 51.0762 215.087 51.3036C215.055 51.5309 215.039 51.7657 215.039 52.008C215.039 52.2397 215.055 52.4664 215.087 52.6884C215.119 52.9103 215.163 53.1344 215.219 53.3607L213.294 54.7873L214.13 56.2687L216.314 55.331C216.649 55.6709 217.012 55.9513 217.405 56.1722C217.797 56.393 218.223 56.5592 218.683 56.6708L218.968 58.9965Z" fill="#5F8502"/>
<rect x="193.727" y="66.6364" width="52.2727" height="2.50909" rx="1.25455" fill="white"/>
<rect x="193.727" y="66.6364" width="33.8727" height="2.50909" rx="1.25455" fill="#96D300"/>
<rect x="12" y="11" width="104.461" height="51.3646" rx="1.2466" fill="white"/>
<path d="M18.3633 20.3496H20.3895V26.233H21.3004V20.3496H23.3173V19.5131H18.3633V20.3496ZM24.8641 26.3446C25.5984 26.3446 26.2211 26.0193 26.4535 25.4988L26.5464 26.233H27.29V23.3796C27.29 22.1527 26.5278 21.5579 25.4032 21.5579C24.2321 21.5579 23.4513 22.1806 23.4513 23.1287H24.2135C24.2135 22.5803 24.6317 22.255 25.366 22.255C25.9794 22.255 26.4349 22.5245 26.4349 23.2867V23.4168L25.0035 23.5283C23.9346 23.612 23.3119 24.1325 23.3119 24.969C23.3119 25.7962 23.8882 26.3446 24.8641 26.3446ZM25.115 25.6661C24.5481 25.6661 24.1949 25.4244 24.1949 24.9411C24.1949 24.495 24.5109 24.1975 25.2823 24.1232L26.4442 24.0302V24.2719C26.4442 25.127 25.9423 25.6661 25.115 25.6661ZM29.1506 26.233L30.2659 24.5693L31.3998 26.233H32.4129L30.8608 23.9837L32.4408 21.688H31.4463L30.3217 23.3796L29.1691 21.688H28.156L29.7361 23.9837L28.1467 26.233H29.1506ZM37.1426 26.233V23.5748H38.8621L40.1168 26.233H41.1299L39.7636 23.3982C40.6001 23.1287 41.0649 22.4594 41.0649 21.53C41.0649 20.2752 40.2098 19.5131 38.7691 19.5131H36.2317V26.233H37.1426ZM37.1426 20.331H38.7691C39.6056 20.331 40.1075 20.7585 40.1075 21.5393C40.1075 22.3107 39.6242 22.7662 38.7784 22.7662H37.1426V20.331ZM43.9847 26.3446C45.1093 26.3446 45.8715 25.7962 46.0945 24.8203H45.2766C45.1279 25.3408 44.6818 25.6196 44.0033 25.6196C43.1389 25.6196 42.637 25.0898 42.5719 24.1325L46.0852 24.1232V23.7979C46.0852 22.4501 45.2394 21.5579 43.9475 21.5579C42.6277 21.5579 41.7261 22.5431 41.7261 23.9652C41.7261 25.3779 42.6462 26.3446 43.9847 26.3446ZM43.9475 22.2921C44.7189 22.2921 45.2115 22.794 45.2115 23.5469H42.5905C42.702 22.7476 43.1853 22.2921 43.9475 22.2921ZM47.247 28.2685H48.1207V25.4895C48.4181 26.0471 49.0222 26.3539 49.7472 26.3539C51.0949 26.3539 51.8571 25.3129 51.8571 23.928C51.8571 22.5338 51.0485 21.5579 49.7472 21.5579C49.0222 21.5579 48.4088 21.8832 48.1021 22.5059L48.037 21.688H47.247V28.2685ZM48.13 23.9652C48.13 23.0171 48.669 22.3572 49.5613 22.3572C50.4536 22.3572 50.9834 23.0264 50.9834 23.9652C50.9834 24.8946 50.4536 25.5638 49.5613 25.5638C48.669 25.5638 48.13 24.8946 48.13 23.9652ZM52.7085 23.9559C52.7085 25.3593 53.7124 26.3446 55.0787 26.3446C56.4357 26.3446 57.4395 25.3593 57.4395 23.9559C57.4395 22.5524 56.4357 21.5672 55.0787 21.5672C53.7124 21.5672 52.7085 22.5524 52.7085 23.9559ZM53.5915 23.9559C53.5915 23.0078 54.1957 22.3479 55.0787 22.3479C55.9523 22.3479 56.5658 23.0078 56.5658 23.9559C56.5658 24.9039 55.9523 25.5638 55.0787 25.5638C54.1957 25.5638 53.5915 24.9039 53.5915 23.9559ZM61.195 21.6508C61.0184 21.6136 60.8883 21.595 60.7303 21.595C60.1075 21.595 59.6521 21.9111 59.4662 22.3851L59.4104 21.6973H58.5925V26.233H59.4662V23.8257C59.4662 22.9521 59.9774 22.4501 60.8046 22.4501H61.195V21.6508ZM63.6645 26.233V22.4223H64.5568V21.688H63.6645V20.2659H62.7908V21.688H61.8985V22.4223H62.7908V26.233H63.6645Z" fill="#496403"/>
<rect x="18.3594" y="34.9702" width="35.2215" height="3.42431" rx="1.71215" fill="#E4F0C5"/>
<rect x="18.3594" y="40.3512" width="28.3729" height="3.42431" rx="1.71215" fill="#E4F0C5"/>
<rect x="68.2566" y="34.9702" width="35.2215" height="3.42431" rx="1.71215" fill="#E4F0C5"/>
<rect x="68.2566" y="40.3512" width="28.3729" height="3.42431" rx="1.71215" fill="#E4F0C5"/>
</g>
<defs>
<linearGradient id="paint0_linear_424_10519" x1="165" y1="245" x2="72.5001" y2="81.0002" gradientUnits="userSpaceOnUse">
<stop stop-color="#77A701"/>
<stop offset="1" stop-color="#D2EA97"/>
</linearGradient>
<linearGradient id="paint1_linear_424_10519" x1="165" y1="245" x2="72.5" y2="81.0001" gradientUnits="userSpaceOnUse">
<stop stop-color="#77A701"/>
<stop offset="1" stop-color="#D2EA97"/>
</linearGradient>
<linearGradient id="paint2_linear_424_10519" x1="165" y1="162" x2="220" y2="162" gradientUnits="userSpaceOnUse">
<stop stop-color="#77A701"/>
<stop offset="1" stop-color="#D2EA97"/>
</linearGradient>
<linearGradient id="paint3_linear_424_10519" x1="165" y1="214" x2="279" y2="214" gradientUnits="userSpaceOnUse">
<stop stop-color="#77A701"/>
<stop offset="1" stop-color="#D2EA97"/>
</linearGradient>
<linearGradient id="paint4_linear_424_10519" x1="165" y1="116.5" x2="332" y2="116.5" gradientUnits="userSpaceOnUse">
<stop stop-color="#77A701"/>
<stop offset="1" stop-color="#D2EA97"/>
</linearGradient>
<linearGradient id="paint5_linear_424_10519" x1="165" y1="112.5" x2="122" y2="112.5" gradientUnits="userSpaceOnUse">
<stop stop-color="#77A701"/>
<stop offset="1" stop-color="#D2EA97"/>
</linearGradient>
<clipPath id="clip0_424_10519">
<rect width="322" height="473" fill="white"/>
</clipPath>
</defs>
</svg>
