<svg width="100" height="26" viewBox="0 0 100 26" fill="none" xmlns="http://www.w3.org/2000/svg">
<path d="M55.3933 0H59.7988V25.2738H55.3933V0Z" fill="#00954A"/>
<path d="M71.6191 21.2431C72.766 21.2431 73.7642 20.8046 74.6133 19.9268C75.4621 19.0493 75.8871 17.7448 75.8871 16.013C75.8871 14.2814 75.4621 12.9765 74.6133 12.0989C73.7642 11.2214 72.7774 10.7826 71.6533 10.7826C70.4831 10.7826 69.4792 11.2214 68.6418 12.0989C67.8036 12.9765 67.3856 14.2814 67.3856 16.013C67.3856 17.7448 67.8036 19.0493 68.6418 19.9268C69.4792 20.8046 70.4714 21.2431 71.6191 21.2431ZM71.6191 25.1395C69.9669 25.1395 68.4809 24.7535 67.1618 23.9811C65.8419 23.2087 64.7983 22.1384 64.0296 20.7692C63.2606 19.4004 62.8767 17.8151 62.8767 16.013C62.8767 14.2112 63.2668 12.6254 64.0469 11.2565C64.8268 9.88741 65.8763 8.81677 67.1962 8.04463C68.5156 7.27249 70.0013 6.88629 71.6533 6.88629C73.2825 6.88629 74.7565 7.27249 76.0762 8.04463C77.3956 8.81677 78.4394 9.88741 79.2084 11.2565C79.9769 12.6254 80.3613 14.2112 80.3613 16.013C80.3613 17.8151 79.9769 19.4004 79.2084 20.7692C78.4394 22.1384 77.3894 23.2087 76.0591 23.9811C74.728 24.7535 73.248 25.1395 71.6191 25.1395Z" fill="#00954A"/>
<path d="M83.2727 25.2737V0H87.678V10.5307C88.2514 9.57153 89.0259 8.81683 90.0013 8.2666C90.9765 7.71713 92.0952 7.44188 93.3571 7.44188C95.468 7.44188 97.1029 8.12076 98.2617 9.47751C99.4203 10.8353 99.9999 12.8244 99.9999 15.4451V25.2737H95.6286V15.8662C95.6286 14.3689 95.3364 13.222 94.7511 12.4263C94.1659 11.6309 93.2423 11.2328 91.9807 11.2328C90.7415 11.2328 89.7143 11.6777 88.9 12.5668C88.0854 13.4563 87.678 14.6965 87.678 16.2875V25.2737H83.2727Z" fill="#00954A"/>
<path d="M51.5567 7.86296H48.2696L48.2652 6.49383C48.2652 5.7687 48.4253 5.25385 48.7472 4.94929C49.0681 4.64574 49.6076 4.49308 50.3647 4.49308H51.5567V0H49.6812C47.891 0 46.4742 0.444582 45.4301 1.33375C44.3858 2.22367 43.8641 3.72069 43.8641 5.82683V7.86296H41.5239V11.935H43.8641V25.2737H48.2696V11.935H51.5567V7.86296Z" fill="#00954A"/>
<path d="M8.1626 0C6.37258 0 4.95474 0.445644 3.91092 1.33483C2.8666 2.2245 2.34655 3.72286 2.34655 5.829V7.86675H0V11.9344H2.34655V25.2747H6.75314V11.9344H14.513V23.8214C14.513 24.6241 15.1509 25.2747 15.938 25.2747H18.9661C22.8522 25.1705 24.1123 19.7873 25.3552 16.9025C26.0468 15.2968 27.4051 12.6489 29.2816 12.2661C29.9478 12.1303 30.5079 12.2828 30.9854 12.6137C31.3668 12.878 31.686 13.2607 31.969 13.6799C32.3296 14.2144 32.6235 14.8187 32.8597 15.3702C33.7139 17.3664 34.1144 19.5403 34.8343 21.5861C35.4509 23.3379 36.6417 25.2883 38.6912 25.2747C39.3893 25.2696 40.8351 25.2747 41.5334 25.2747V24.0503V22.1391V20.7174C41.5315 20.7909 39.9395 20.729 39.8683 20.7252C38.9891 20.6762 38.6015 19.8573 38.4044 19.0904C37.4169 15.244 36.2085 10.5437 32.4104 8.57763C32.0642 8.39843 31.6982 8.24901 31.3262 8.13532C30.688 7.9402 30.0244 7.84989 29.359 7.84307C28.3419 7.83271 27.3377 8.08788 26.4317 8.55392C23.1644 10.2349 21.7875 14.2475 20.4374 17.4554C20.0079 18.4752 19.5866 19.5214 18.9661 20.4409V9.32005C18.9661 8.51727 18.3282 7.86678 17.5411 7.86675H6.75314L6.74538 6.50035C6.74538 5.77522 6.90386 5.25684 7.22553 4.95228C7.54671 4.64847 8.08701 4.49422 8.8441 4.49417H10.0368V0H8.1626ZM15.3649 0.0237076C14.1484 0.0237076 13.1655 1.0261 13.1655 2.26684C13.1655 3.50757 14.1484 4.50997 15.3649 4.50997C16.5817 4.50997 17.5721 3.50757 17.5721 2.26684C17.5721 1.0261 16.5817 0.0237076 15.3649 0.0237076Z" fill="#00954A"/>
</svg>
