<svg width="660" height="584" viewBox="0 0 660 584" fill="none" xmlns="http://www.w3.org/2000/svg">
<g clip-path="url(#clip0_424_7957)">
<rect width="660" height="584" rx="3" fill="#F1F3E4"/>
<rect x="467.437" y="213.683" width="615.508" height="615.508" transform="rotate(30 467.437 213.683)" stroke="#D2EA97"/>
<rect x="-27.4244" y="-293.317" width="445.786" height="445.786" transform="rotate(30 -27.4244 -293.317)" stroke="#D2EA97"/>
<rect x="55" y="101" width="264.398" height="177.511" fill="#E4F0C5"/>
<path d="M76.3062 128.148C78.2622 128.148 79.8102 126.996 80.1822 125.268H78.9342C78.6102 126.336 77.6022 127.02 76.3302 127.02C74.5782 127.02 73.4262 125.7 73.4262 123.672C73.4262 121.644 74.5782 120.324 76.3302 120.324C77.5902 120.324 78.5622 121.008 78.8862 122.136H80.1462C79.8222 120.36 78.3222 119.196 76.3662 119.196C73.8822 119.196 72.1902 121.008 72.1902 123.684C72.1902 126.372 73.8342 128.148 76.3062 128.148ZM85.5721 122.148V125.244C85.5721 126.504 85.0081 127.164 83.9761 127.164C83.1121 127.164 82.5721 126.684 82.5721 125.424V122.148H81.4441V125.796C81.4441 127.236 82.2121 128.16 83.5801 128.16C84.4441 128.16 85.2241 127.74 85.5601 127.128L85.6801 128.016H86.6881V122.148H85.5721ZM87.8115 126.312C87.8115 127.428 88.6875 128.16 90.0675 128.16C91.4595 128.16 92.4195 127.452 92.4195 126.336C92.4195 125.46 91.9275 125.004 90.9315 124.764L89.8995 124.512C89.3235 124.368 89.0355 124.104 89.0355 123.708C89.0355 123.168 89.4315 122.856 90.1395 122.856C90.8235 122.856 91.2195 123.228 91.2435 123.816H92.3235C92.2995 122.7 91.4595 121.98 90.1755 121.98C88.8795 121.98 87.9675 122.664 87.9675 123.744C87.9675 124.608 88.4595 125.124 89.5035 125.376L90.5355 125.616C91.1475 125.772 91.3395 126.012 91.3395 126.408C91.3395 126.948 90.8835 127.272 90.0915 127.272C89.3475 127.272 88.8915 126.912 88.8915 126.312H87.8115ZM95.4105 128.016V123.096H96.5625V122.148H95.4105V120.312H94.2825V122.148H93.1305V123.096H94.2825V128.016H95.4105ZM97.2162 125.076C97.2162 126.888 98.5122 128.16 100.276 128.16C102.028 128.16 103.324 126.888 103.324 125.076C103.324 123.264 102.028 121.992 100.276 121.992C98.5122 121.992 97.2162 123.264 97.2162 125.076ZM98.3562 125.076C98.3562 123.852 99.1362 123 100.276 123C101.404 123 102.196 123.852 102.196 125.076C102.196 126.3 101.404 127.152 100.276 127.152C99.1362 127.152 98.3562 126.3 98.3562 125.076ZM105.785 128.016V124.536C105.785 123.6 106.349 123.012 107.201 123.012C107.993 123.012 108.497 123.516 108.497 124.44V128.016H109.613V124.536C109.613 123.6 110.177 123 111.029 123C111.821 123 112.337 123.528 112.337 124.452V128.016H113.441V124.176C113.441 122.82 112.625 121.98 111.281 121.98C110.369 121.98 109.661 122.436 109.385 123.168C109.085 122.436 108.437 121.98 107.525 121.98C106.697 121.98 106.073 122.364 105.773 122.916L105.665 122.148H104.657V128.016H105.785ZM117.62 128.16C119.072 128.16 120.056 127.452 120.344 126.192H119.288C119.096 126.864 118.52 127.224 117.644 127.224C116.528 127.224 115.88 126.54 115.796 125.304L120.332 125.292V124.872C120.332 123.132 119.24 121.98 117.572 121.98C115.868 121.98 114.704 123.252 114.704 125.088C114.704 126.912 115.892 128.16 117.62 128.16ZM117.572 122.928C118.568 122.928 119.204 123.576 119.204 124.548H115.82C115.964 123.516 116.588 122.928 117.572 122.928ZM125.036 122.1C124.808 122.052 124.64 122.028 124.436 122.028C123.632 122.028 123.044 122.436 122.804 123.048L122.732 122.16H121.676V128.016H122.804V124.908C122.804 123.78 123.464 123.132 124.532 123.132H125.036V122.1ZM130.096 128.016L130.864 125.856H134.512L135.292 128.016H136.528L133.348 119.34H132.04L128.872 128.016H130.096ZM132.544 121.212C132.604 121.032 132.664 120.828 132.688 120.708C132.712 120.84 132.772 121.044 132.832 121.212L134.164 124.836H131.224L132.544 121.212Z" fill="#0C1612"/>
<path d="M73.6855 176.676H300.713" stroke="#D2EA97" stroke-width="0.660766" stroke-linecap="round"/>
<path d="M73.6855 175.742C73.1696 175.742 72.7513 176.16 72.7513 176.676C72.7513 177.192 73.1696 177.61 73.6855 177.61V175.742ZM118.219 176.676C118.219 179.428 120.45 181.659 123.202 181.659C125.954 181.659 128.185 179.428 128.185 176.676C128.185 173.924 125.954 171.693 123.202 171.693C120.45 171.693 118.219 173.924 118.219 176.676ZM73.6855 177.61H123.202V175.742H73.6855V177.61Z" fill="#00954A"/>
<path d="M73.6855 172.004V181.347" stroke="#AEDC3D" stroke-width="0.660766" stroke-linecap="round"/>
<path d="M300.713 172.004V181.347" stroke="#AEDC3D" stroke-width="0.660766" stroke-linecap="round"/>
<path d="M185.799 174.805L185.799 178.542" stroke="#AEDC3D" stroke-width="0.660766" stroke-linecap="round"/>
<path d="M73.8089 155.836V155.157H79.081V155.836H76.8097V162.516H76.0698V155.836H73.8089ZM78.9051 160.029C78.9051 158.508 79.9739 157.408 81.4332 157.408C82.8926 157.408 83.9614 158.508 83.9614 160.029C83.9614 161.539 82.8926 162.639 81.4332 162.639C79.9739 162.639 78.9051 161.539 78.9051 160.029ZM79.6245 160.018C79.6245 161.19 80.3644 162.002 81.4332 162.002C82.4918 162.002 83.242 161.19 83.242 160.018C83.242 158.867 82.4918 158.045 81.4332 158.045C80.3644 158.045 79.6245 158.867 79.6245 160.018ZM85.8766 162.516H85.1675V157.542H85.7841L85.8869 158.405C86.2157 157.768 86.8735 157.408 87.5928 157.408C88.9597 157.408 89.5249 158.22 89.5249 159.474V162.516H88.8158V159.628C88.8158 158.467 88.2917 158.055 87.4695 158.055C86.4521 158.055 85.8766 158.795 85.8766 159.916V162.516ZM93.0964 162.639C91.6371 162.639 90.6608 161.591 90.6608 160.029C90.6608 158.477 91.6268 157.408 93.045 157.408C94.3913 157.408 95.3059 158.364 95.3059 159.772V160.121H91.3493C91.4007 161.334 92.0379 162.033 93.1067 162.033C93.9185 162.033 94.4427 161.683 94.6277 161.025H95.3059C95.0387 162.074 94.268 162.639 93.0964 162.639ZM93.045 158.014C92.1098 158.014 91.4932 158.631 91.3699 159.607H94.5968C94.5968 158.651 93.9802 158.014 93.045 158.014Z" fill="#0C1612"/>
<path d="M75.6968 190.214C74.5308 190.214 73.8282 191.073 73.8282 192.351C73.8282 193.659 74.5906 194.414 75.7042 194.414C76.6236 194.414 77.3635 193.943 77.3635 192.852V192.695H75.5548V192.045H78.0511V195.027H77.4382L77.3859 194.295C77.0944 194.765 76.4367 195.109 75.6445 195.109C74.1122 195.109 73.0584 194.003 73.0584 192.336C73.0584 190.692 74.1197 189.526 75.7117 189.526C76.8926 189.526 77.812 190.206 77.9913 191.245H77.214C77.0122 190.557 76.4143 190.214 75.6968 190.214ZM80.6047 195.109C79.5284 195.109 78.7884 194.332 78.7884 193.196C78.7884 192.052 79.5134 191.26 80.5748 191.26C81.6137 191.26 82.2938 191.978 82.2938 193.061V193.323L79.4686 193.33C79.5209 194.1 79.9245 194.526 80.6196 194.526C81.1652 194.526 81.524 194.302 81.6436 193.883H82.3013C82.1219 194.668 81.509 195.109 80.6047 195.109ZM80.5748 191.85C79.9619 191.85 79.5732 192.217 79.4835 192.86H81.5912C81.5912 192.254 81.1951 191.85 80.5748 191.85ZM83.8334 195.02H83.1309V191.365H83.7662L83.8409 191.925C84.0726 191.507 84.536 191.26 85.0517 191.26C86.0159 191.26 86.4569 191.85 86.4569 192.785V195.02H85.7543V192.942C85.7543 192.202 85.4105 191.903 84.8723 191.903C84.2146 191.903 83.8334 192.374 83.8334 193.084V195.02ZM88.5137 195.02H87.8111V191.955H87.0936V191.365H87.8111V190.221H88.5137V191.365H89.2312V191.955H88.5137V195.02ZM90.6316 195.02H89.929V189.519H90.6316V195.02ZM93.2952 195.109C92.2189 195.109 91.479 194.332 91.479 193.196C91.479 192.052 92.204 191.26 93.2653 191.26C94.3042 191.26 94.9843 191.978 94.9843 193.061V193.323L92.1591 193.33C92.2114 194.1 92.615 194.526 93.3101 194.526C93.8557 194.526 94.2145 194.302 94.3341 193.883H94.9918C94.8124 194.668 94.1996 195.109 93.2952 195.109ZM93.2653 191.85C92.6524 191.85 92.2638 192.217 92.1741 192.86H94.2818C94.2818 192.254 93.8856 191.85 93.2653 191.85Z" fill="#77A701"/>
<path d="M281.524 195.02H280.791V189.616H281.524V191.94H284.199V189.616H284.932V195.02H284.199V192.62H281.524V195.02ZM287.187 195.109C286.402 195.109 285.938 194.668 285.938 194.003C285.938 193.33 286.439 192.912 287.299 192.845L288.45 192.755V192.65C288.45 192.037 288.084 191.821 287.59 191.821C287 191.821 286.663 192.082 286.663 192.523H286.051C286.051 191.761 286.678 191.26 287.62 191.26C288.525 191.26 289.137 191.738 289.137 192.725V195.02H288.539L288.465 194.429C288.278 194.848 287.777 195.109 287.187 195.109ZM287.388 194.564C288.054 194.564 288.457 194.13 288.457 193.442V193.248L287.523 193.323C286.903 193.383 286.649 193.622 286.649 193.981C286.649 194.369 286.933 194.564 287.388 194.564ZM292.255 191.335V191.978H291.942C291.276 191.978 290.865 192.381 290.865 193.084V195.02H290.163V191.372H290.82L290.865 191.925C291.015 191.544 291.381 191.29 291.882 191.29C292.009 191.29 292.113 191.305 292.255 191.335ZM292.668 193.958H293.34C293.34 194.332 293.624 194.556 294.088 194.556C294.581 194.556 294.865 194.354 294.865 194.018C294.865 193.771 294.746 193.622 294.364 193.525L293.722 193.375C293.071 193.218 292.765 192.897 292.765 192.359C292.765 191.686 293.333 191.26 294.14 191.26C294.94 191.26 295.463 191.708 295.478 192.404H294.805C294.79 192.037 294.544 191.806 294.118 191.806C293.677 191.806 293.43 192 293.43 192.336C293.43 192.583 293.61 192.747 293.968 192.837L294.611 192.994C295.231 193.144 295.538 193.428 295.538 193.973C295.538 194.668 294.94 195.109 294.073 195.109C293.213 195.109 292.668 194.653 292.668 193.958ZM297.072 195.012H296.369V189.519H297.072V191.925C297.304 191.529 297.745 191.26 298.313 191.26C299.247 191.26 299.695 191.85 299.695 192.785V195.02H298.993V192.942C298.993 192.202 298.641 191.903 298.118 191.903C297.438 191.903 297.072 192.396 297.072 193.024V195.012Z" fill="#77A701"/>
<path d="M73.6855 238.34H300.713" stroke="#D2EA97" stroke-width="0.660766" stroke-linecap="round"/>
<path d="M73.6855 237.406C73.1696 237.406 72.7513 237.824 72.7513 238.34C72.7513 238.856 73.1696 239.274 73.6855 239.274V237.406ZM129.43 238.34C129.43 241.092 131.661 243.323 134.413 243.323C137.165 243.323 139.396 241.092 139.396 238.34C139.396 235.588 137.165 233.357 134.413 233.357C131.661 233.357 129.43 235.588 129.43 238.34ZM73.6855 239.274H134.413V237.406H73.6855V239.274Z" fill="#00954A"/>
<path d="M73.6855 233.668V243.011" stroke="#AEDC3D" stroke-width="0.660766" stroke-linecap="round"/>
<path d="M300.713 233.668V243.011" stroke="#AEDC3D" stroke-width="0.660766" stroke-linecap="round"/>
<path d="M185.797 236.473L185.797 240.21" stroke="#AEDC3D" stroke-width="0.660766" stroke-linecap="round"/>
<path d="M78.3307 220.942H75.3196V224.18H74.5796V216.821H78.9165V217.5H75.3196V220.274H78.3307V220.942ZM82.3664 219.144V219.781H81.9759C81.0613 219.781 80.4755 220.398 80.4755 221.343V224.18H79.7664V219.206H80.4344L80.4858 219.976C80.681 219.442 81.2051 219.093 81.904 219.093C82.0581 219.093 82.1917 219.103 82.3664 219.144ZM85.2766 224.303C83.8173 224.303 82.841 223.255 82.841 221.693C82.841 220.141 83.807 219.072 85.2252 219.072C86.5715 219.072 87.4861 220.028 87.4861 221.436V221.785H83.5295C83.5809 222.998 84.2181 223.697 85.2869 223.697C86.0987 223.697 86.6229 223.347 86.8079 222.69H87.4861C87.2189 223.738 86.4482 224.303 85.2766 224.303ZM85.2252 219.678C84.29 219.678 83.6734 220.295 83.5501 221.271H86.777C86.777 220.316 86.1604 219.678 85.2252 219.678ZM88.3424 221.672C88.3424 220.172 89.2057 219.072 90.6445 219.072C91.4769 219.072 92.1654 219.442 92.5251 220.213L92.5971 219.206H93.2137V226.348H92.5046V223.224C92.1552 223.943 91.4872 224.303 90.6445 224.303C89.1748 224.303 88.3424 223.173 88.3424 221.672ZM89.0618 221.693C89.0618 222.833 89.6887 223.666 90.7678 223.666C91.8571 223.666 92.4943 222.833 92.4943 221.693C92.4943 220.542 91.8571 219.719 90.7678 219.719C89.6887 219.719 89.0618 220.542 89.0618 221.693ZM98.2595 219.206H98.9686V224.18H98.352L98.2595 223.337C97.982 223.912 97.2935 224.303 96.5124 224.303C95.3409 224.303 94.7037 223.501 94.7037 222.289V219.195H95.4231V222.063C95.4231 223.244 95.9472 223.666 96.7385 223.666C97.6943 223.666 98.2595 223.029 98.2595 221.847V219.206ZM102.504 224.303C101.044 224.303 100.068 223.255 100.068 221.693C100.068 220.141 101.034 219.072 102.452 219.072C103.798 219.072 104.713 220.028 104.713 221.436V221.785H100.757C100.808 222.998 101.445 223.697 102.514 223.697C103.326 223.697 103.85 223.347 104.035 222.69H104.713C104.446 223.738 103.675 224.303 102.504 224.303ZM102.452 219.678C101.517 219.678 100.9 220.295 100.777 221.271H104.004C104.004 220.316 103.387 219.678 102.452 219.678ZM106.628 224.18H105.919V219.206H106.535L106.638 220.069C106.967 219.432 107.625 219.072 108.344 219.072C109.711 219.072 110.276 219.884 110.276 221.138V224.18H109.567V221.292C109.567 220.131 109.043 219.719 108.221 219.719C107.203 219.719 106.628 220.459 106.628 221.58V224.18ZM111.412 221.703C111.412 220.141 112.368 219.072 113.817 219.072C114.968 219.072 115.811 219.74 116.006 220.768H115.297C115.112 220.079 114.516 219.699 113.827 219.699C112.82 219.699 112.111 220.47 112.111 221.693C112.111 222.875 112.769 223.666 113.776 223.666C114.516 223.666 115.112 223.255 115.307 222.618H116.026C115.79 223.635 114.906 224.303 113.776 224.303C112.368 224.303 111.412 223.265 111.412 221.703ZM116.569 226.348V225.762H117.113C117.545 225.762 117.977 225.732 118.223 225.064L118.439 224.478L116.425 219.206H117.175L118.778 223.543L120.351 219.206H121.08L118.799 225.32C118.511 226.101 118.028 226.42 117.319 226.42C117.021 226.42 116.795 226.4 116.569 226.348Z" fill="#0C1612"/>
<path d="M75.0458 251.28V256.003H77.4226V256.684H74.3134V251.28H75.0458ZM77.8389 254.852C77.8389 253.724 78.6461 252.932 79.7448 252.932C80.836 252.932 81.6432 253.724 81.6432 254.852C81.6432 255.981 80.836 256.773 79.7448 256.773C78.6461 256.773 77.8389 255.981 77.8389 254.852ZM78.5489 254.852C78.5489 255.615 79.0348 256.145 79.7448 256.145C80.4474 256.145 80.9407 255.615 80.9407 254.852C80.9407 254.09 80.4474 253.559 79.7448 253.559C79.0348 253.559 78.5489 254.09 78.5489 254.852ZM83.0902 256.684L81.8943 253.029H82.6193L83.2247 254.927C83.3069 255.196 83.3817 255.473 83.4489 255.794C83.5087 255.473 83.6059 255.166 83.6881 254.927L84.301 253.029H85.0185L85.6239 254.927C85.6837 255.107 85.8033 255.533 85.8631 255.794C85.9229 255.503 85.9902 255.249 86.0948 254.927L86.7077 253.029H87.4401L86.192 256.684H85.5268L84.8915 254.725C84.7719 254.359 84.6971 254.075 84.6598 253.873C84.6224 254.053 84.5551 254.292 84.4206 254.733L83.7853 256.684H83.0902Z" fill="#77A701"/>
<path d="M286.217 256.684H285.485V251.28H286.217V253.604H288.893V251.28H289.625V256.684H288.893V254.284H286.217V256.684ZM291.155 252.162C290.901 252.162 290.692 251.952 290.692 251.698C290.692 251.437 290.901 251.235 291.155 251.235C291.409 251.235 291.619 251.437 291.619 251.698C291.619 251.952 291.409 252.162 291.155 252.162ZM290.811 256.684V253.029H291.514V256.684H290.811ZM292.355 254.763C292.355 253.731 293.02 252.924 294.081 252.924C294.672 252.924 295.128 253.193 295.359 253.649L295.412 253.029H296.039V256.534C296.039 257.685 295.329 258.418 294.208 258.418C293.214 258.418 292.534 257.857 292.399 256.93H293.102C293.192 257.468 293.595 257.782 294.208 257.782C294.896 257.782 295.344 257.334 295.344 256.639V255.906C295.105 256.332 294.627 256.586 294.051 256.586C293.012 256.586 292.355 255.787 292.355 254.763ZM293.057 254.748C293.057 255.435 293.483 255.974 294.171 255.974C294.881 255.974 295.314 255.465 295.314 254.748C295.314 254.045 294.896 253.537 294.178 253.537C293.476 253.537 293.057 254.075 293.057 254.748ZM297.808 256.676H297.106V251.183H297.808V253.589C298.04 253.193 298.481 252.924 299.049 252.924C299.983 252.924 300.432 253.515 300.432 254.449V256.684H299.729V254.606C299.729 253.866 299.378 253.567 298.855 253.567C298.174 253.567 297.808 254.06 297.808 254.688V256.676Z" fill="#77A701"/>
<path d="M186.732 276.641V299.997" stroke="#D2EA97" stroke-width="1.86854"/>
<path d="M186.732 372.871V396.228" stroke="#D2EA97" stroke-width="1.86854"/>
<path d="M186.732 276.641V299.997" stroke="url(#paint0_linear_424_7957)" stroke-width="1.86854" stroke-dasharray="4.67 4.67"/>
<path d="M186.732 387V410.357" stroke="url(#paint1_linear_424_7957)" stroke-width="1.86854" stroke-dasharray="4.67 4.67"/>
<rect x="129.4" y="410.328" width="111.2" height="41.4047" rx="20.7024" fill="#004D26"/>
<path d="M169.516 424.531H168.752V418.889H170.882C172.092 418.889 172.809 419.529 172.809 420.583C172.809 421.363 172.419 421.925 171.717 422.151L172.864 424.531H172.013L170.96 422.299H169.516V424.531ZM169.516 419.576V421.621H170.89C171.6 421.621 172.006 421.238 172.006 420.59C172.006 419.935 171.584 419.576 170.882 419.576H169.516ZM174.146 419.81C173.881 419.81 173.662 419.592 173.662 419.326C173.662 419.053 173.881 418.842 174.146 418.842C174.411 418.842 174.63 419.053 174.63 419.326C174.63 419.592 174.411 419.81 174.146 419.81ZM173.787 424.531V420.715H174.521V424.531H173.787ZM175.328 423.423H176.03C176.03 423.813 176.327 424.047 176.811 424.047C177.326 424.047 177.622 423.837 177.622 423.486C177.622 423.228 177.498 423.072 177.1 422.971L176.428 422.814C175.75 422.651 175.43 422.315 175.43 421.753C175.43 421.051 176.023 420.606 176.865 420.606C177.7 420.606 178.247 421.074 178.262 421.8H177.56C177.544 421.418 177.287 421.176 176.842 421.176C176.382 421.176 176.124 421.379 176.124 421.73C176.124 421.987 176.311 422.159 176.686 422.253L177.357 422.416C178.005 422.573 178.325 422.869 178.325 423.439C178.325 424.164 177.7 424.625 176.795 424.625C175.898 424.625 175.328 424.149 175.328 423.423ZM179.942 424.531H179.208V418.788H179.942V422.51L181.635 420.715H182.556L181.097 422.237L182.548 424.531H181.706L180.59 422.768L179.942 423.447V424.531ZM184.977 419.592V418.889H189.136V419.592H187.443V424.531H186.678V419.592H184.977ZM189.163 426.24V425.639H189.655C190.006 425.639 190.287 425.585 190.467 425.101L190.599 424.734L189.062 420.715H189.835L190.943 423.79L192.074 420.715H192.831L191.029 425.39C190.771 426.045 190.389 426.318 189.803 426.318C189.561 426.318 189.359 426.287 189.163 426.24ZM193.471 426.24V420.715H194.135L194.189 421.402C194.447 420.879 194.962 420.606 195.571 420.606C196.663 420.606 197.342 421.425 197.342 422.596C197.342 423.759 196.702 424.633 195.571 424.633C194.962 424.633 194.455 424.375 194.205 423.907V426.24H193.471ZM194.213 422.627C194.213 423.408 194.665 423.969 195.414 423.969C196.164 423.969 196.608 423.408 196.608 422.627C196.608 421.839 196.164 421.277 195.414 421.277C194.665 421.277 194.213 421.831 194.213 422.627ZM199.852 424.625C198.728 424.625 197.955 423.813 197.955 422.627C197.955 421.433 198.712 420.606 199.82 420.606C200.905 420.606 201.615 421.355 201.615 422.487V422.76L198.665 422.768C198.72 423.571 199.142 424.016 199.867 424.016C200.437 424.016 200.811 423.782 200.936 423.345H201.623C201.436 424.164 200.796 424.625 199.852 424.625ZM199.82 421.223C199.181 421.223 198.775 421.605 198.681 422.276H200.882C200.882 421.644 200.468 421.223 199.82 421.223Z" fill="#D2EA97"/>
<path d="M173.671 431.717V441.17H178.427V442.531H172.205V431.717H173.671ZM179.455 438.867C179.455 436.608 181.07 435.023 183.269 435.023C185.453 435.023 187.068 436.608 187.068 438.867C187.068 441.125 185.453 442.711 183.269 442.711C181.07 442.711 179.455 441.125 179.455 438.867ZM180.876 438.867C180.876 440.392 181.848 441.454 183.269 441.454C184.675 441.454 185.662 440.392 185.662 438.867C185.662 437.341 184.675 436.279 183.269 436.279C181.848 436.279 180.876 437.341 180.876 438.867ZM190.158 442.531L187.765 435.217H189.216L190.427 439.016C190.592 439.555 190.741 440.108 190.876 440.751C190.996 440.108 191.19 439.495 191.354 439.016L192.581 435.217H194.017L195.228 439.016C195.348 439.375 195.587 440.228 195.707 440.751C195.827 440.168 195.961 439.66 196.171 439.016L197.397 435.217H198.863L196.365 442.531H195.034L193.763 438.613C193.523 437.88 193.374 437.311 193.299 436.908C193.224 437.266 193.089 437.745 192.82 438.628L191.549 442.531H190.158Z" fill="white"/>
<rect x="337.4" y="146" width="264.398" height="177.511" fill="#E4F0C5"/>
<path d="M358.847 173.148C360.803 173.148 362.351 171.996 362.723 170.268H361.475C361.151 171.336 360.143 172.02 358.871 172.02C357.119 172.02 355.967 170.7 355.967 168.672C355.967 166.644 357.119 165.324 358.871 165.324C360.131 165.324 361.103 166.008 361.427 167.136H362.687C362.363 165.36 360.863 164.196 358.907 164.196C356.423 164.196 354.731 166.008 354.731 168.684C354.731 171.372 356.375 173.148 358.847 173.148ZM368.113 167.148V170.244C368.113 171.504 367.549 172.164 366.517 172.164C365.653 172.164 365.113 171.684 365.113 170.424V167.148H363.985V170.796C363.985 172.236 364.753 173.16 366.121 173.16C366.985 173.16 367.765 172.74 368.101 172.128L368.221 173.016H369.229V167.148H368.113ZM370.353 171.312C370.353 172.428 371.229 173.16 372.609 173.16C374.001 173.16 374.961 172.452 374.961 171.336C374.961 170.46 374.469 170.004 373.473 169.764L372.441 169.512C371.865 169.368 371.577 169.104 371.577 168.708C371.577 168.168 371.973 167.856 372.681 167.856C373.365 167.856 373.761 168.228 373.785 168.816H374.865C374.841 167.7 374.001 166.98 372.717 166.98C371.421 166.98 370.509 167.664 370.509 168.744C370.509 169.608 371.001 170.124 372.045 170.376L373.077 170.616C373.689 170.772 373.881 171.012 373.881 171.408C373.881 171.948 373.425 172.272 372.633 172.272C371.889 172.272 371.433 171.912 371.433 171.312H370.353ZM377.951 173.016V168.096H379.103V167.148H377.951V165.312H376.823V167.148H375.671V168.096H376.823V173.016H377.951ZM379.757 170.076C379.757 171.888 381.053 173.16 382.817 173.16C384.569 173.16 385.865 171.888 385.865 170.076C385.865 168.264 384.569 166.992 382.817 166.992C381.053 166.992 379.757 168.264 379.757 170.076ZM380.897 170.076C380.897 168.852 381.677 168 382.817 168C383.945 168 384.737 168.852 384.737 170.076C384.737 171.3 383.945 172.152 382.817 172.152C381.677 172.152 380.897 171.3 380.897 170.076ZM388.326 173.016V169.536C388.326 168.6 388.89 168.012 389.742 168.012C390.534 168.012 391.038 168.516 391.038 169.44V173.016H392.154V169.536C392.154 168.6 392.718 168 393.57 168C394.362 168 394.878 168.528 394.878 169.452V173.016H395.982V169.176C395.982 167.82 395.166 166.98 393.822 166.98C392.91 166.98 392.202 167.436 391.926 168.168C391.626 167.436 390.978 166.98 390.066 166.98C389.238 166.98 388.614 167.364 388.314 167.916L388.206 167.148H387.198V173.016H388.326ZM400.162 173.16C401.614 173.16 402.598 172.452 402.886 171.192H401.83C401.638 171.864 401.062 172.224 400.186 172.224C399.07 172.224 398.422 171.54 398.338 170.304L402.874 170.292V169.872C402.874 168.132 401.782 166.98 400.114 166.98C398.41 166.98 397.246 168.252 397.246 170.088C397.246 171.912 398.434 173.16 400.162 173.16ZM400.114 167.928C401.11 167.928 401.746 168.576 401.746 169.548H398.362C398.506 168.516 399.13 167.928 400.114 167.928ZM407.577 167.1C407.349 167.052 407.181 167.028 406.977 167.028C406.173 167.028 405.585 167.436 405.345 168.048L405.273 167.16H404.217V173.016H405.345V169.908C405.345 168.78 406.005 168.132 407.073 168.132H407.577V167.1ZM412.277 173.016H415.709C417.425 173.016 418.469 172.14 418.469 170.7C418.469 169.668 417.977 168.972 417.017 168.66C417.881 168.3 418.313 167.628 418.313 166.632C418.313 165.204 417.281 164.34 415.589 164.34H412.277V173.016ZM415.517 165.384C416.537 165.384 417.113 165.876 417.113 166.74C417.113 167.64 416.561 168.168 415.589 168.168H413.453V165.384H415.517ZM415.685 169.188C416.681 169.188 417.257 169.692 417.257 170.556C417.257 171.456 416.693 171.972 415.685 171.972H413.453V169.188H415.685Z" fill="#0C1612"/>
<path d="M356.086 221.676H583.113" stroke="#D2EA97" stroke-width="0.660766" stroke-linecap="round"/>
<path d="M356 221.066C355.484 221.066 355.066 221.484 355.066 222C355.066 222.516 355.484 222.934 356 222.934V221.066ZM450.017 222C450.017 224.752 452.248 226.983 455 226.983C457.752 226.983 459.983 224.752 459.983 222C459.983 219.248 457.752 217.017 455 217.017C452.248 217.017 450.017 219.248 450.017 222ZM356 222.934H455V221.066H356V222.934Z" fill="#00954A"/>
<path d="M356.086 217.004V226.347" stroke="#AEDC3D" stroke-width="0.660766" stroke-linecap="round"/>
<path d="M583.113 217.004V226.347" stroke="#AEDC3D" stroke-width="0.660766" stroke-linecap="round"/>
<path d="M468.199 219.805L468.199 223.542" stroke="#AEDC3D" stroke-width="0.660766" stroke-linecap="round"/>
<path d="M356.209 200.836V200.157H361.481V200.836H359.21V207.516H358.47V200.836H356.209ZM361.306 205.029C361.306 203.508 362.374 202.408 363.834 202.408C365.293 202.408 366.362 203.508 366.362 205.029C366.362 206.539 365.293 207.639 363.834 207.639C362.374 207.639 361.306 206.539 361.306 205.029ZM362.025 205.018C362.025 206.19 362.765 207.002 363.834 207.002C364.892 207.002 365.642 206.19 365.642 205.018C365.642 203.867 364.892 203.045 363.834 203.045C362.765 203.045 362.025 203.867 362.025 205.018ZM368.277 207.516H367.568V202.542H368.184L368.287 203.405C368.616 202.768 369.274 202.408 369.993 202.408C371.36 202.408 371.925 203.22 371.925 204.474V207.516H371.216V204.628C371.216 203.467 370.692 203.055 369.87 203.055C368.852 203.055 368.277 203.795 368.277 204.916V207.516ZM375.497 207.639C374.037 207.639 373.061 206.591 373.061 205.029C373.061 203.477 374.027 202.408 375.445 202.408C376.792 202.408 377.706 203.364 377.706 204.772V205.121H373.75C373.801 206.334 374.438 207.033 375.507 207.033C376.319 207.033 376.843 206.683 377.028 206.025H377.706C377.439 207.074 376.668 207.639 375.497 207.639ZM375.445 203.014C374.51 203.014 373.894 203.631 373.77 204.607H376.997C376.997 203.651 376.381 203.014 375.445 203.014Z" fill="#0C1612"/>
<path d="M358.097 235.214C356.931 235.214 356.229 236.073 356.229 237.351C356.229 238.659 356.991 239.414 358.105 239.414C359.024 239.414 359.764 238.943 359.764 237.852V237.695H357.955V237.045H360.452V240.027H359.839L359.786 239.295C359.495 239.765 358.837 240.109 358.045 240.109C356.513 240.109 355.459 239.003 355.459 237.336C355.459 235.692 356.52 234.526 358.112 234.526C359.293 234.526 360.212 235.206 360.392 236.245H359.614C359.413 235.557 358.815 235.214 358.097 235.214ZM363.005 240.109C361.929 240.109 361.189 239.332 361.189 238.196C361.189 237.052 361.914 236.26 362.975 236.26C364.014 236.26 364.694 236.978 364.694 238.061V238.323L361.869 238.33C361.921 239.1 362.325 239.526 363.02 239.526C363.566 239.526 363.924 239.302 364.044 238.883H364.702C364.522 239.668 363.909 240.109 363.005 240.109ZM362.975 236.85C362.362 236.85 361.974 237.217 361.884 237.86H363.992C363.992 237.254 363.596 236.85 362.975 236.85ZM366.234 240.02H365.531V236.365H366.167L366.241 236.925C366.473 236.507 366.936 236.26 367.452 236.26C368.416 236.26 368.857 236.85 368.857 237.785V240.02H368.155V237.942C368.155 237.202 367.811 236.903 367.273 236.903C366.615 236.903 366.234 237.374 366.234 238.084V240.02ZM370.914 240.02H370.212V236.955H369.494V236.365H370.212V235.221H370.914V236.365H371.632V236.955H370.914V240.02ZM373.032 240.02H372.329V234.519H373.032V240.02ZM375.696 240.109C374.619 240.109 373.879 239.332 373.879 238.196C373.879 237.052 374.604 236.26 375.666 236.26C376.705 236.26 377.385 236.978 377.385 238.061V238.323L374.56 238.33C374.612 239.1 375.015 239.526 375.711 239.526C376.256 239.526 376.615 239.302 376.734 238.883H377.392C377.213 239.668 376.6 240.109 375.696 240.109ZM375.666 236.85C375.053 236.85 374.664 237.217 374.574 237.86H376.682C376.682 237.254 376.286 236.85 375.666 236.85Z" fill="#77A701"/>
<path d="M563.924 240.02H563.192V234.616H563.924V236.94H566.6V234.616H567.332V240.02H566.6V237.62H563.924V240.02ZM569.587 240.109C568.802 240.109 568.339 239.668 568.339 239.003C568.339 238.33 568.84 237.912 569.699 237.845L570.85 237.755V237.65C570.85 237.037 570.484 236.821 569.991 236.821C569.4 236.821 569.064 237.082 569.064 237.523H568.451C568.451 236.761 569.079 236.26 570.021 236.26C570.925 236.26 571.538 236.738 571.538 237.725V240.02H570.94L570.865 239.429C570.678 239.848 570.178 240.109 569.587 240.109ZM569.789 239.564C570.454 239.564 570.858 239.13 570.858 238.442V238.248L569.923 238.323C569.303 238.383 569.049 238.622 569.049 238.981C569.049 239.369 569.333 239.564 569.789 239.564ZM574.656 236.335V236.978H574.342C573.677 236.978 573.266 237.381 573.266 238.084V240.02H572.563V236.372H573.221L573.266 236.925C573.415 236.544 573.781 236.29 574.282 236.29C574.409 236.29 574.514 236.305 574.656 236.335ZM575.068 238.958H575.741C575.741 239.332 576.025 239.556 576.488 239.556C576.982 239.556 577.266 239.354 577.266 239.018C577.266 238.771 577.146 238.622 576.765 238.525L576.122 238.375C575.472 238.218 575.165 237.897 575.165 237.359C575.165 236.686 575.733 236.26 576.541 236.26C577.34 236.26 577.864 236.708 577.878 237.404H577.206C577.191 237.037 576.944 236.806 576.518 236.806C576.077 236.806 575.831 237 575.831 237.336C575.831 237.583 576.01 237.747 576.369 237.837L577.011 237.994C577.632 238.144 577.938 238.428 577.938 238.973C577.938 239.668 577.34 240.109 576.473 240.109C575.614 240.109 575.068 239.653 575.068 238.958ZM579.472 240.012H578.77V234.519H579.472V236.925C579.704 236.529 580.145 236.26 580.713 236.26C581.647 236.26 582.096 236.85 582.096 237.785V240.02H581.393V237.942C581.393 237.202 581.042 236.903 580.519 236.903C579.838 236.903 579.472 237.396 579.472 238.024V240.012Z" fill="#77A701"/>
<path d="M356.086 283.34H583.113" stroke="#D2EA97" stroke-width="0.660766" stroke-linecap="round"/>
<path d="M356 282.066C355.484 282.066 355.066 282.484 355.066 283C355.066 283.516 355.484 283.934 356 283.934V282.066ZM470.017 283C470.017 285.752 472.248 287.983 475 287.983C477.752 287.983 479.983 285.752 479.983 283C479.983 280.248 477.752 278.017 475 278.017C472.248 278.017 470.017 280.248 470.017 283ZM356 283.934H475V282.066H356V283.934Z" fill="#00954A"/>
<path d="M356.086 278.668V288.011" stroke="#AEDC3D" stroke-width="0.660766" stroke-linecap="round"/>
<path d="M583.113 278.668V288.011" stroke="#AEDC3D" stroke-width="0.660766" stroke-linecap="round"/>
<path d="M468.199 281.473L468.199 285.21" stroke="#AEDC3D" stroke-width="0.660766" stroke-linecap="round"/>
<path d="M360.731 265.942H357.72V269.18H356.98V261.821H361.317V262.5H357.72V265.274H360.731V265.942ZM364.767 264.144V264.781H364.376C363.462 264.781 362.876 265.398 362.876 266.343V269.18H362.167V264.206H362.835L362.886 264.976C363.081 264.442 363.606 264.093 364.304 264.093C364.459 264.093 364.592 264.103 364.767 264.144ZM367.677 269.303C366.218 269.303 365.241 268.255 365.241 266.693C365.241 265.141 366.207 264.072 367.626 264.072C368.972 264.072 369.887 265.028 369.887 266.436V266.785H365.93C365.981 267.998 366.618 268.697 367.687 268.697C368.499 268.697 369.023 268.347 369.208 267.69H369.887C369.619 268.738 368.849 269.303 367.677 269.303ZM367.626 264.678C366.69 264.678 366.074 265.295 365.95 266.271H369.177C369.177 265.316 368.561 264.678 367.626 264.678ZM370.743 266.672C370.743 265.172 371.606 264.072 373.045 264.072C373.877 264.072 374.566 264.442 374.926 265.213L374.997 264.206H375.614V271.348H374.905V268.224C374.556 268.943 373.888 269.303 373.045 269.303C371.575 269.303 370.743 268.173 370.743 266.672ZM371.462 266.693C371.462 267.833 372.089 268.666 373.168 268.666C374.258 268.666 374.895 267.833 374.895 266.693C374.895 265.542 374.258 264.719 373.168 264.719C372.089 264.719 371.462 265.542 371.462 266.693ZM380.66 264.206H381.369V269.18H380.752L380.66 268.337C380.382 268.912 379.694 269.303 378.913 269.303C377.741 269.303 377.104 268.501 377.104 267.289V264.195H377.823V267.063C377.823 268.244 378.348 268.666 379.139 268.666C380.095 268.666 380.66 268.029 380.66 266.847V264.206ZM384.904 269.303C383.445 269.303 382.468 268.255 382.468 266.693C382.468 265.141 383.434 264.072 384.853 264.072C386.199 264.072 387.114 265.028 387.114 266.436V266.785H383.157C383.208 267.998 383.845 268.697 384.914 268.697C385.726 268.697 386.25 268.347 386.435 267.69H387.114C386.846 268.738 386.076 269.303 384.904 269.303ZM384.853 264.678C383.917 264.678 383.301 265.295 383.177 266.271H386.404C386.404 265.316 385.788 264.678 384.853 264.678ZM389.028 269.18H388.319V264.206H388.936L389.039 265.069C389.367 264.432 390.025 264.072 390.745 264.072C392.111 264.072 392.677 264.884 392.677 266.138V269.18H391.968V266.292C391.968 265.131 391.443 264.719 390.621 264.719C389.604 264.719 389.028 265.459 389.028 266.58V269.18ZM393.812 266.703C393.812 265.141 394.768 264.072 396.217 264.072C397.368 264.072 398.211 264.74 398.406 265.768H397.697C397.512 265.079 396.916 264.699 396.228 264.699C395.22 264.699 394.511 265.47 394.511 266.693C394.511 267.875 395.169 268.666 396.176 268.666C396.916 268.666 397.512 268.255 397.707 267.618H398.427C398.19 268.635 397.307 269.303 396.176 269.303C394.768 269.303 393.812 268.265 393.812 266.703ZM398.969 271.348V270.762H399.514C399.945 270.762 400.377 270.732 400.624 270.064L400.84 269.478L398.825 264.206H399.575L401.179 268.543L402.751 264.206H403.481L401.199 270.32C400.911 271.101 400.428 271.42 399.719 271.42C399.421 271.42 399.195 271.4 398.969 271.348Z" fill="#0C1612"/>
<path d="M357.446 296.28V301.003H359.823V301.684H356.714V296.28H357.446ZM360.239 299.852C360.239 298.724 361.046 297.932 362.145 297.932C363.236 297.932 364.044 298.724 364.044 299.852C364.044 300.981 363.236 301.773 362.145 301.773C361.046 301.773 360.239 300.981 360.239 299.852ZM360.949 299.852C360.949 300.615 361.435 301.145 362.145 301.145C362.848 301.145 363.341 300.615 363.341 299.852C363.341 299.09 362.848 298.559 362.145 298.559C361.435 298.559 360.949 299.09 360.949 299.852ZM365.491 301.684L364.295 298.029H365.02L365.625 299.927C365.707 300.196 365.782 300.473 365.849 300.794C365.909 300.473 366.006 300.166 366.089 299.927L366.701 298.029H367.419L368.024 299.927C368.084 300.107 368.204 300.533 368.263 300.794C368.323 300.503 368.391 300.249 368.495 299.927L369.108 298.029H369.841L368.592 301.684H367.927L367.292 299.725C367.172 299.359 367.098 299.075 367.06 298.873C367.023 299.053 366.956 299.292 366.821 299.733L366.186 301.684H365.491Z" fill="#77A701"/>
<path d="M568.618 301.684H567.885V296.28H568.618V298.604H571.293V296.28H572.026V301.684H571.293V299.284H568.618V301.684ZM573.556 297.162C573.302 297.162 573.092 296.952 573.092 296.698C573.092 296.437 573.302 296.235 573.556 296.235C573.81 296.235 574.019 296.437 574.019 296.698C574.019 296.952 573.81 297.162 573.556 297.162ZM573.212 301.684V298.029H573.914V301.684H573.212ZM574.755 299.763C574.755 298.731 575.42 297.924 576.482 297.924C577.072 297.924 577.528 298.193 577.76 298.649L577.812 298.029H578.44V301.534C578.44 302.685 577.73 303.418 576.609 303.418C575.615 303.418 574.934 302.857 574.8 301.93H575.502C575.592 302.468 575.996 302.782 576.609 302.782C577.296 302.782 577.745 302.334 577.745 301.639V300.906C577.506 301.332 577.027 301.586 576.452 301.586C575.413 301.586 574.755 300.787 574.755 299.763ZM575.458 299.748C575.458 300.435 575.884 300.974 576.571 300.974C577.281 300.974 577.715 300.465 577.715 299.748C577.715 299.045 577.296 298.537 576.579 298.537C575.876 298.537 575.458 299.075 575.458 299.748ZM580.209 301.676H579.506V296.183H580.209V298.589C580.44 298.193 580.881 297.924 581.449 297.924C582.384 297.924 582.832 298.515 582.832 299.449V301.684H582.129V299.606C582.129 298.866 581.778 298.567 581.255 298.567C580.575 298.567 580.209 299.06 580.209 299.688V301.676Z" fill="#77A701"/>
<path d="M469.133 321.641V344.997" stroke="#D2EA97" stroke-width="1.86854"/>
<path d="M469.133 321.641V344.997" stroke="url(#paint2_linear_424_7957)" stroke-width="1.86854" stroke-dasharray="4.67 4.67"/>
<rect x="411.801" y="456" width="111.2" height="41.4047" rx="20.7024" fill="#004D26"/>
<path d="M451.917 470.203H451.152V464.561H453.282C454.492 464.561 455.21 465.201 455.21 466.255C455.21 467.035 454.82 467.597 454.117 467.823L455.264 470.203H454.414L453.36 467.971H451.917V470.203ZM451.917 465.248V467.292H453.29C454 467.292 454.406 466.91 454.406 466.262C454.406 465.607 453.985 465.248 453.282 465.248H451.917ZM456.547 465.482C456.281 465.482 456.063 465.263 456.063 464.998C456.063 464.725 456.281 464.514 456.547 464.514C456.812 464.514 457.03 464.725 457.03 464.998C457.03 465.263 456.812 465.482 456.547 465.482ZM456.188 470.203V466.387H456.921V470.203H456.188ZM457.729 469.095H458.431C458.431 469.485 458.727 469.719 459.211 469.719C459.726 469.719 460.023 469.509 460.023 469.157C460.023 468.9 459.898 468.744 459.5 468.642L458.829 468.486C458.15 468.322 457.83 467.987 457.83 467.425C457.83 466.723 458.423 466.278 459.266 466.278C460.101 466.278 460.647 466.746 460.663 467.472H459.96C459.945 467.09 459.687 466.848 459.242 466.848C458.782 466.848 458.525 467.05 458.525 467.402C458.525 467.659 458.712 467.831 459.086 467.924L459.757 468.088C460.405 468.244 460.725 468.541 460.725 469.111C460.725 469.836 460.101 470.297 459.196 470.297C458.298 470.297 457.729 469.821 457.729 469.095ZM462.342 470.203H461.609V464.46H462.342V468.182L464.036 466.387H464.957L463.497 467.909L464.949 470.203H464.106L462.99 468.44L462.342 469.118V470.203ZM467.378 465.263V464.561H471.537V465.263H469.843V470.203H469.079V465.263H467.378ZM471.564 471.912V471.311H472.055C472.407 471.311 472.688 471.257 472.867 470.773L473 470.406L471.462 466.387H472.235L473.343 469.462L474.475 466.387H475.232L473.429 471.062C473.171 471.717 472.789 471.99 472.204 471.99C471.962 471.99 471.759 471.959 471.564 471.912ZM475.872 471.912V466.387H476.535L476.59 467.074C476.847 466.551 477.362 466.278 477.971 466.278C479.063 466.278 479.742 467.097 479.742 468.268C479.742 469.431 479.102 470.305 477.971 470.305C477.362 470.305 476.855 470.047 476.605 469.579V471.912H475.872ZM476.613 468.299C476.613 469.079 477.066 469.641 477.815 469.641C478.564 469.641 479.009 469.079 479.009 468.299C479.009 467.511 478.564 466.949 477.815 466.949C477.066 466.949 476.613 467.503 476.613 468.299ZM482.252 470.297C481.128 470.297 480.356 469.485 480.356 468.299C480.356 467.105 481.113 466.278 482.221 466.278C483.305 466.278 484.016 467.027 484.016 468.159V468.432L481.066 468.44C481.121 469.243 481.542 469.688 482.268 469.688C482.837 469.688 483.212 469.454 483.337 469.017H484.023C483.836 469.836 483.196 470.297 482.252 470.297ZM482.221 466.894C481.581 466.894 481.175 467.277 481.081 467.948H483.282C483.282 467.316 482.868 466.894 482.221 466.894Z" fill="#D2EA97"/>
<path d="M442.184 488.203H440.749V477.389H442.184L445.909 486.483L449.633 477.389H451.099V488.203H449.663V483.925C449.663 481.906 449.678 481.173 449.753 480.411L446.597 488.203H445.221L442.08 480.441C442.155 480.964 442.184 482.071 442.184 483.581V488.203ZM456.832 488.383C454.679 488.383 453.198 486.827 453.198 484.554C453.198 482.265 454.649 480.68 456.773 480.68C458.852 480.68 460.213 482.116 460.213 484.284V484.808L454.559 484.823C454.664 486.363 455.471 487.216 456.862 487.216C457.954 487.216 458.672 486.767 458.911 485.93H460.228C459.869 487.5 458.642 488.383 456.832 488.383ZM456.773 481.861C455.546 481.861 454.768 482.594 454.589 483.881H458.807C458.807 482.669 458.014 481.861 456.773 481.861ZM465.014 488.383C462.89 488.383 461.604 486.797 461.604 484.569C461.604 482.325 462.905 480.68 465.074 480.68C466.195 480.68 467.138 481.173 467.631 482.071V477.195H469.022V488.203H467.766L467.646 486.872C467.167 487.874 466.18 488.383 465.014 488.383ZM465.298 487.111C466.734 487.111 467.616 486.049 467.616 484.524C467.616 483.028 466.734 481.951 465.298 481.951C463.862 481.951 463.024 483.028 463.024 484.524C463.024 486.034 463.862 487.111 465.298 487.111ZM472.038 479.154C471.529 479.154 471.11 478.735 471.11 478.227C471.11 477.703 471.529 477.3 472.038 477.3C472.546 477.3 472.965 477.703 472.965 478.227C472.965 478.735 472.546 479.154 472.038 479.154ZM471.35 488.203V480.889H472.755V488.203H471.35ZM479.698 480.889H481.089V488.203H479.833L479.683 487.096C479.265 487.859 478.292 488.383 477.215 488.383C475.51 488.383 474.553 487.231 474.553 485.436V480.889H475.959V484.972C475.959 486.543 476.632 487.141 477.709 487.141C478.995 487.141 479.698 486.319 479.698 484.748V480.889ZM484.834 488.203H483.428V480.889H484.685L484.819 481.846C485.193 481.158 485.971 480.68 487.003 480.68C488.14 480.68 488.947 481.248 489.321 482.161C489.665 481.248 490.548 480.68 491.684 480.68C493.36 480.68 494.377 481.727 494.377 483.417V488.203H493.001V483.761C493.001 482.609 492.357 481.951 491.37 481.951C490.308 481.951 489.605 482.699 489.605 483.866V488.203H488.214V483.746C488.214 482.594 487.586 481.966 486.599 481.966C485.537 481.966 484.834 482.699 484.834 483.866V488.203Z" fill="white"/>
<path d="M53 301.982C53 300.888 53.8875 300 54.9823 300H317.018C318.112 300 319 300.888 319 301.982V383.018C319 384.112 318.112 385 317.018 385H54.9823C53.8875 385 53 384.112 53 383.018V301.982Z" fill="white"/>
<path d="M265.685 347.234C265.909 347.234 266.097 347.158 266.248 347.006C266.399 346.855 266.475 346.667 266.475 346.443C266.475 346.219 266.399 346.031 266.247 345.88C266.096 345.728 265.908 345.653 265.684 345.653C265.46 345.653 265.272 345.729 265.121 345.88C264.97 346.032 264.894 346.22 264.894 346.444C264.894 346.668 264.97 346.855 265.121 347.007C265.273 347.158 265.461 347.234 265.685 347.234ZM269.058 347.234C269.282 347.234 269.469 347.158 269.621 347.006C269.772 346.855 269.847 346.667 269.847 346.443C269.847 346.219 269.772 346.031 269.62 345.88C269.468 345.728 269.281 345.653 269.056 345.653C268.832 345.653 268.645 345.729 268.493 345.88C268.342 346.032 268.267 346.22 268.267 346.444C268.267 346.668 268.342 346.855 268.494 347.007C268.646 347.158 268.833 347.234 269.058 347.234ZM272.299 347.234C272.523 347.234 272.711 347.158 272.862 347.006C273.013 346.855 273.089 346.667 273.089 346.443C273.089 346.219 273.013 346.031 272.861 345.88C272.71 345.728 272.522 345.653 272.298 345.653C272.074 345.653 271.886 345.729 271.735 345.88C271.584 346.032 271.508 346.22 271.508 346.444C271.508 346.668 271.584 346.855 271.735 347.007C271.887 347.158 272.075 347.234 272.299 347.234ZM261.389 355.611V341.665C261.389 341.319 261.515 341.018 261.769 340.764C262.022 340.51 262.321 340.383 262.666 340.383H275.335C275.682 340.383 275.982 340.51 276.236 340.764C276.49 341.018 276.617 341.319 276.617 341.665V351.334C276.617 351.679 276.49 351.978 276.236 352.232C275.982 352.485 275.682 352.611 275.335 352.611H264.389L261.389 355.611ZM263.901 351.334H275.335V341.665H262.666V352.682L263.901 351.334Z" fill="#00954A"/>
<g clip-path="url(#clip1_424_7957)">
<path d="M140 348.972C140 348.632 140 348.291 140 347.946C140.021 347.76 140.042 347.579 140.068 347.393C140.343 345.624 141.128 344.122 142.47 342.925C144.133 341.449 146.094 340.815 148.308 341.047C150.222 341.243 151.839 342.074 153.107 343.513C154.636 345.242 155.239 347.27 154.912 349.545C154.402 353.054 151.392 355.737 147.825 355.887C146.608 355.938 145.449 355.711 144.341 355.195C144.217 355.139 144.102 355.128 143.972 355.159C143.099 355.371 142.22 355.567 141.347 355.778C141.045 355.851 140.738 355.902 140.447 356.005C140.317 356.005 140.192 356.005 140.062 356.005C140.01 356.005 140 355.995 140 355.944C140.005 355.845 140 355.747 140 355.649C140.016 355.598 140.036 355.546 140.047 355.495C140.286 354.334 140.525 353.178 140.769 352.017C140.801 351.872 140.78 351.754 140.718 351.625C140.468 351.109 140.286 350.572 140.161 350.01C140.083 349.664 140.052 349.318 140 348.972ZM147.581 354.246C147.737 354.241 147.976 354.246 148.22 354.215C149.166 354.096 150.035 353.776 150.815 353.235C151.906 352.481 152.66 351.475 153.071 350.221C153.451 349.05 153.456 347.868 153.081 346.692C152.697 345.464 151.958 344.478 150.913 343.725C149.718 342.868 148.376 342.512 146.915 342.662C145.184 342.842 143.78 343.642 142.75 345.046C141.815 346.315 141.497 347.749 141.7 349.297C141.799 350.056 142.08 350.747 142.444 351.413C142.511 351.532 142.522 351.645 142.496 351.774C142.355 352.419 142.225 353.064 142.095 353.709C142.054 353.905 142.075 353.921 142.267 353.88C142.828 353.751 143.39 353.632 143.946 353.477C144.243 353.394 144.487 353.431 144.757 353.575C145.615 354.029 146.53 354.267 147.591 354.241L147.581 354.246Z" fill="#00954A"/>
<path d="M143.713 346.578C143.687 346.186 143.916 345.773 144.238 345.402C144.368 345.252 144.514 345.113 144.675 344.989C144.961 344.762 145.356 344.829 145.512 345.159C145.735 345.623 145.938 346.103 146.146 346.578C146.235 346.779 146.177 346.96 146.053 347.13C145.964 347.254 145.865 347.367 145.777 347.491C145.626 347.708 145.616 347.935 145.777 348.147C146.411 348.988 147.186 349.679 148.106 350.2C148.398 350.365 148.605 350.319 148.839 350.092C148.943 349.994 149.037 349.891 149.141 349.793C149.297 349.648 149.479 349.591 149.682 349.648C150.165 349.782 150.649 349.911 151.127 350.061C151.512 350.18 151.642 350.556 151.429 350.897C151.278 351.139 151.101 351.356 150.898 351.557C150.451 352.001 149.895 352.109 149.297 352.073C148.481 352.027 147.748 351.722 147.072 351.289C145.99 350.592 145.065 349.736 144.363 348.657C143.978 348.069 143.729 347.424 143.718 346.588L143.713 346.578Z" fill="#00954A"/>
</g>
<path d="M66.0527 363L68.9395 365.887L71.8262 363L68.9395 360.113L66.0527 363ZM309.931 363L307.044 360.113L304.158 363L307.044 365.887L309.931 363ZM68.9395 363.5H307.044V362.5H68.9395V363.5Z" fill="#EAEDD6"/>
<path d="M87.3203 360V365.5" stroke="#E3E6C8" stroke-linecap="round"/>
<path d="M107.453 360V365.5" stroke="#E3E6C8" stroke-linecap="round"/>
<path d="M127.588 360V365.5" stroke="#E3E6C8" stroke-linecap="round"/>
<path d="M147.723 360V365.5" stroke="#00954A" stroke-linecap="round"/>
<path d="M167.857 360V365.5" stroke="#E3E6C8" stroke-linecap="round"/>
<path d="M187.992 360V365.5" stroke="#C0463D" stroke-linecap="round"/>
<path d="M208.127 360V365.5" stroke="#E3E6C8" stroke-linecap="round"/>
<path d="M228.262 360V365.5" stroke="#E3E6C8" stroke-linecap="round"/>
<path d="M248.395 360V365.5" stroke="#E3E6C8" stroke-linecap="round"/>
<path d="M268.529 360V365.5" stroke="#E3E6C8" stroke-linecap="round"/>
<path d="M288.664 360V365.5" stroke="#E3E6C8" stroke-linecap="round"/>
<path d="M66.1132 363L69 365.887L71.8868 363L69 360.113L66.1132 363ZM145.333 363C145.333 364.473 146.527 365.667 148 365.667C149.473 365.667 150.667 364.473 150.667 363C150.667 361.527 149.473 360.333 148 360.333C146.527 360.333 145.333 361.527 145.333 363ZM69 363.5H148V362.5H69V363.5Z" fill="#00954A"/>
<path d="M201.348 354.62C201.015 354.62 200.727 354.499 200.486 354.256C200.244 354.013 200.123 353.725 200.123 353.391V343.065C200.123 342.731 200.244 342.443 200.486 342.2C200.727 341.957 201.015 341.836 201.348 341.836H215.031C215.364 341.836 215.651 341.957 215.893 342.2C216.135 342.443 216.256 342.731 216.256 343.065V353.391C216.256 353.725 216.135 354.013 215.893 354.256C215.651 354.499 215.364 354.62 215.031 354.62H201.348ZM208.189 348.357L201.086 343.639V353.391C201.086 353.467 201.111 353.53 201.16 353.579C201.209 353.628 201.271 353.653 201.348 353.653H215.031C215.107 353.653 215.17 353.628 215.219 353.579C215.268 353.53 215.292 353.467 215.292 353.391V343.639L208.189 348.357ZM208.189 347.341L215.101 342.803H201.299L208.189 347.341ZM201.086 343.639V342.803V353.391C201.086 353.467 201.111 353.53 201.16 353.579C201.209 353.628 201.271 353.653 201.348 353.653H201.086V343.639Z" fill="#00954A"/>
<path d="M105.801 339.332L113.23 343.781C113.401 343.879 113.52 344.01 113.587 344.174C113.655 344.338 113.688 344.498 113.688 344.654V353.883C113.688 354.21 113.57 354.492 113.334 354.729C113.097 354.967 112.816 355.085 112.491 355.085H99.1115C98.7859 355.085 98.505 354.967 98.2686 354.729C98.0322 354.492 97.9141 354.21 97.9141 353.883V344.654C97.9141 344.498 97.9497 344.338 98.021 344.174C98.0924 344.01 98.2094 343.879 98.3723 343.781L105.801 339.332ZM105.801 348.544L112.639 344.503L105.801 340.383L98.963 344.503L105.801 348.544ZM105.801 349.595L98.856 345.484V353.883C98.856 353.958 98.88 354.019 98.9279 354.068C98.9758 354.116 99.037 354.14 99.1115 354.14H112.491C112.565 354.14 112.626 354.116 112.674 354.068C112.722 354.019 112.746 353.958 112.746 353.883V345.484L105.801 349.595ZM105.801 354.14H112.746H98.856H105.801Z" fill="#C3C887"/>
<path d="M183.803 375C185.523 375 186.667 373.848 186.667 372.136C186.667 370.424 185.515 369.272 183.787 369.272H182.059V375H183.803ZM183.763 369.8C185.179 369.8 186.075 370.704 186.075 372.136C186.075 373.56 185.179 374.472 183.779 374.472H182.635V369.8H183.763ZM190.307 371.128V373.184C190.307 374.104 189.867 374.6 189.123 374.6C188.507 374.6 188.099 374.272 188.099 373.352V371.12H187.539V373.528C187.539 374.472 188.035 375.096 188.947 375.096C189.555 375.096 190.091 374.792 190.307 374.344L190.379 375H190.859V371.128H190.307ZM193.555 375.096C194.467 375.096 195.067 374.656 195.275 373.84H194.747C194.603 374.352 194.195 374.624 193.563 374.624C192.731 374.624 192.235 374.08 192.195 373.136H195.275V372.864C195.275 371.768 194.563 371.024 193.515 371.024C192.411 371.024 191.659 371.856 191.659 373.064C191.659 374.28 192.419 375.096 193.555 375.096ZM193.515 371.496C194.243 371.496 194.723 371.992 194.723 372.736H192.211C192.307 371.976 192.787 371.496 193.515 371.496Z" fill="#C0463D"/>
<path d="M66.184 320V316.568H68.404L70.024 320H71.332L69.568 316.34C70.648 315.992 71.248 315.128 71.248 313.928C71.248 312.308 70.144 311.324 68.284 311.324H65.008V320H66.184ZM66.184 312.38H68.284C69.364 312.38 70.012 312.932 70.012 313.94C70.012 314.936 69.388 315.524 68.296 315.524H66.184V312.38ZM74.8617 320.144C76.3137 320.144 77.2977 319.436 77.5857 318.176H76.5297C76.3377 318.848 75.7617 319.208 74.8857 319.208C73.7697 319.208 73.1217 318.524 73.0377 317.288L77.5737 317.276V316.856C77.5737 315.116 76.4817 313.964 74.8137 313.964C73.1097 313.964 71.9457 315.236 71.9457 317.072C71.9457 318.896 73.1337 320.144 74.8617 320.144ZM74.8137 314.912C75.8097 314.912 76.4457 315.56 76.4457 316.532H73.0617C73.2057 315.5 73.8297 314.912 74.8137 314.912ZM80.0456 320V316.52C80.0456 315.584 80.6096 314.996 81.4616 314.996C82.2536 314.996 82.7576 315.5 82.7576 316.424V320H83.8736V316.52C83.8736 315.584 84.4376 314.984 85.2896 314.984C86.0816 314.984 86.5976 315.512 86.5976 316.436V320H87.7016V316.16C87.7016 314.804 86.8856 313.964 85.5416 313.964C84.6296 313.964 83.9216 314.42 83.6456 315.152C83.3456 314.42 82.6976 313.964 81.7856 313.964C80.9576 313.964 80.3336 314.348 80.0336 314.9L79.9256 314.132H78.9176V320H80.0456ZM89.9013 312.74C90.3093 312.74 90.6453 312.404 90.6453 311.996C90.6453 311.576 90.3093 311.252 89.9013 311.252C89.4933 311.252 89.1573 311.576 89.1573 311.996C89.1573 312.404 89.4933 312.74 89.9013 312.74ZM89.3493 320H90.4773V314.132H89.3493V320ZM93.3269 320V316.892C93.3269 315.752 93.9389 314.996 94.9949 314.996C95.8589 314.996 96.4109 315.476 96.4109 316.664V320H97.5389V316.412C97.5389 314.912 96.8309 313.964 95.2829 313.964C94.4549 313.964 93.7109 314.36 93.3389 315.032L93.2189 314.132H92.1989V320H93.3269ZM101.537 320.144C102.473 320.144 103.265 319.736 103.649 318.932L103.745 320H104.753V311.168H103.637V315.08C103.241 314.36 102.485 313.964 101.585 313.964C99.8452 313.964 98.8012 315.284 98.8012 317.084C98.8012 318.872 99.8332 320.144 101.537 320.144ZM101.765 319.124C100.613 319.124 99.9412 318.26 99.9412 317.048C99.9412 315.848 100.613 314.984 101.765 314.984C102.917 314.984 103.625 315.848 103.625 317.048C103.625 318.272 102.917 319.124 101.765 319.124ZM108.997 320.144C110.449 320.144 111.433 319.436 111.721 318.176H110.665C110.473 318.848 109.897 319.208 109.021 319.208C107.905 319.208 107.257 318.524 107.173 317.288L111.709 317.276V316.856C111.709 315.116 110.617 313.964 108.949 313.964C107.245 313.964 106.081 315.236 106.081 317.072C106.081 318.896 107.269 320.144 108.997 320.144ZM108.949 314.912C109.945 314.912 110.581 315.56 110.581 316.532H107.197C107.341 315.5 107.965 314.912 108.949 314.912ZM116.412 314.084C116.184 314.036 116.016 314.012 115.812 314.012C115.008 314.012 114.42 314.42 114.18 315.032L114.108 314.144H113.052V320H114.18V316.892C114.18 315.764 114.84 315.116 115.908 315.116H116.412V314.084Z" fill="#0C1612"/>
<path d="M337 351.982C337 350.888 337.888 350 338.982 350H602.018C603.112 350 604 350.888 604 351.982V433.018C604 434.112 603.112 435 602.018 435H338.982C337.888 435 337 434.112 337 433.018V351.982Z" fill="white"/>
<path d="M350.113 413L353 415.887L355.887 413L353 410.113L350.113 413ZM594.887 413L592 410.113L589.113 413L592 415.887L594.887 413ZM353 413.5H592V412.5H353V413.5Z" fill="#EAEDD6"/>
<path d="M371.381 410V415.5" stroke="#E3E6C8" stroke-linecap="round"/>
<path d="M389.766 410V415.5" stroke="#E3E6C8" stroke-linecap="round"/>
<path d="M408.15 410V415.5" stroke="#E3E6C8" stroke-linecap="round"/>
<path d="M426.537 410V415.5" stroke="#E3E6C8" stroke-linecap="round"/>
<path d="M444.922 410V415.5" stroke="#E3E6C8" stroke-linecap="round"/>
<path d="M463.307 410V415.5" stroke="#00954A" stroke-linecap="round"/>
<path d="M481.693 410V415.5" stroke="#C0463D" stroke-linecap="round"/>
<path d="M500.078 410V415.5" stroke="#E3E6C8" stroke-linecap="round"/>
<path d="M518.463 410V415.5" stroke="#E3E6C8" stroke-linecap="round"/>
<path d="M536.85 410V415.5" stroke="#E3E6C8" stroke-linecap="round"/>
<path d="M555.234 410V415.5" stroke="#E3E6C8" stroke-linecap="round"/>
<path d="M573.619 410V415.5" stroke="#E3E6C8" stroke-linecap="round"/>
<path d="M350.113 413L353 415.887L355.887 413L353 410.113L350.113 413ZM460.333 413C460.333 414.473 461.527 415.667 463 415.667C464.473 415.667 465.667 414.473 465.667 413C465.667 411.527 464.473 410.333 463 410.333C461.527 410.333 460.333 411.527 460.333 413ZM353 413.5H463V412.5H353V413.5Z" fill="#00954A"/>
<path d="M504.36 405.62C504.026 405.62 503.737 405.499 503.495 405.256C503.252 405.013 503.131 404.725 503.131 404.391V394.065C503.131 393.731 503.252 393.443 503.495 393.2C503.737 392.957 504.026 392.836 504.36 392.836H518.095C518.429 392.836 518.717 392.957 518.96 393.2C519.203 393.443 519.324 393.731 519.324 394.065V404.391C519.324 404.725 519.203 405.013 518.96 405.256C518.717 405.499 518.429 405.62 518.095 405.62H504.36ZM511.227 399.357L504.098 394.639V404.391C504.098 404.467 504.122 404.53 504.172 404.579C504.221 404.628 504.284 404.653 504.36 404.653H518.095C518.171 404.653 518.234 404.628 518.283 404.579C518.332 404.53 518.357 404.467 518.357 404.391V394.639L511.227 399.357ZM511.227 398.341L518.165 393.803H504.311L511.227 398.341ZM504.098 394.639V393.803V404.391C504.098 404.467 504.122 404.53 504.172 404.579C504.221 404.628 504.284 404.653 504.36 404.653H504.098V394.639Z" fill="#00954A"/>
<path d="M536.685 397.234C536.909 397.234 537.097 397.158 537.248 397.006C537.399 396.855 537.475 396.667 537.475 396.443C537.475 396.219 537.399 396.031 537.247 395.88C537.096 395.728 536.908 395.653 536.684 395.653C536.46 395.653 536.272 395.729 536.121 395.88C535.97 396.032 535.894 396.22 535.894 396.444C535.894 396.668 535.97 396.855 536.121 397.007C536.273 397.158 536.461 397.234 536.685 397.234ZM540.058 397.234C540.282 397.234 540.469 397.158 540.621 397.006C540.772 396.855 540.847 396.667 540.847 396.443C540.847 396.219 540.772 396.031 540.62 395.88C540.468 395.728 540.281 395.653 540.056 395.653C539.832 395.653 539.645 395.729 539.493 395.88C539.342 396.032 539.267 396.22 539.267 396.444C539.267 396.668 539.342 396.855 539.494 397.007C539.646 397.158 539.833 397.234 540.058 397.234ZM543.299 397.234C543.523 397.234 543.711 397.158 543.862 397.006C544.013 396.855 544.089 396.667 544.089 396.443C544.089 396.219 544.013 396.031 543.861 395.88C543.71 395.728 543.522 395.653 543.298 395.653C543.074 395.653 542.886 395.729 542.735 395.88C542.584 396.032 542.508 396.22 542.508 396.444C542.508 396.668 542.584 396.855 542.735 397.007C542.887 397.158 543.075 397.234 543.299 397.234ZM532.389 405.611V391.665C532.389 391.319 532.515 391.018 532.769 390.764C533.022 390.51 533.321 390.383 533.666 390.383H546.335C546.682 390.383 546.982 390.51 547.236 390.764C547.49 391.018 547.617 391.319 547.617 391.665V401.334C547.617 401.679 547.49 401.978 547.236 402.232C546.982 402.485 546.682 402.611 546.335 402.611H535.389L532.389 405.611ZM534.901 401.334H546.335V391.665H533.666V402.682L534.901 401.334Z" fill="#00954A"/>
<path d="M564.36 405.62C564.026 405.62 563.737 405.499 563.495 405.256C563.252 405.013 563.131 404.725 563.131 404.391V394.065C563.131 393.731 563.252 393.443 563.495 393.2C563.737 392.957 564.026 392.836 564.36 392.836H578.095C578.429 392.836 578.717 392.957 578.96 393.2C579.203 393.443 579.324 393.731 579.324 394.065V404.391C579.324 404.725 579.203 405.013 578.96 405.256C578.717 405.499 578.429 405.62 578.095 405.62H564.36ZM571.227 399.357L564.098 394.639V404.391C564.098 404.467 564.122 404.53 564.172 404.579C564.221 404.628 564.284 404.653 564.36 404.653H578.095C578.171 404.653 578.234 404.628 578.283 404.579C578.332 404.53 578.357 404.467 578.357 404.391V394.639L571.227 399.357ZM571.227 398.341L578.165 393.803H564.311L571.227 398.341ZM564.098 394.639V393.803V404.391C564.098 404.467 564.122 404.53 564.172 404.579C564.221 404.628 564.284 404.653 564.36 404.653H564.098V394.639Z" fill="#00954A"/>
<path d="M391.001 390.332L398.457 394.781C398.629 394.879 398.749 395.01 398.816 395.174C398.884 395.338 398.917 395.498 398.917 395.654V404.883C398.917 405.21 398.799 405.492 398.561 405.729C398.324 405.967 398.042 406.085 397.715 406.085H384.286C383.959 406.085 383.677 405.967 383.44 405.729C383.203 405.492 383.084 405.21 383.084 404.883V395.654C383.084 395.498 383.12 395.338 383.191 395.174C383.263 395.01 383.38 394.879 383.544 394.781L391.001 390.332ZM391.001 399.544L397.864 395.503L391.001 391.383L384.137 395.503L391.001 399.544ZM391.001 400.595L384.029 396.484V404.883C384.029 404.958 384.054 405.019 384.102 405.068C384.15 405.116 384.211 405.14 384.286 405.14H397.715C397.79 405.14 397.852 405.116 397.9 405.068C397.948 405.019 397.972 404.958 397.972 404.883V396.484L391.001 400.595ZM391.001 405.14H397.972H384.029H391.001Z" fill="#C3C887"/>
<path d="M451.001 390.332L458.457 394.781C458.629 394.879 458.749 395.01 458.816 395.174C458.884 395.338 458.917 395.498 458.917 395.654V404.883C458.917 405.21 458.799 405.492 458.561 405.729C458.324 405.967 458.042 406.085 457.715 406.085H444.286C443.959 406.085 443.677 405.967 443.44 405.729C443.203 405.492 443.084 405.21 443.084 404.883V395.654C443.084 395.498 443.12 395.338 443.191 395.174C443.263 395.01 443.38 394.879 443.544 394.781L451.001 390.332ZM451.001 399.544L457.864 395.503L451.001 391.383L444.137 395.503L451.001 399.544ZM451.001 400.595L444.029 396.484V404.883C444.029 404.958 444.054 405.019 444.102 405.068C444.15 405.116 444.211 405.14 444.286 405.14H457.715C457.79 405.14 457.852 405.116 457.9 405.068C457.948 405.019 457.972 404.958 457.972 404.883V396.484L451.001 400.595ZM451.001 405.14H457.972H444.029H451.001Z" fill="#C3C887"/>
<path d="M416.685 397.234C416.909 397.234 417.097 397.158 417.248 397.006C417.399 396.855 417.475 396.667 417.475 396.443C417.475 396.219 417.399 396.031 417.247 395.88C417.096 395.728 416.908 395.653 416.684 395.653C416.46 395.653 416.272 395.729 416.121 395.88C415.97 396.032 415.894 396.22 415.894 396.444C415.894 396.668 415.97 396.855 416.121 397.007C416.273 397.158 416.461 397.234 416.685 397.234ZM420.058 397.234C420.282 397.234 420.469 397.158 420.621 397.006C420.772 396.855 420.847 396.667 420.847 396.443C420.847 396.219 420.772 396.031 420.62 395.88C420.468 395.728 420.281 395.653 420.056 395.653C419.832 395.653 419.645 395.729 419.493 395.88C419.342 396.032 419.267 396.22 419.267 396.444C419.267 396.668 419.342 396.855 419.494 397.007C419.646 397.158 419.833 397.234 420.058 397.234ZM423.299 397.234C423.523 397.234 423.711 397.158 423.862 397.006C424.013 396.855 424.089 396.667 424.089 396.443C424.089 396.219 424.013 396.031 423.861 395.88C423.71 395.728 423.522 395.653 423.298 395.653C423.074 395.653 422.886 395.729 422.735 395.88C422.584 396.032 422.508 396.22 422.508 396.444C422.508 396.668 422.584 396.855 422.735 397.007C422.887 397.158 423.075 397.234 423.299 397.234ZM412.389 405.611V391.665C412.389 391.319 412.515 391.018 412.769 390.764C413.022 390.51 413.321 390.383 413.666 390.383H426.335C426.682 390.383 426.982 390.51 427.236 390.764C427.49 391.018 427.617 391.319 427.617 391.665V401.334C427.617 401.679 427.49 401.978 427.236 402.232C426.982 402.485 426.682 402.611 426.335 402.611H415.389L412.389 405.611ZM414.901 401.334H426.335V391.665H413.666V402.682L414.901 401.334Z" fill="#C3C887"/>
<path d="M476.831 425C478.551 425 479.695 423.848 479.695 422.136C479.695 420.424 478.543 419.272 476.815 419.272H475.087V425H476.831ZM476.791 419.8C478.207 419.8 479.103 420.704 479.103 422.136C479.103 423.56 478.207 424.472 476.807 424.472H475.663V419.8H476.791ZM483.335 421.128V423.184C483.335 424.104 482.895 424.6 482.151 424.6C481.535 424.6 481.127 424.272 481.127 423.352V421.12H480.567V423.528C480.567 424.472 481.063 425.096 481.975 425.096C482.583 425.096 483.119 424.792 483.335 424.344L483.407 425H483.887V421.128H483.335ZM486.583 425.096C487.495 425.096 488.095 424.656 488.303 423.84H487.775C487.631 424.352 487.223 424.624 486.591 424.624C485.759 424.624 485.263 424.08 485.223 423.136H488.303V422.864C488.303 421.768 487.591 421.024 486.543 421.024C485.439 421.024 484.687 421.856 484.687 423.064C484.687 424.28 485.447 425.096 486.583 425.096ZM486.543 421.496C487.271 421.496 487.751 421.992 487.751 422.736H485.239C485.335 421.976 485.815 421.496 486.543 421.496Z" fill="#C0463D"/>
<path d="M354.357 370V366.568H356.577L358.197 370H359.505L357.741 366.34C358.821 365.992 359.421 365.128 359.421 363.928C359.421 362.308 358.317 361.324 356.457 361.324H353.181V370H354.357ZM354.357 362.38H356.457C357.537 362.38 358.185 362.932 358.185 363.94C358.185 364.936 357.561 365.524 356.469 365.524H354.357V362.38ZM363.034 370.144C364.486 370.144 365.47 369.436 365.758 368.176H364.702C364.51 368.848 363.934 369.208 363.058 369.208C361.942 369.208 361.294 368.524 361.21 367.288L365.746 367.276V366.856C365.746 365.116 364.654 363.964 362.986 363.964C361.282 363.964 360.118 365.236 360.118 367.072C360.118 368.896 361.306 370.144 363.034 370.144ZM362.986 364.912C363.982 364.912 364.618 365.56 364.618 366.532H361.234C361.378 365.5 362.002 364.912 362.986 364.912ZM368.218 370V366.52C368.218 365.584 368.782 364.996 369.634 364.996C370.426 364.996 370.93 365.5 370.93 366.424V370H372.046V366.52C372.046 365.584 372.61 364.984 373.462 364.984C374.254 364.984 374.77 365.512 374.77 366.436V370H375.874V366.16C375.874 364.804 375.058 363.964 373.714 363.964C372.802 363.964 372.094 364.42 371.818 365.152C371.518 364.42 370.87 363.964 369.958 363.964C369.13 363.964 368.506 364.348 368.206 364.9L368.098 364.132H367.09V370H368.218ZM378.074 362.74C378.482 362.74 378.818 362.404 378.818 361.996C378.818 361.576 378.482 361.252 378.074 361.252C377.666 361.252 377.33 361.576 377.33 361.996C377.33 362.404 377.666 362.74 378.074 362.74ZM377.522 370H378.65V364.132H377.522V370ZM381.5 370V366.892C381.5 365.752 382.112 364.996 383.168 364.996C384.032 364.996 384.584 365.476 384.584 366.664V370H385.712V366.412C385.712 364.912 385.004 363.964 383.456 363.964C382.628 363.964 381.884 364.36 381.512 365.032L381.392 364.132H380.372V370H381.5ZM389.71 370.144C390.646 370.144 391.438 369.736 391.822 368.932L391.918 370H392.926V361.168H391.81V365.08C391.414 364.36 390.658 363.964 389.758 363.964C388.018 363.964 386.974 365.284 386.974 367.084C386.974 368.872 388.006 370.144 389.71 370.144ZM389.938 369.124C388.786 369.124 388.114 368.26 388.114 367.048C388.114 365.848 388.786 364.984 389.938 364.984C391.09 364.984 391.798 365.848 391.798 367.048C391.798 368.272 391.09 369.124 389.938 369.124ZM397.169 370.144C398.621 370.144 399.605 369.436 399.893 368.176H398.837C398.645 368.848 398.069 369.208 397.193 369.208C396.077 369.208 395.429 368.524 395.345 367.288L399.881 367.276V366.856C399.881 365.116 398.789 363.964 397.121 363.964C395.417 363.964 394.253 365.236 394.253 367.072C394.253 368.896 395.441 370.144 397.169 370.144ZM397.121 364.912C398.117 364.912 398.753 365.56 398.753 366.532H395.369C395.513 365.5 396.137 364.912 397.121 364.912ZM404.585 364.084C404.357 364.036 404.189 364.012 403.985 364.012C403.181 364.012 402.593 364.42 402.353 365.032L402.281 364.144H401.225V370H402.353V366.892C402.353 365.764 403.013 365.116 404.081 365.116H404.585V364.084Z" fill="#0C1612"/>
</g>
<defs>
<linearGradient id="paint0_linear_424_7957" x1="186.732" y1="299.997" x2="186.732" y2="282.246" gradientUnits="userSpaceOnUse">
<stop stop-color="#96D300"/>
<stop offset="1" stop-color="#96D300" stop-opacity="0"/>
</linearGradient>
<linearGradient id="paint1_linear_424_7957" x1="186.732" y1="410.357" x2="186.732" y2="392.606" gradientUnits="userSpaceOnUse">
<stop stop-color="#96D300"/>
<stop offset="1" stop-color="#96D300" stop-opacity="0"/>
</linearGradient>
<linearGradient id="paint2_linear_424_7957" x1="469.133" y1="344.997" x2="469.133" y2="327.246" gradientUnits="userSpaceOnUse">
<stop stop-color="#96D300"/>
<stop offset="1" stop-color="#96D300" stop-opacity="0"/>
</linearGradient>
<clipPath id="clip0_424_7957">
<rect width="660" height="584" rx="3" fill="white"/>
</clipPath>
<clipPath id="clip1_424_7957">
<rect width="15" height="15" fill="white" transform="translate(140 341)"/>
</clipPath>
</defs>
</svg>
