<svg width="426" height="377" viewBox="0 0 426 377" fill="none" xmlns="http://www.w3.org/2000/svg">
<g clip-path="url(#clip0_424_11097)">
<rect width="425.836" height="376.8" rx="1.93562" fill="#F1F3E4"/>
<rect x="19.4892" y="-332.375" width="407.729" height="407.729" transform="rotate(30 19.4892 -332.375)" stroke="#D2EA97" stroke-width="0.914629"/>
<rect x="94.8767" y="28.2783" width="241.826" height="162.357" fill="#E4F0C5"/>
<path d="M113.221 53.2166C115.01 53.2166 116.426 52.1629 116.766 50.5825H115.625C115.328 51.5593 114.406 52.1849 113.243 52.1849C111.64 52.1849 110.587 50.9776 110.587 49.1227C110.587 47.2679 111.64 46.0605 113.243 46.0605C114.395 46.0605 115.284 46.6862 115.581 47.7179H116.733C116.437 46.0935 115.065 45.0288 113.276 45.0288C111.004 45.0288 109.456 46.6862 109.456 49.1337C109.456 51.5922 110.96 53.2166 113.221 53.2166ZM121.696 47.7288V50.5605C121.696 51.713 121.18 52.3166 120.236 52.3166C119.446 52.3166 118.952 51.8776 118.952 50.7252V47.7288H117.92V51.0654C117.92 52.3825 118.623 53.2276 119.874 53.2276C120.664 53.2276 121.378 52.8434 121.685 52.2837L121.795 53.0959H122.717V47.7288H121.696ZM123.744 51.5373C123.744 52.5581 124.545 53.2276 125.807 53.2276C127.081 53.2276 127.959 52.58 127.959 51.5593C127.959 50.7581 127.509 50.341 126.598 50.1215L125.654 49.891C125.127 49.7593 124.864 49.5178 124.864 49.1557C124.864 48.6618 125.226 48.3764 125.873 48.3764C126.499 48.3764 126.861 48.7166 126.883 49.2544H127.871C127.849 48.2337 127.081 47.5752 125.906 47.5752C124.721 47.5752 123.887 48.2008 123.887 49.1886C123.887 49.9788 124.337 50.4508 125.292 50.6813L126.236 50.9008C126.795 51.0434 126.971 51.263 126.971 51.6251C126.971 52.119 126.554 52.4154 125.829 52.4154C125.149 52.4154 124.732 52.0861 124.732 51.5373H123.744ZM130.694 53.0959V48.5959H131.748V47.7288H130.694V46.0496H129.663V47.7288H128.609V48.5959H129.663V53.0959H130.694ZM132.346 50.4069C132.346 52.0642 133.531 53.2276 135.145 53.2276C136.747 53.2276 137.932 52.0642 137.932 50.4069C137.932 48.7496 136.747 47.5861 135.145 47.5861C133.531 47.5861 132.346 48.7496 132.346 50.4069ZM133.389 50.4069C133.389 49.2874 134.102 48.5081 135.145 48.5081C136.176 48.5081 136.901 49.2874 136.901 50.4069C136.901 51.5264 136.176 52.3056 135.145 52.3056C134.102 52.3056 133.389 51.5264 133.389 50.4069ZM140.183 53.0959V49.913C140.183 49.0569 140.699 48.5191 141.478 48.5191C142.202 48.5191 142.663 48.98 142.663 49.8252V53.0959H143.684V49.913C143.684 49.0569 144.2 48.5081 144.979 48.5081C145.704 48.5081 146.176 48.991 146.176 49.8361V53.0959H147.185V49.5837C147.185 48.3435 146.439 47.5752 145.21 47.5752C144.376 47.5752 143.728 47.9922 143.476 48.6618C143.201 47.9922 142.609 47.5752 141.774 47.5752C141.017 47.5752 140.446 47.9264 140.172 48.4313L140.073 47.7288H139.151V53.0959H140.183ZM151.008 53.2276C152.336 53.2276 153.236 52.58 153.5 51.4276H152.534C152.358 52.0422 151.831 52.3715 151.03 52.3715C150.009 52.3715 149.417 51.7459 149.34 50.6154L153.489 50.6044V50.2203C153.489 48.6288 152.49 47.5752 150.964 47.5752C149.406 47.5752 148.341 48.7386 148.341 50.4178C148.341 52.0861 149.428 53.2276 151.008 53.2276ZM150.964 48.4422C151.875 48.4422 152.457 49.0349 152.457 49.9239H149.362C149.494 48.98 150.064 48.4422 150.964 48.4422ZM157.791 47.6849C157.582 47.641 157.429 47.6191 157.242 47.6191C156.507 47.6191 155.969 47.9922 155.75 48.552L155.684 47.7398H154.718V53.0959H155.75V50.2532C155.75 49.2215 156.353 48.6288 157.33 48.6288H157.791V47.6849ZM162.418 53.0959L163.121 51.1203H166.457L167.171 53.0959H168.301L165.393 45.1606H164.196L161.299 53.0959H162.418ZM164.657 46.8727C164.712 46.7081 164.767 46.5215 164.789 46.4118C164.811 46.5325 164.866 46.7191 164.921 46.8727L166.139 50.1874H163.45L164.657 46.8727Z" fill="#0C1612"/>
<path d="M111.967 97.4935H319.612" stroke="#D2EA97" stroke-width="0.604355" stroke-linecap="round"/>
<path d="M111.967 96.639C111.495 96.639 111.112 97.0216 111.112 97.4935C111.112 97.9654 111.495 98.348 111.967 98.348V96.639ZM152.698 97.4935C152.698 100.01 154.739 102.051 157.256 102.051C159.773 102.051 161.813 100.01 161.813 97.4935C161.813 94.9765 159.773 92.9361 157.256 92.9361C154.739 92.9361 152.698 94.9765 152.698 97.4935ZM111.967 98.348H157.256V96.639H111.967V98.348Z" fill="#00954A"/>
<path d="M111.967 93.221V101.766" stroke="#AEDC3D" stroke-width="0.604355" stroke-linecap="round"/>
<path d="M319.612 93.221V101.766" stroke="#AEDC3D" stroke-width="0.604355" stroke-linecap="round"/>
<path d="M214.508 95.7845L214.508 99.2025" stroke="#AEDC3D" stroke-width="0.604355" stroke-linecap="round"/>
<path d="M112.08 78.4575H114.148V84.5672H114.824V78.4575H116.902V77.8371H112.08V78.4575ZM116.741 82.2925C116.741 83.6743 117.718 84.68 119.053 84.68C120.388 84.68 121.365 83.6743 121.365 82.2925C121.365 80.9014 120.388 79.8956 119.053 79.8956C117.718 79.8956 116.741 80.9014 116.741 82.2925ZM117.399 82.2831C117.399 81.2304 118.076 80.4784 119.053 80.4784C120.021 80.4784 120.707 81.2304 120.707 82.2831C120.707 83.3547 120.021 84.0972 119.053 84.0972C118.076 84.0972 117.399 83.3547 117.399 82.2831ZM123.117 84.5672V82.1891C123.117 81.1646 123.643 80.4878 124.574 80.4878C125.326 80.4878 125.805 80.8638 125.805 81.9259V84.5672H126.454V81.7849C126.454 80.6382 125.937 79.8956 124.687 79.8956C124.029 79.8956 123.427 80.2246 123.126 80.8074L123.032 80.0178H122.468V84.5672H123.117ZM129.721 84.68C130.792 84.68 131.497 84.163 131.741 83.2043H131.121C130.952 83.8058 130.472 84.1254 129.73 84.1254C128.752 84.1254 128.17 83.4863 128.123 82.3771H131.741V82.0575C131.741 80.7698 130.905 79.8956 129.674 79.8956C128.376 79.8956 127.493 80.8732 127.493 82.2925C127.493 83.7213 128.386 84.68 129.721 84.68ZM129.674 80.4502C130.529 80.4502 131.093 81.033 131.093 81.9071H128.141C128.254 81.0142 128.818 80.4502 129.674 80.4502Z" fill="#0C1612"/>
<path d="M113.806 109.643C114.462 109.643 115.009 109.957 115.193 110.586H115.904C115.74 109.636 114.899 109.014 113.819 109.014C112.363 109.014 111.393 110.081 111.393 111.584C111.393 113.109 112.356 114.121 113.758 114.121C114.482 114.121 115.084 113.806 115.351 113.376L115.399 114.045H115.959V111.318H113.676V111.913H115.33V112.056C115.33 113.054 114.653 113.485 113.813 113.485C112.794 113.485 112.097 112.794 112.097 111.598C112.097 110.429 112.739 109.643 113.806 109.643ZM118.295 114.121C119.122 114.121 119.682 113.717 119.846 113H119.245C119.135 113.382 118.807 113.587 118.308 113.587C117.673 113.587 117.303 113.198 117.256 112.494L119.84 112.487V112.248C119.84 111.256 119.217 110.6 118.267 110.6C117.297 110.6 116.633 111.325 116.633 112.371C116.633 113.41 117.31 114.121 118.295 114.121ZM118.267 111.14C118.835 111.14 119.197 111.509 119.197 112.063H117.269C117.351 111.475 117.707 111.14 118.267 111.14ZM121.248 114.039V112.268C121.248 111.619 121.596 111.188 122.198 111.188C122.69 111.188 123.005 111.461 123.005 112.138V114.039H123.647V111.995C123.647 111.14 123.244 110.6 122.362 110.6C121.89 110.6 121.466 110.826 121.255 111.208L121.186 110.696H120.605V114.039H121.248ZM125.528 114.039V111.236H126.185V110.696H125.528V109.65H124.886V110.696H124.23V111.236H124.886V114.039H125.528ZM127.466 114.039V109.007H126.823V114.039H127.466ZM129.902 114.121C130.729 114.121 131.289 113.717 131.454 113H130.852C130.743 113.382 130.414 113.587 129.915 113.587C129.28 113.587 128.911 113.198 128.863 112.494L131.447 112.487V112.248C131.447 111.256 130.825 110.6 129.874 110.6C128.904 110.6 128.241 111.325 128.241 112.371C128.241 113.41 128.917 114.121 129.902 114.121ZM129.874 111.14C130.442 111.14 130.804 111.509 130.804 112.063H128.876C128.958 111.475 129.314 111.14 129.874 111.14Z" fill="#77A701"/>
<path d="M301.35 114.039V111.844H303.798V114.039H304.468V109.096H303.798V111.222H301.35V109.096H300.68V114.039H301.35ZM306.53 114.121C307.07 114.121 307.528 113.881 307.699 113.499L307.767 114.039H308.314V111.94C308.314 111.038 307.753 110.6 306.926 110.6C306.065 110.6 305.491 111.058 305.491 111.755H306.051C306.051 111.352 306.359 111.113 306.899 111.113C307.35 111.113 307.685 111.311 307.685 111.872V111.967L306.632 112.049C305.846 112.111 305.388 112.494 305.388 113.109C305.388 113.717 305.812 114.121 306.53 114.121ZM306.714 113.622C306.297 113.622 306.038 113.444 306.038 113.088C306.038 112.76 306.27 112.542 306.837 112.487L307.692 112.418V112.596C307.692 113.225 307.323 113.622 306.714 113.622ZM311.166 110.668C311.036 110.641 310.94 110.627 310.824 110.627C310.366 110.627 310.031 110.86 309.894 111.208L309.853 110.703H309.252V114.039H309.894V112.268C309.894 111.625 310.27 111.256 310.879 111.256H311.166V110.668ZM311.543 113.068C311.543 113.704 312.042 114.121 312.828 114.121C313.621 114.121 314.168 113.717 314.168 113.082C314.168 112.583 313.888 112.323 313.32 112.186L312.732 112.042C312.404 111.96 312.24 111.81 312.24 111.584C312.24 111.277 312.466 111.099 312.869 111.099C313.259 111.099 313.484 111.311 313.498 111.646H314.113C314.1 111.01 313.621 110.6 312.89 110.6C312.151 110.6 311.632 110.99 311.632 111.605C311.632 112.097 311.912 112.391 312.507 112.535L313.095 112.671C313.443 112.76 313.553 112.897 313.553 113.123C313.553 113.43 313.293 113.615 312.842 113.615C312.418 113.615 312.158 113.41 312.158 113.068H311.543ZM315.571 114.032V112.213C315.571 111.639 315.906 111.188 316.528 111.188C317.007 111.188 317.328 111.461 317.328 112.138V114.039H317.971V111.995C317.971 111.14 317.56 110.6 316.706 110.6C316.186 110.6 315.783 110.846 315.571 111.208V109.007H314.929V114.032H315.571Z" fill="#77A701"/>
<path d="M111.967 153.891H319.612" stroke="#D2EA97" stroke-width="0.604355" stroke-linecap="round"/>
<path d="M111.967 153.037C111.495 153.037 111.112 153.419 111.112 153.891C111.112 154.363 111.495 154.746 111.967 154.746V153.037ZM162.953 153.891C162.953 156.408 164.993 158.448 167.51 158.448C170.027 158.448 172.067 156.408 172.067 153.891C172.067 151.374 170.027 149.334 167.51 149.334C164.993 149.334 162.953 151.374 162.953 153.891ZM111.967 154.746H167.51V153.037H111.967V154.746Z" fill="#00954A"/>
<path d="M111.967 149.619V158.164" stroke="#AEDC3D" stroke-width="0.604355" stroke-linecap="round"/>
<path d="M319.613 149.619V158.164" stroke="#AEDC3D" stroke-width="0.604355" stroke-linecap="round"/>
<path d="M214.508 152.182L214.508 155.6" stroke="#AEDC3D" stroke-width="0.604355" stroke-linecap="round"/>
<path d="M116.215 138.004V137.393H113.461V134.855H116.751V134.235H112.785V140.965H113.461V138.004H116.215ZM119.907 136.359C119.747 136.321 119.625 136.312 119.484 136.312C118.844 136.312 118.365 136.632 118.186 137.12L118.139 136.415H117.528V140.965H118.177V138.371C118.177 137.506 118.713 136.942 119.549 136.942H119.907V136.359ZM122.568 141.078C123.64 141.078 124.345 140.561 124.589 139.602H123.969C123.8 140.204 123.32 140.523 122.578 140.523C121.6 140.523 121.017 139.884 120.97 138.775H124.589V138.455C124.589 137.167 123.753 136.293 122.521 136.293C121.224 136.293 120.341 137.271 120.341 138.69C120.341 140.119 121.234 141.078 122.568 141.078ZM122.521 136.848C123.377 136.848 123.941 137.431 123.941 138.305H120.989C121.102 137.412 121.666 136.848 122.521 136.848ZM125.372 138.671C125.372 140.044 126.134 141.078 127.478 141.078C128.249 141.078 128.86 140.749 129.179 140.091V142.948H129.828V136.415H129.264L129.198 137.337C128.869 136.632 128.239 136.293 127.478 136.293C126.162 136.293 125.372 137.299 125.372 138.671ZM126.03 138.69C126.03 137.637 126.604 136.885 127.591 136.885C128.587 136.885 129.17 137.637 129.17 138.69C129.17 139.734 128.587 140.495 127.591 140.495C126.604 140.495 126.03 139.734 126.03 138.69ZM134.443 136.415V138.831C134.443 139.912 133.926 140.495 133.052 140.495C132.328 140.495 131.849 140.11 131.849 139.029V136.406H131.191V139.235C131.191 140.345 131.773 141.078 132.845 141.078C133.559 141.078 134.189 140.72 134.443 140.194L134.527 140.965H135.091V136.415H134.443ZM138.325 141.078C139.396 141.078 140.101 140.561 140.346 139.602H139.725C139.556 140.204 139.077 140.523 138.334 140.523C137.356 140.523 136.774 139.884 136.727 138.775H140.346V138.455C140.346 137.167 139.509 136.293 138.278 136.293C136.98 136.293 136.097 137.271 136.097 138.69C136.097 140.119 136.99 141.078 138.325 141.078ZM138.278 136.848C139.133 136.848 139.697 137.431 139.697 138.305H136.745C136.858 137.412 137.422 136.848 138.278 136.848ZM142.097 140.965V138.587C142.097 137.562 142.623 136.885 143.554 136.885C144.306 136.885 144.785 137.261 144.785 138.324V140.965H145.434V138.183C145.434 137.036 144.917 136.293 143.667 136.293C143.009 136.293 142.407 136.622 142.106 137.205L142.012 136.415H141.448V140.965H142.097ZM146.473 138.7C146.473 140.128 147.347 141.078 148.634 141.078C149.668 141.078 150.477 140.467 150.693 139.536H150.035C149.856 140.119 149.311 140.495 148.634 140.495C147.713 140.495 147.112 139.771 147.112 138.69C147.112 137.572 147.76 136.867 148.681 136.867C149.311 136.867 149.856 137.214 150.026 137.844H150.674C150.496 136.904 149.725 136.293 148.672 136.293C147.347 136.293 146.473 137.271 146.473 138.7ZM151.189 142.948C151.396 142.995 151.603 143.014 151.875 143.014C152.524 143.014 152.965 142.723 153.229 142.008L155.315 136.415H154.648L153.21 140.382L151.744 136.415H151.057L152.9 141.237L152.702 141.773C152.477 142.384 152.082 142.412 151.687 142.412H151.189V142.948Z" fill="#0C1612"/>
<path d="M113.211 165.494H112.541V170.436H115.385V169.814H113.211V165.494ZM115.766 168.761C115.766 169.794 116.504 170.518 117.509 170.518C118.507 170.518 119.245 169.794 119.245 168.761C119.245 167.729 118.507 167.005 117.509 167.005C116.504 167.005 115.766 167.729 115.766 168.761ZM116.415 168.761C116.415 168.064 116.859 167.579 117.509 167.579C118.151 167.579 118.603 168.064 118.603 168.761C118.603 169.459 118.151 169.944 117.509 169.944C116.859 169.944 116.415 169.459 116.415 168.761ZM120.569 170.436H121.204L121.785 168.652C121.908 168.249 121.97 168.03 122.004 167.866C122.038 168.05 122.107 168.31 122.216 168.645L122.797 170.436H123.406L124.547 167.093H123.877L123.317 168.83C123.221 169.124 123.159 169.356 123.105 169.623C123.05 169.383 122.941 168.994 122.886 168.83L122.332 167.093H121.676L121.115 168.83C121.04 169.048 120.951 169.329 120.897 169.623C120.835 169.329 120.767 169.076 120.692 168.83L120.138 167.093H119.475L120.569 170.436Z" fill="#77A701"/>
<path d="M304.388 170.436V168.242H306.835V170.436H307.505V165.494H306.835V167.62H304.388V165.494H303.718V170.436H304.388ZM308.904 166.3C309.137 166.3 309.328 166.109 309.328 165.877C309.328 165.637 309.137 165.453 308.904 165.453C308.672 165.453 308.481 165.637 308.481 165.877C308.481 166.109 308.672 166.3 308.904 166.3ZM308.59 170.436H309.233V167.093H308.59V170.436ZM310.001 168.679C310.001 169.616 310.603 170.347 311.553 170.347C312.08 170.347 312.517 170.115 312.736 169.725V170.395C312.736 171.031 312.326 171.441 311.697 171.441C311.136 171.441 310.767 171.154 310.685 170.662H310.042C310.165 171.509 310.787 172.022 311.697 172.022C312.722 172.022 313.372 171.352 313.372 170.299V167.093H312.797L312.749 167.661C312.538 167.244 312.121 166.998 311.58 166.998C310.61 166.998 310.001 167.736 310.001 168.679ZM310.644 168.666C310.644 168.05 311.027 167.558 311.669 167.558C312.326 167.558 312.708 168.023 312.708 168.666C312.708 169.322 312.312 169.787 311.663 169.787C311.034 169.787 310.644 169.295 310.644 168.666ZM314.989 170.429V168.611C314.989 168.037 315.324 167.586 315.946 167.586C316.425 167.586 316.746 167.859 316.746 168.536V170.436H317.389V168.392C317.389 167.538 316.979 166.998 316.124 166.998C315.605 166.998 315.201 167.244 314.989 167.606V165.405H314.347V170.429H314.989Z" fill="#77A701"/>
<path d="M215.362 188.926V210.289" stroke="#D2EA97" stroke-width="1.70902"/>
<path d="M215.362 276.94V298.303" stroke="#D2EA97" stroke-width="1.70902"/>
<path d="M215.362 188.926V210.289" stroke="url(#paint0_linear_424_11097)" stroke-width="1.70902" stroke-dasharray="4.27 4.27"/>
<path d="M215.363 289.862V311.225" stroke="url(#paint1_linear_424_11097)" stroke-width="1.70902" stroke-dasharray="4.27 4.27"/>
<rect x="162.925" y="311.199" width="101.707" height="37.5164" rx="18.7582" fill="#004D26"/>
<path d="M199.617 323.957V321.916H200.937L201.901 323.957H202.679L201.63 321.78C202.272 321.573 202.629 321.059 202.629 320.345C202.629 319.382 201.972 318.797 200.866 318.797H198.917V323.957H199.617ZM199.617 319.425H200.866C201.508 319.425 201.894 319.753 201.894 320.352C201.894 320.945 201.522 321.295 200.873 321.295H199.617V319.425ZM203.851 319.639C204.094 319.639 204.294 319.439 204.294 319.196C204.294 318.946 204.094 318.754 203.851 318.754C203.609 318.754 203.409 318.946 203.409 319.196C203.409 319.439 203.609 319.639 203.851 319.639ZM203.523 323.957H204.194V320.467H203.523V323.957ZM204.932 322.943C204.932 323.607 205.453 324.042 206.274 324.042C207.102 324.042 207.673 323.621 207.673 322.958C207.673 322.437 207.381 322.165 206.788 322.023L206.174 321.873C205.832 321.787 205.66 321.63 205.66 321.394C205.66 321.073 205.896 320.888 206.317 320.888C206.724 320.888 206.959 321.109 206.974 321.459H207.616C207.602 320.795 207.102 320.367 206.338 320.367C205.568 320.367 205.025 320.774 205.025 321.416C205.025 321.93 205.318 322.237 205.939 322.387L206.553 322.529C206.917 322.622 207.031 322.765 207.031 323C207.031 323.322 206.76 323.514 206.289 323.514C205.846 323.514 205.575 323.3 205.575 322.943H204.932ZM209.152 323.957V322.965L209.745 322.344L210.765 323.957H211.536L210.209 321.858L211.543 320.467H210.701L209.152 322.108V318.704H208.481V323.957H209.152ZM213.758 319.439H215.314V323.957H216.013V319.439H217.562V318.797H213.758V319.439ZM217.587 325.52C217.765 325.563 217.951 325.591 218.172 325.591C218.707 325.591 219.057 325.341 219.292 324.742L220.941 320.467H220.249L219.214 323.279L218.2 320.467H217.494L218.9 324.142L218.779 324.478C218.614 324.92 218.357 324.97 218.036 324.97H217.587V325.52ZM221.527 325.52H222.198V323.386C222.426 323.814 222.89 324.05 223.447 324.05C224.482 324.05 225.067 323.25 225.067 322.187C225.067 321.116 224.446 320.367 223.447 320.367C222.89 320.367 222.419 320.617 222.183 321.095L222.133 320.467H221.527V325.52ZM222.205 322.215C222.205 321.487 222.619 320.981 223.304 320.981C223.989 320.981 224.396 321.494 224.396 322.215C224.396 322.929 223.989 323.443 223.304 323.443C222.619 323.443 222.205 322.929 222.205 322.215ZM227.362 324.042C228.226 324.042 228.811 323.621 228.982 322.872H228.354C228.24 323.272 227.898 323.486 227.377 323.486C226.713 323.486 226.327 323.079 226.277 322.344L228.975 322.337V322.087C228.975 321.052 228.326 320.367 227.334 320.367C226.32 320.367 225.628 321.123 225.628 322.215C225.628 323.3 226.335 324.042 227.362 324.042ZM227.334 320.931C227.926 320.931 228.304 321.316 228.304 321.894H226.292C226.377 321.28 226.748 320.931 227.334 320.931Z" fill="#D2EA97"/>
<path d="M203.417 331.066H202.076V340.957H207.767V339.712H203.417V331.066ZM208.707 337.605C208.707 339.671 210.184 341.121 212.195 341.121C214.193 341.121 215.67 339.671 215.67 337.605C215.67 335.54 214.193 334.089 212.195 334.089C210.184 334.089 208.707 335.54 208.707 337.605ZM210.006 337.605C210.006 336.21 210.896 335.239 212.195 335.239C213.481 335.239 214.384 336.21 214.384 337.605C214.384 339.001 213.481 339.972 212.195 339.972C210.896 339.972 210.006 339.001 210.006 337.605ZM218.496 340.957H219.768L220.931 337.386C221.177 336.579 221.301 336.141 221.369 335.813C221.437 336.183 221.574 336.702 221.793 337.373L222.956 340.957H224.173L226.458 334.267H225.117L223.995 337.742C223.804 338.33 223.681 338.795 223.571 339.329C223.462 338.85 223.243 338.07 223.134 337.742L222.026 334.267H220.712L219.591 337.742C219.44 338.18 219.262 338.741 219.153 339.329C219.03 338.741 218.893 338.235 218.742 337.742L217.634 334.267H216.307L218.496 340.957Z" fill="white"/>
<path d="M93.0471 212.102C93.0471 211.101 93.8589 210.289 94.8602 210.289H334.525C335.527 210.289 336.338 211.101 336.338 212.102V286.22C336.338 287.221 335.527 288.033 334.525 288.033H94.8602C93.8589 288.033 93.0471 287.221 93.0471 286.22V212.102Z" fill="white"/>
<path d="M104.986 267.911L107.626 270.551L110.267 267.911L107.626 265.271L104.986 267.911ZM328.044 267.911L325.404 265.271L322.764 267.911L325.404 270.551L328.044 267.911ZM107.626 268.368H325.404V267.454H107.626V268.368Z" fill="#EAEDD6"/>
<path d="M124.438 265.167V270.197" stroke="#E3E6C8" stroke-width="0.914629" stroke-linecap="round"/>
<path d="M142.853 265.167V270.197" stroke="#E3E6C8" stroke-width="0.914629" stroke-linecap="round"/>
<path d="M161.268 265.167V270.197" stroke="#E3E6C8" stroke-width="0.914629" stroke-linecap="round"/>
<path d="M179.684 265.167V270.197" stroke="#00954A" stroke-width="0.914629" stroke-linecap="round"/>
<path d="M198.099 265.167V270.197" stroke="#E3E6C8" stroke-width="0.914629" stroke-linecap="round"/>
<path d="M216.515 265.167V270.197" stroke="#C0463D" stroke-width="0.914629" stroke-linecap="round"/>
<path d="M234.931 265.167V270.197" stroke="#E3E6C8" stroke-width="0.914629" stroke-linecap="round"/>
<path d="M253.347 265.167V270.197" stroke="#E3E6C8" stroke-width="0.914629" stroke-linecap="round"/>
<path d="M271.762 265.167V270.197" stroke="#E3E6C8" stroke-width="0.914629" stroke-linecap="round"/>
<path d="M290.177 265.167V270.197" stroke="#E3E6C8" stroke-width="0.914629" stroke-linecap="round"/>
<path d="M308.593 265.167V270.197" stroke="#E3E6C8" stroke-width="0.914629" stroke-linecap="round"/>
<path d="M105.041 267.911L107.682 270.551L110.322 267.911L107.682 265.271L105.041 267.911ZM177.498 267.911C177.498 269.258 178.59 270.35 179.937 270.35C181.284 270.35 182.376 269.258 182.376 267.911C182.376 266.564 181.284 265.472 179.937 265.472C178.59 265.472 177.498 266.564 177.498 267.911ZM107.682 268.368H179.937V267.454H107.682V268.368Z" fill="#00954A"/>
<path d="M235.522 260.2C235.217 260.2 234.954 260.09 234.733 259.868C234.512 259.646 234.402 259.382 234.402 259.076V249.632C234.402 249.326 234.512 249.063 234.733 248.841C234.954 248.619 235.217 248.508 235.522 248.508H248.037C248.341 248.508 248.604 248.619 248.825 248.841C249.046 249.063 249.157 249.326 249.157 249.632V259.076C249.157 259.382 249.046 259.646 248.825 259.868C248.604 260.09 248.341 260.2 248.037 260.2H235.522ZM241.779 254.473L235.283 250.157V259.076C235.283 259.146 235.305 259.204 235.35 259.249C235.395 259.294 235.452 259.316 235.522 259.316H248.037C248.106 259.316 248.164 259.294 248.209 259.249C248.253 259.204 248.276 259.146 248.276 259.076V250.157L241.779 254.473ZM241.779 253.543L248.101 249.392H235.477L241.779 253.543ZM235.283 250.157V249.392V259.076C235.283 259.146 235.305 259.204 235.35 259.249C235.395 259.294 235.452 259.316 235.522 259.316H235.283V250.157Z" fill="#00954A"/>
<path d="M141.341 246.217L148.135 250.286C148.292 250.375 148.401 250.495 148.463 250.645C148.524 250.795 148.555 250.942 148.555 251.084V259.526C148.555 259.824 148.446 260.082 148.23 260.299C148.014 260.516 147.757 260.625 147.459 260.625H135.222C134.925 260.625 134.668 260.516 134.451 260.299C134.235 260.082 134.127 259.824 134.127 259.526V251.084C134.127 250.942 134.16 250.795 134.225 250.645C134.29 250.495 134.397 250.375 134.546 250.286L141.341 246.217ZM141.341 254.642L147.595 250.947L141.341 247.178L135.087 250.947L141.341 254.642ZM141.341 255.603L134.989 251.844V259.526C134.989 259.594 135.011 259.65 135.054 259.694C135.098 259.738 135.154 259.76 135.222 259.76H147.459C147.527 259.76 147.583 259.738 147.627 259.694C147.671 259.65 147.693 259.594 147.693 259.526V251.844L141.341 255.603ZM141.341 259.76H147.693H134.989H141.341Z" fill="#C3C887"/>
<path d="M212.683 278.484C214.256 278.484 215.303 277.43 215.303 275.865C215.303 274.299 214.249 273.245 212.669 273.245H211.088V278.484H212.683ZM212.647 273.728C213.942 273.728 214.761 274.555 214.761 275.865C214.761 277.167 213.942 278.001 212.661 278.001H211.615V273.728H212.647ZM218.632 274.943V276.823C218.632 277.665 218.23 278.118 217.549 278.118C216.986 278.118 216.613 277.818 216.613 276.977V274.935H216.101V277.138C216.101 278.001 216.554 278.572 217.388 278.572C217.944 278.572 218.435 278.294 218.632 277.884L218.698 278.484H219.137V274.943H218.632ZM221.603 278.572C222.437 278.572 222.986 278.169 223.176 277.423H222.693C222.561 277.891 222.188 278.14 221.61 278.14C220.849 278.14 220.395 277.643 220.359 276.779H223.176V276.53C223.176 275.528 222.525 274.848 221.566 274.848C220.556 274.848 219.869 275.608 219.869 276.713C219.869 277.826 220.564 278.572 221.603 278.572ZM221.566 275.279C222.232 275.279 222.671 275.733 222.671 276.413H220.374C220.461 275.718 220.9 275.279 221.566 275.279Z" fill="#C0463D"/>
<path d="M105.106 227.777V224.638H107.136L108.618 227.777H109.814L108.201 224.43C109.189 224.111 109.738 223.321 109.738 222.223C109.738 220.742 108.728 219.842 107.027 219.842H104.03V227.777H105.106ZM105.106 220.808H107.027C108.014 220.808 108.607 221.313 108.607 222.234C108.607 223.145 108.036 223.683 107.038 223.683H105.106V220.808ZM113.043 227.909C114.371 227.909 115.271 227.261 115.534 226.109H114.568C114.393 226.723 113.866 227.053 113.065 227.053C112.044 227.053 111.451 226.427 111.375 225.297L115.523 225.286V224.902C115.523 223.31 114.525 222.256 112.999 222.256C111.44 222.256 110.376 223.42 110.376 225.099C110.376 226.767 111.462 227.909 113.043 227.909ZM112.999 223.123C113.91 223.123 114.492 223.716 114.492 224.605H111.396C111.528 223.661 112.099 223.123 112.999 223.123ZM117.784 227.777V224.594C117.784 223.738 118.3 223.2 119.079 223.2C119.804 223.2 120.265 223.661 120.265 224.506V227.777H121.285V224.594C121.285 223.738 121.801 223.189 122.58 223.189C123.305 223.189 123.777 223.672 123.777 224.517V227.777H124.787V224.265C124.787 223.025 124.04 222.256 122.811 222.256C121.977 222.256 121.329 222.673 121.077 223.343C120.802 222.673 120.21 222.256 119.376 222.256C118.618 222.256 118.048 222.608 117.773 223.112L117.674 222.41H116.752V227.777H117.784ZM126.798 221.137C127.172 221.137 127.479 220.83 127.479 220.456C127.479 220.072 127.172 219.776 126.798 219.776C126.425 219.776 126.118 220.072 126.118 220.456C126.118 220.83 126.425 221.137 126.798 221.137ZM126.294 227.777H127.325V222.41H126.294V227.777ZM129.932 227.777V224.934C129.932 223.892 130.491 223.2 131.457 223.2C132.247 223.2 132.752 223.639 132.752 224.726V227.777H133.784V224.495C133.784 223.123 133.136 222.256 131.721 222.256C130.963 222.256 130.283 222.619 129.943 223.233L129.833 222.41H128.9V227.777H129.932ZM137.441 227.909C138.297 227.909 139.021 227.536 139.373 226.8L139.461 227.777H140.382V219.699H139.362V223.277C139 222.619 138.308 222.256 137.485 222.256C135.893 222.256 134.939 223.464 134.939 225.11C134.939 226.745 135.882 227.909 137.441 227.909ZM137.65 226.976C136.596 226.976 135.981 226.186 135.981 225.077C135.981 223.98 136.596 223.189 137.65 223.189C138.703 223.189 139.351 223.98 139.351 225.077C139.351 226.197 138.703 226.976 137.65 226.976ZM144.264 227.909C145.592 227.909 146.492 227.261 146.755 226.109H145.789C145.614 226.723 145.087 227.053 144.285 227.053C143.265 227.053 142.672 226.427 142.595 225.297L146.744 225.286V224.902C146.744 223.31 145.745 222.256 144.22 222.256C142.661 222.256 141.596 223.42 141.596 225.099C141.596 226.767 142.683 227.909 144.264 227.909ZM144.22 223.123C145.131 223.123 145.712 223.716 145.712 224.605H142.617C142.749 223.661 143.32 223.123 144.22 223.123ZM151.046 222.366C150.838 222.322 150.684 222.3 150.498 222.3C149.762 222.3 149.224 222.673 149.005 223.233L148.939 222.421H147.973V227.777H149.005V224.934C149.005 223.903 149.609 223.31 150.585 223.31H151.046V222.366Z" fill="#0C1612"/>
<path d="M286.684 253.234C286.908 253.234 287.096 253.158 287.247 253.006C287.398 252.855 287.474 252.667 287.474 252.443C287.474 252.219 287.398 252.031 287.247 251.88C287.095 251.728 286.907 251.653 286.683 251.653C286.459 251.653 286.271 251.729 286.12 251.88C285.969 252.032 285.893 252.22 285.893 252.444C285.893 252.668 285.969 252.855 286.121 253.007C286.272 253.158 286.46 253.234 286.684 253.234ZM290.057 253.234C290.281 253.234 290.469 253.158 290.62 253.006C290.771 252.855 290.847 252.667 290.847 252.443C290.847 252.219 290.771 252.031 290.619 251.88C290.468 251.728 290.28 251.653 290.056 251.653C289.832 251.653 289.644 251.729 289.493 251.88C289.342 252.032 289.266 252.22 289.266 252.444C289.266 252.668 289.342 252.855 289.493 253.007C289.645 253.158 289.833 253.234 290.057 253.234ZM293.298 253.234C293.522 253.234 293.71 253.158 293.861 253.006C294.012 252.855 294.088 252.667 294.088 252.443C294.088 252.219 294.012 252.031 293.861 251.88C293.709 251.728 293.521 251.653 293.297 251.653C293.073 251.653 292.885 251.729 292.734 251.88C292.583 252.032 292.507 252.22 292.507 252.444C292.507 252.668 292.583 252.855 292.735 253.007C292.886 253.158 293.074 253.234 293.298 253.234ZM282.388 261.611V247.665C282.388 247.319 282.515 247.018 282.768 246.764C283.021 246.51 283.32 246.383 283.665 246.383H296.335C296.681 246.383 296.981 246.51 297.235 246.764C297.49 247.018 297.617 247.319 297.617 247.665V257.334C297.617 257.679 297.49 257.978 297.235 258.232C296.981 258.485 296.681 258.611 296.335 258.611H285.388L282.388 261.611ZM284.9 257.334H296.335V247.665H283.665V258.682L284.9 257.334Z" fill="#00954A"/>
<g clip-path="url(#clip1_424_11097)">
<path d="M189 254.972C189 254.632 189 254.291 189 253.945C189.021 253.76 189.042 253.579 189.068 253.393C189.343 251.623 190.128 250.122 191.47 248.925C193.133 247.449 195.094 246.814 197.308 247.046C199.222 247.243 200.839 248.073 202.107 249.513C203.636 251.241 204.239 253.269 203.912 255.545C203.402 259.054 200.392 261.737 196.825 261.886C195.608 261.938 194.449 261.711 193.341 261.195C193.217 261.138 193.102 261.128 192.972 261.159C192.099 261.37 191.22 261.567 190.347 261.778C190.045 261.85 189.738 261.902 189.447 262.005C189.317 262.005 189.192 262.005 189.062 262.005C189.01 262.005 189 261.995 189 261.943C189.005 261.845 189 261.747 189 261.649C189.016 261.598 189.036 261.546 189.047 261.494C189.286 260.333 189.525 259.178 189.769 258.017C189.801 257.872 189.78 257.753 189.718 257.624C189.468 257.108 189.286 256.572 189.161 256.009C189.083 255.664 189.052 255.318 189 254.972ZM196.581 260.246C196.737 260.24 196.976 260.246 197.22 260.215C198.166 260.096 199.035 259.776 199.815 259.234C200.906 258.481 201.66 257.475 202.071 256.221C202.451 255.05 202.456 253.868 202.081 252.691C201.697 251.463 200.958 250.478 199.913 249.724C198.718 248.868 197.376 248.512 195.915 248.662C194.184 248.842 192.78 249.642 191.75 251.045C190.815 252.315 190.497 253.749 190.7 255.297C190.799 256.056 191.08 256.747 191.444 257.413C191.511 257.531 191.522 257.645 191.496 257.774C191.355 258.419 191.225 259.064 191.095 259.709C191.054 259.905 191.075 259.921 191.267 259.879C191.828 259.75 192.39 259.632 192.946 259.477C193.243 259.394 193.487 259.43 193.757 259.575C194.615 260.029 195.53 260.266 196.591 260.24L196.581 260.246Z" fill="#00954A"/>
<path d="M192.712 252.578C192.686 252.186 192.915 251.773 193.237 251.401C193.367 251.252 193.513 251.112 193.674 250.989C193.96 250.762 194.355 250.829 194.511 251.159C194.735 251.623 194.938 252.103 195.145 252.578C195.234 252.779 195.177 252.96 195.052 253.13C194.964 253.254 194.865 253.367 194.776 253.491C194.626 253.708 194.615 253.935 194.776 254.147C195.411 254.988 196.185 255.679 197.106 256.2C197.397 256.365 197.605 256.319 197.839 256.092C197.943 255.994 198.036 255.891 198.14 255.793C198.296 255.648 198.478 255.591 198.681 255.648C199.165 255.782 199.648 255.911 200.126 256.061C200.511 256.18 200.641 256.556 200.428 256.897C200.277 257.139 200.1 257.356 199.898 257.557C199.451 258.001 198.894 258.109 198.296 258.073C197.48 258.027 196.747 257.722 196.071 257.289C194.99 256.592 194.064 255.736 193.362 254.657C192.977 254.069 192.728 253.424 192.717 252.588L192.712 252.578Z" fill="#00954A"/>
</g>
</g>
<defs>
<linearGradient id="paint0_linear_424_11097" x1="215.362" y1="210.289" x2="215.362" y2="194.053" gradientUnits="userSpaceOnUse">
<stop stop-color="#96D300"/>
<stop offset="1" stop-color="#96D300" stop-opacity="0"/>
</linearGradient>
<linearGradient id="paint1_linear_424_11097" x1="215.363" y1="311.225" x2="215.363" y2="294.989" gradientUnits="userSpaceOnUse">
<stop stop-color="#96D300"/>
<stop offset="1" stop-color="#96D300" stop-opacity="0"/>
</linearGradient>
<clipPath id="clip0_424_11097">
<rect width="425.836" height="376.8" rx="1.93562" fill="white"/>
</clipPath>
<clipPath id="clip1_424_11097">
<rect width="15" height="15" fill="white" transform="translate(189 247)"/>
</clipPath>
</defs>
</svg>
